<?xml version="1.0" standalone="no"?>
<!DOCTYPE svg PUBLIC "-//W3C//DTD SVG 20010904//EN"
 "http://www.w3.org/TR/2001/REC-SVG-20010904/DTD/svg10.dtd">
<svg version="1.0" xmlns="http://www.w3.org/2000/svg"
 width="200.000000pt" height="200.000000pt" viewBox="0 0 200.000000 200.000000"
 preserveAspectRatio="xMidYMid meet">
<metadata>
Created by potrace 1.11, written by Peter Selinger 2001-2013
</metadata>
<g transform="translate(0.000000,200.000000) scale(0.100000,-0.100000)"
fill="#000000" stroke="none">
<path d="M0 1000 l0 -1000 1000 0 1000 0 0 1000 0 1000 -1000 0 -1000 0 0
-1000z m581 294 c17 -21 0 -49 -32 -49 -18 0 -25 6 -27 24 -6 38 34 55 59 25z
m-411 -14 c0 -11 -7 -20 -15 -20 -12 0 -15 -16 -15 -80 0 -44 4 -80 9 -80 8 0
91 141 91 155 0 3 -7 5 -15 5 -17 0 -18 2 -9 24 5 12 20 16 61 16 46 0 54 -3
49 -16 -3 -9 -6 -18 -6 -20 0 -2 -7 -4 -15 -4 -10 0 -15 -10 -15 -34 0 -48 12
-126 19 -126 3 0 24 35 46 77 28 53 36 77 28 80 -7 3 -13 13 -13 24 0 17 8 19
60 19 52 0 60 -2 60 -19 0 -10 -8 -21 -18 -24 -12 -2 -48 -57 -93 -141 -72
-131 -75 -136 -106 -136 l-33 0 0 63 c0 35 -3 67 -7 70 -3 4 -24 -24 -45 -63
-34 -62 -42 -70 -67 -70 -29 0 -29 0 -36 78 -3 42 -8 95 -10 117 -2 22 -4 50
-4 63 -1 13 -7 22 -16 22 -17 0 -18 2 -9 24 5 12 21 16 65 16 52 0 59 -2 59
-20z m558 -2 c-3 -13 -16 -74 -29 -136 -19 -94 -21 -115 -10 -122 8 -4 11 -15
8 -24 -5 -12 -20 -16 -62 -16 -48 0 -55 2 -55 20 0 11 7 20 15 20 8 0 17 10
20 23 3 12 14 60 25 107 24 101 24 110 6 110 -9 0 -12 7 -9 20 4 16 14 20 50
20 42 0 45 -2 41 -22z m262 12 c0 -6 -11 -59 -25 -118 -14 -59 -27 -117 -30
-129 -4 -17 -1 -23 11 -23 9 0 14 -7 12 -17 -4 -23 -87 -32 -99 -11 -7 10 -11
10 -21 0 -6 -6 -27 -12 -44 -12 -80 0 -100 124 -32 197 29 31 81 40 114 18 30
-20 29 -20 38 28 6 30 4 37 -9 37 -15 0 -21 21 -8 33 10 11 93 8 93 -3z m150
7 c0 -2 -13 -61 -30 -133 -35 -150 -34 -144 -16 -144 9 0 12 -7 9 -20 -5 -17
-14 -20 -64 -20 -63 0 -71 8 -39 37 12 12 27 53 40 108 11 50 22 100 25 113 4
15 1 22 -10 22 -15 0 -21 21 -8 33 6 7 93 10 93 4z m769 -114 c-30 -127 -35
-163 -19 -163 6 0 10 -9 10 -20 0 -17 -7 -20 -51 -20 -36 0 -48 3 -43 12 5 8
2 9 -12 3 -10 -4 -35 -10 -55 -13 -30 -3 -40 1 -58 23 -40 52 -18 149 43 186
38 23 64 24 94 3 28 -19 28 -19 37 29 6 30 4 37 -9 37 -18 0 -19 2 -10 24 4
12 20 16 54 16 l47 0 -28 -117z m-600 16 c39 -14 48 -44 32 -111 -14 -64 -14
-68 4 -68 8 0 15 -9 15 -20 0 -18 -7 -19 -97 -18 -73 0 -102 4 -115 16 -26 22
-22 64 8 93 21 19 36 24 80 23 50 0 54 2 54 23 0 25 -23 34 -79 30 -42 -3 -51
18 -14 31 38 14 74 14 112 1z m312 -8 c23 -18 23 -19 8 -90 -14 -64 -14 -73
-1 -80 31 -17 5 -41 -44 -41 -37 0 -45 3 -40 15 3 9 11 45 18 81 14 80 3 99
-39 67 -33 -24 -55 -109 -33 -123 7 -4 10 -15 7 -24 -9 -22 -117 -23 -117 -1
0 7 7 18 15 23 9 4 22 33 30 63 19 69 19 79 -1 79 -9 0 -14 7 -12 18 2 12 15
18 47 20 24 2 47 -2 51 -8 4 -7 17 -6 41 4 44 19 43 19 70 -3z m-1072 -73
c-22 -101 -22 -98 -5 -98 9 0 12 -7 9 -20 -5 -17 -14 -20 -64 -20 -51 0 -58 2
-52 18 4 9 13 22 20 27 20 15 41 127 25 133 -6 2 -12 12 -12 23 0 16 7 19 49
19 l49 0 -19 -82z m1361 -188 c0 -7 -312 -10 -915 -10 -603 0 -915 3 -915 10
0 7 312 10 915 10 603 0 915 -3 915 -10z m-1776 -65 c-4 -8 -10 -15 -14 -15
-4 0 -10 -13 -13 -29 -3 -16 -9 -40 -13 -55 -5 -22 -3 -26 15 -26 28 0 45 35
45 93 0 45 1 47 28 47 27 0 39 -22 19 -35 -6 -3 -13 -26 -17 -52 -11 -75 -62
-111 -115 -83 -21 12 -25 54 -10 108 6 19 6 32 1 32 -5 0 -7 7 -4 15 4 10 20
15 45 15 30 0 37 -3 33 -15z m217 5 c23 -13 26 -68 4 -76 -18 -7 -20 -51 -3
-56 18 -6 0 -40 -19 -36 -11 2 -22 18 -27 41 -5 20 -15 37 -22 37 -14 0 -26
-38 -13 -45 19 -12 -5 -35 -36 -35 -40 0 -51 13 -30 33 18 19 36 96 28 125 -5
21 -2 22 46 22 29 0 61 -5 72 -10z m173 -6 c20 -19 20 -38 2 -53 -10 -8 -13
-23 -9 -45 7 -45 -23 -66 -94 -66 -57 0 -62 7 -36 46 9 14 17 49 19 77 1 29 3
53 3 55 1 1 23 2 50 2 32 0 55 -6 65 -16z m176 7 c0 -6 -4 -13 -10 -16 -5 -3
-10 -31 -10 -61 0 -46 3 -54 18 -54 14 0 21 12 30 48 6 27 8 59 5 70 -5 20 -1
22 30 22 35 0 37 -2 54 -56 17 -54 18 -55 25 -28 5 16 5 41 2 57 -5 25 -4 27
30 27 38 0 44 -8 24 -28 -7 -7 -20 -43 -28 -80 -12 -54 -19 -68 -36 -70 -17
-2 -24 7 -39 58 -21 71 -37 67 -37 -9 l0 -51 -69 0 c-53 0 -69 3 -69 14 0 8 5
18 10 21 18 11 10 25 -14 25 -19 0 -25 -6 -28 -27 -2 -23 -8 -29 -35 -31 -37
-4 -42 9 -14 35 25 24 63 101 56 113 -3 6 -3 15 0 20 8 13 105 13 105 1z m330
-6 c0 -8 -4 -15 -8 -15 -14 0 -34 -102 -22 -114 13 -13 27 1 35 37 5 19 3 27
-6 27 -32 0 10 18 54 23 56 5 62 -1 62 -65 0 -46 -1 -48 -28 -48 -22 0 -27 4
-23 18 2 9 7 28 11 40 6 20 4 23 -12 20 -14 -3 -18 -12 -17 -41 l1 -37 -78 0
c-44 0 -79 3 -79 7 0 3 8 15 17 26 13 13 18 36 18 78 l0 59 37 0 c27 0 38 -4
38 -15z m524 9 c8 -3 12 -12 10 -19 -3 -8 -12 -11 -19 -9 -16 7 -29 -12 -15
-21 8 -5 7 -12 -3 -23 -19 -22 -28 -60 -16 -68 17 -10 -2 -24 -32 -24 -30 0
-36 8 -20 26 5 5 11 20 13 34 2 20 -1 24 -17 22 -28 -5 -46 -31 -39 -59 6 -21
3 -23 -30 -23 -41 0 -42 2 -20 35 10 16 14 34 10 50 -6 24 -4 26 26 25 54 -1
82 6 86 21 5 15 31 39 43 39 4 0 14 -3 23 -6z m-327 -24 c-3 -11 -1 -23 5 -26
5 -4 4 -13 -5 -22 -22 -26 -28 -62 -10 -62 18 0 13 -20 -9 -34 -23 -14 -51 10
-42 38 4 11 7 33 6 48 0 16 10 37 25 52 31 31 37 32 30 6z m113 -40 c32 -32
25 -48 -22 -52 -24 -2 -42 -7 -40 -13 2 -5 16 -9 33 -7 36 3 38 -14 4 -30 -19
-8 -31 -8 -50 0 -50 23 -21 122 35 122 11 0 29 -9 40 -20z m289 11 c8 -5 14
-30 16 -59 l3 -50 -47 -4 c-50 -5 -71 5 -71 31 0 25 20 41 52 41 15 0 28 5 28
10 0 6 -13 10 -30 10 -16 0 -30 4 -30 9 0 19 55 27 79 12z m137 -1 c8 0 14 -9
14 -20 0 -16 -6 -19 -37 -17 -33 2 -38 -1 -41 -21 -3 -20 0 -23 25 -20 37 4
43 -13 11 -31 -23 -13 -29 -13 -52 2 -28 18 -33 45 -15 78 12 23 47 40 67 33
8 -2 20 -4 28 -4z m115 0 c11 -6 19 -21 19 -35 0 -23 -4 -25 -41 -25 -28 0
-39 -4 -36 -12 2 -8 17 -12 35 -10 36 4 42 -12 11 -28 -49 -27 -97 17 -77 70
16 45 50 60 89 40z"/>
<path d="M800 1128 c-26 -43 -25 -73 2 -92 26 -19 52 -7 73 34 19 37 19 55 -1
74 -25 25 -52 19 -74 -16z"/>
<path d="M1758 1149 c-22 -13 -40 -76 -28 -99 17 -31 40 -32 71 -1 58 58 23
139 -43 100z"/>
<path d="M1220 1080 c-30 -7 -41 -54 -15 -63 24 -10 63 13 68 38 5 27 -13 35
-53 25z"/>
<path d="M286 834 c-9 -23 -8 -24 14 -24 13 0 20 7 20 20 0 24 -25 27 -34 4z"/>
<path d="M457 829 c-4 -15 -1 -19 11 -17 21 4 29 38 9 38 -8 0 -17 -9 -20 -21z"/>
<path d="M440 755 c0 -27 9 -32 28 -13 18 18 14 38 -8 38 -15 0 -20 -7 -20
-25z"/>
<path d="M622 815 c-10 -21 -9 -25 3 -25 9 0 15 10 15 25 0 14 -2 25 -3 25 -2
0 -9 -11 -15 -25z"/>
<path d="M1285 790 c-3 -5 3 -10 14 -10 12 0 21 5 21 10 0 6 -6 10 -14 10 -8
0 -18 -4 -21 -10z"/>
<path d="M1565 751 c-3 -5 -1 -12 5 -16 12 -7 30 2 30 16 0 12 -27 12 -35 0z"/>
<path d="M1835 790 c-3 -5 3 -10 15 -10 12 0 18 5 15 10 -3 6 -10 10 -15 10
-5 0 -12 -4 -15 -10z"/>
</g>
</svg>
