<?xml version="1.0" standalone="no"?>
<!DOCTYPE svg PUBLIC "-//W3C//DTD SVG 20010904//EN"
 "http://www.w3.org/TR/2001/REC-SVG-20010904/DTD/svg10.dtd">
<svg version="1.0" xmlns="http://www.w3.org/2000/svg"
 width="260.000000pt" height="260.000000pt" viewBox="0 0 260.000000 260.000000"
 preserveAspectRatio="xMidYMid meet">
<metadata>
Created by potrace 1.11, written by Peter Selinger 2001-2013
</metadata>
<g transform="translate(0.000000,260.000000) scale(0.100000,-0.100000)"
fill="#000000" stroke="none">
<path d="M1334 2550 c-11 -4 -33 -22 -47 -40 -52 -62 -27 -144 44 -142 36 1
35 0 43 32 l7 25 -17 -22 c-36 -49 -80 -18 -71 50 9 67 91 129 99 75 3 -21 4
-21 9 5 6 24 3 27 -20 26 -14 0 -35 -4 -47 -9z"/>
<path d="M1065 2534 c-9 -9 -15 -27 -13 -39 1 -12 -2 -28 -8 -36 -24 -29 -25
-55 -3 -82 28 -36 70 -36 98 0 12 14 19 28 16 31 -2 3 -13 -5 -23 -18 -24 -30
-69 -21 -78 15 -9 36 2 55 31 55 31 0 33 17 3 22 -37 5 -29 33 10 32 34 -2 45
19 16 30 -24 9 -31 8 -49 -10z"/>
<path d="M1425 2475 c-17 -16 -25 -35 -25 -58 0 -58 36 -74 84 -36 20 15 26
29 26 58 0 63 -41 81 -85 36z m59 -29 c-2 -63 -64 -104 -64 -43 0 30 38 90 53
84 7 -2 11 -20 11 -41z"/>
<path d="M1550 2465 c-11 -13 -10 -14 3 -9 13 5 11 -5 -9 -41 -18 -31 -23 -50
-17 -56 7 -7 17 1 31 23 25 41 60 74 68 65 4 -3 -5 -26 -20 -51 -30 -52 -31
-56 -11 -56 8 0 15 4 15 8 0 12 70 92 81 92 5 0 -2 -22 -16 -50 -14 -27 -25
-54 -25 -60 0 -18 26 -11 46 12 15 19 16 20 2 9 -23 -18 -23 -9 2 31 35 58 20
85 -32 57 -18 -10 -20 -9 -15 5 8 21 -19 34 -36 17 -15 -15 -27 -14 -27 4 0
19 -24 19 -40 0z"/>
<path d="M1785 2470 c3 -6 -10 -36 -29 -68 -38 -61 -43 -81 -24 -100 19 -19
54 -14 87 14 24 19 31 34 31 60 0 37 -14 43 -52 23 -18 -9 -17 -6 6 28 24 34
25 38 9 45 -26 10 -35 9 -28 -2z m45 -86 c0 -21 -67 -87 -80 -79 -19 11 -10
33 25 64 40 35 55 39 55 15z"/>
<path d="M1144 2454 c-32 -13 -64 -44 -46 -44 6 0 14 5 17 10 4 6 15 8 25 5
13 -4 22 1 30 15 15 28 11 30 -26 14z"/>
<path d="M906 2433 c-11 -20 -15 -23 -16 -10 0 9 -4 17 -10 17 -12 0 -34 -40
-26 -48 3 -3 6 0 6 6 0 7 4 12 9 12 5 0 9 -6 8 -12 -2 -53 4 -101 12 -92 8 8
19 68 20 111 1 7 8 10 16 7 9 -4 15 0 15 9 0 28 -19 28 -34 0z"/>
<path d="M777 2402 c-38 -42 -9 -143 37 -126 18 7 41 43 32 51 -3 3 -8 -2 -12
-11 -3 -9 -12 -16 -19 -16 -27 0 -27 23 -1 47 32 29 32 66 0 71 -11 2 -28 -6
-37 -16z m37 -7 c6 -16 -13 -55 -26 -55 -10 0 -10 32 -2 54 8 20 20 20 28 1z"/>
<path d="M1935 2410 c-8 -13 4 -32 16 -25 12 8 12 35 0 35 -6 0 -13 -4 -16
-10z"/>
<path d="M665 2347 c-20 -49 4 -117 41 -117 16 0 50 48 41 57 -4 3 -9 -2 -13
-11 -3 -9 -12 -16 -19 -16 -26 0 -26 21 -1 51 29 35 31 40 14 57 -22 22 -48
13 -63 -21z m41 -21 c-3 -14 -11 -26 -16 -26 -11 0 -14 53 -3 64 13 12 26 -13
19 -38z"/>
<path d="M1884 2365 c-19 -15 -19 -15 1 -8 16 6 13 -1 -13 -32 -17 -22 -32
-45 -32 -52 0 -18 35 -16 50 2 11 13 10 14 -6 8 -14 -5 -10 4 14 32 17 22 32
45 32 52 0 17 -22 16 -46 -2z"/>
<path d="M578 2340 c-3 -16 -2 -30 2 -30 4 0 14 -27 24 -61 14 -52 19 -59 31
-49 8 7 15 22 15 34 0 16 -2 18 -9 7 -6 -10 -12 1 -19 35 -7 30 -7 50 -1 52 5
2 9 8 9 13 0 6 -4 8 -9 5 -5 -3 -11 1 -15 9 -9 25 -23 17 -28 -15z"/>
<path d="M1954 2335 c-19 -15 -19 -15 1 -8 15 5 10 -4 -18 -38 -44 -55 -38
-69 12 -30 44 34 81 55 81 44 -1 -4 -14 -24 -30 -43 -17 -19 -30 -40 -30 -47
0 -18 35 -16 50 2 11 13 10 14 -6 8 -14 -5 -10 4 14 30 43 51 43 71 -2 64 -30
-5 -33 -3 -29 14 6 23 -15 25 -43 4z"/>
<path d="M512 2288 c-7 -7 -12 -23 -12 -37 l-1 -26 -12 23 c-10 17 -15 20 -25
10 -7 -7 -12 -21 -12 -32 0 -17 2 -18 9 -7 7 11 13 2 24 -34 21 -75 35 -68 29
15 -6 83 10 95 28 20 7 -28 17 -53 22 -56 13 -8 28 14 28 41 0 15 -2 17 -9 6
-7 -10 -13 0 -23 34 -14 51 -26 63 -46 43z"/>
<path d="M1205 2275 c-5 -3 -41 -8 -80 -12 -66 -8 -70 -10 -71 -33 -1 -14 -5
-33 -9 -43 -4 -9 -4 -28 -1 -42 4 -16 2 -25 -5 -25 -23 0 -135 -62 -194 -108
-33 -25 -92 -58 -132 -73 -138 -51 -232 -122 -266 -199 -14 -32 -20 -67 -20
-118 l0 -73 47 -48 47 -47 4 -120 c5 -177 47 -312 138 -450 19 -29 37 -68 41
-89 7 -35 65 -106 178 -215 53 -52 151 -98 276 -130 35 -9 42 -15 42 -36 0
-17 8 -27 24 -34 13 -5 27 -14 31 -19 10 -17 95 -14 101 4 4 8 13 15 21 15 8
0 20 14 26 30 9 24 21 33 52 41 138 34 245 88 300 152 20 23 56 62 79 87 42
44 76 98 76 120 0 6 19 38 41 72 93 136 141 295 142 467 l1 105 36 33 c64 57
80 175 36 268 -36 78 -110 132 -253 185 -46 16 -111 51 -154 82 -41 29 -102
66 -136 81 -57 25 -61 30 -54 50 5 14 5 30 -1 40 -5 10 -7 23 -5 30 10 28 -13
48 -56 47 -23 0 -98 2 -167 5 -69 2 -129 2 -135 0z m216 -11 l44 -6 0 -47 0
-46 -157 0 -158 0 0 38 c0 20 0 40 0 45 -1 17 184 28 271 16z m90 -17 c-6 -8
-8 -16 -5 -20 3 -3 0 -15 -6 -27 -9 -16 -9 -25 -1 -33 8 -8 11 -5 11 11 0 17
6 22 24 22 28 0 37 -17 24 -43 -7 -14 -13 -16 -22 -7 -8 5 -21 8 -30 4 -33
-13 -44 77 -12 98 18 13 29 9 17 -5z m39 -13 c0 -8 -7 -14 -15 -14 -17 0 -18
2 -9 24 7 18 24 12 24 -10z m-460 -4 c0 -11 -7 -20 -15 -20 -15 0 -21 21 -8
33 12 13 23 7 23 -13z m38 8 c17 -17 15 -73 -4 -89 -15 -12 -16 -11 -10 8 4
13 4 28 0 35 -11 17 -14 58 -5 58 4 0 12 -5 19 -12z m-28 -53 c11 -13 10 -19
-7 -35 -15 -14 -23 -16 -32 -7 -14 14 -14 30 1 45 16 16 23 15 38 -3z m355
-44 c161 -33 298 -112 408 -232 73 -80 152 -211 143 -235 -5 -12 -15 0 -36 42
-100 198 -284 344 -496 395 -122 29 -274 23 -389 -15 -193 -65 -351 -204 -441
-388 -28 -59 -44 -73 -44 -40 0 25 76 151 130 215 80 95 204 185 305 221 165
59 271 68 420 37z m-119 -116 c7 -19 14 -36 14 -37 0 -2 -18 -4 -40 -4 -22 -1
-40 0 -40 1 0 15 33 75 41 75 5 0 17 -16 25 -35z m-92 9 c9 -23 7 -64 -3 -64
-5 0 -14 7 -22 16 -12 14 -14 13 -21 -7 -8 -19 -11 -21 -18 -9 -5 8 -10 27
-10 43 0 29 17 36 38 15 9 -9 12 -8 12 5 0 21 16 22 24 1z m191 6 c3 -5 -1
-10 -9 -10 -8 0 -16 -11 -18 -27 -2 -14 -9 -29 -17 -31 -10 -3 -12 2 -8 24 3
19 0 32 -11 41 -15 11 -12 12 20 13 20 0 40 -4 43 -10z m50 -32 c-4 -13 -9
-31 -11 -40 -5 -18 -24 -25 -24 -9 0 32 15 71 27 71 10 0 12 -7 8 -22z m-341
-20 c19 -36 13 -47 -14 -30 -16 10 -18 9 -14 -3 4 -9 0 -15 -8 -15 -19 0 -41
67 -24 74 28 11 46 4 60 -26z m424 6 c12 -8 22 -21 22 -29 0 -17 -27 -45 -45
-45 -7 0 -21 7 -29 16 -9 8 -16 22 -16 29 0 14 26 45 38 45 4 0 18 -7 30 -16z
m-528 -19 c-11 -13 -10 -14 4 -9 19 7 21 -6 4 -25 -10 -11 -10 -13 0 -7 6 4
17 4 23 0 8 -4 3 -12 -12 -20 -33 -18 -33 -18 -52 21 -15 32 -15 35 1 44 9 6
23 11 31 11 11 0 11 -3 1 -15z m608 -44 c3 -18 6 -20 18 -10 23 19 27 3 8 -30
-21 -35 -37 -36 -42 -2 -3 18 -6 20 -18 10 -23 -19 -27 -4 -9 31 18 35 38 35
43 1z m-682 3 c-4 -9 0 -27 9 -40 8 -13 11 -25 5 -29 -5 -3 -16 5 -25 19 -10
14 -22 23 -31 19 -22 -8 -16 13 9 30 29 21 41 21 33 1z m498 -45 c117 -39 235
-134 306 -245 16 -27 30 -53 30 -59 0 -12 -55 -25 -225 -55 -110 -20 -375 -28
-475 -15 -95 12 -187 27 -238 37 -60 13 -60 11 -9 97 51 86 137 165 230 211
130 63 250 73 381 29z m-534 -63 c0 -3 -14 -6 -31 -6 -27 0 -30 -2 -19 -15 23
-27 0 -30 -27 -3 -28 29 -23 53 9 42 17 -5 20 -3 14 11 -12 32 5 35 30 6 13
-16 24 -32 24 -35z m817 17 c-8 -47 -26 -66 -33 -35 -4 13 -14 22 -25 22 -28
0 -23 17 9 34 45 25 55 21 49 -21z m63 -31 c0 -5 -9 -17 -20 -27 -15 -14 -17
-21 -9 -32 20 -24 -1 -28 -24 -4 l-22 22 28 25 c29 24 47 31 47 16z m-970 -37
c13 -14 21 -28 17 -31 -9 -9 -68 36 -62 47 10 14 20 11 45 -16z m26 -296 c3
-5 -4 -9 -15 -9 -12 0 -21 -4 -21 -10 0 -5 7 -10 15 -10 8 0 15 -5 15 -11 0
-6 -9 -9 -19 -6 -13 3 -21 -1 -24 -15 -10 -36 -28 -9 -21 30 4 20 8 40 10 43
5 9 53 -1 60 -12z m914 11 c0 -5 -7 -10 -15 -10 -8 0 -15 -4 -15 -10 0 -5 6
-10 14 -10 7 0 19 -7 26 -15 10 -12 10 -18 0 -30 -16 -19 -60 -20 -60 -1 0 10
7 12 22 8 14 -3 19 -2 14 6 -4 7 -14 12 -22 12 -20 0 -29 27 -14 45 14 17 50
20 50 5z m-90 -19 c0 -5 -10 -12 -22 -16 l-23 -8 23 -4 c25 -5 30 -23 7 -23
-8 0 -15 -9 -15 -20 0 -11 -5 -20 -10 -20 -12 0 -16 9 -24 57 -4 27 -2 32 17
36 39 8 47 7 47 -2z m-765 -18 c-12 -61 -16 -73 -25 -73 -11 0 -13 33 -4 68 7
26 34 30 29 5z m100 -45 c1 -53 -5 -59 -28 -25 -13 18 -16 19 -16 5 -1 -10 -8
-18 -17 -18 -13 0 -15 7 -10 31 3 17 6 38 6 46 0 10 9 13 33 11 31 -3 32 -4
32 -50z m565 42 c0 -5 -9 -10 -21 -10 -11 0 -18 -4 -14 -10 3 -5 12 -7 20 -3
21 7 19 -7 -2 -23 -17 -12 -16 -13 5 -14 12 0 22 -4 22 -10 0 -5 -11 -10 -25
-10 -14 0 -28 -1 -32 -2 -9 -3 -22 80 -15 87 10 9 62 5 62 -5z m-460 -9 c0 -5
-10 -12 -22 -14 l-23 -4 23 -8 c12 -4 22 -11 22 -16 0 -5 -10 -9 -22 -10 -23
0 -23 0 1 -10 32 -12 15 -29 -21 -22 -23 4 -28 11 -28 33 0 46 10 60 41 60 16
0 29 -4 29 -9z m300 -47 c0 -46 -14 -59 -25 -24 -3 11 -13 20 -21 20 -8 0 -14
-9 -14 -20 0 -11 -7 -20 -15 -20 -11 0 -15 12 -15 45 0 35 4 45 16 45 10 0 14
-6 10 -15 -3 -10 1 -15 13 -15 11 0 21 9 24 21 9 35 27 11 27 -37z m60 27 c0
-16 3 -36 6 -45 4 -11 1 -16 -10 -16 -11 0 -16 9 -16 29 0 16 -3 36 -6 45 -4
11 -1 16 10 16 11 0 16 -9 16 -29z m-927 -103 c7 -133 24 -204 77 -314 74
-154 200 -284 342 -352 31 -15 57 -33 57 -39 1 -18 -2 -17 -62 13 -244 123
-402 355 -437 642 -9 82 -4 176 10 167 4 -2 10 -55 13 -117z m737 108 c0 -9
-7 -12 -21 -9 -23 6 -40 -12 -32 -34 3 -8 16 -13 29 -11 13 2 24 -1 26 -7 4
-15 -51 -18 -68 -4 -17 14 -18 51 -2 67 17 17 68 15 68 -2z m765 -230 c-40
-196 -136 -358 -285 -479 -56 -46 -177 -117 -198 -117 -25 0 -10 22 26 37 118
49 270 188 338 310 75 133 126 337 111 445 -3 23 -1 38 7 41 18 6 19 -147 1
-237z m-1245 134 c125 -36 268 -51 490 -50 230 0 365 13 482 46 32 9 61 15 63
12 8 -8 -15 -129 -35 -187 -44 -124 -147 -238 -271 -300 -338 -169 -721 47
-774 437 -7 56 -7 57 45 42z m950 -492 c0 -5 -13 -8 -29 -8 -24 0 -28 -3 -24
-20 7 -26 -4 -25 -28 3 -26 31 -24 47 7 47 14 0 23 4 19 10 -3 6 -3 15 1 21 6
11 53 -36 54 -53z m-830 28 c0 -34 -14 -76 -24 -73 -6 2 -11 10 -11 18 0 8
-10 15 -22 17 -31 4 -29 18 5 36 34 19 52 20 52 2z m79 -61 c3 -17 2 -18 -14
-5 -17 14 -17 13 -6 -9 9 -15 9 -27 3 -33 -14 -14 -52 0 -52 19 0 13 3 13 15
3 17 -14 21 0 4 17 -6 6 -8 16 -4 23 11 18 49 7 54 -15z m646 -4 c8 -27 -4
-50 -32 -57 -37 -10 -60 17 -45 51 14 31 67 36 77 6z m-765 -150 c34 -22 78
-46 96 -53 19 -7 34 -15 34 -19 0 -22 -29 -16 -102 23 -87 46 -208 152 -208
183 0 13 17 2 58 -38 33 -30 87 -74 122 -96z m190 119 c0 -5 -7 -7 -16 -3 -14
5 -14 3 -3 -15 18 -28 -2 -53 -28 -36 -24 15 -30 39 -8 30 15 -5 16 -4 5 9
-19 22 5 49 31 34 10 -5 19 -14 19 -19z m480 -42 c0 -10 -4 -18 -9 -18 -12 0
-32 60 -24 72 7 13 32 -29 33 -54z m305 35 c-27 -45 -101 -107 -178 -151 -93
-53 -107 -58 -107 -39 0 8 15 20 33 27 49 20 188 114 226 154 42 43 49 45 26
9z m-365 -3 c0 -5 -5 -10 -10 -10 -7 0 -8 -13 -4 -35 8 -44 -12 -48 -21 -4 -5
21 -11 29 -22 25 -9 -4 -13 -1 -11 6 3 7 15 15 29 19 35 10 39 10 39 -1z
m-326 -22 c25 -41 -35 -75 -68 -39 -14 16 -15 23 -6 41 14 26 57 24 74 -2z
m103 -14 c2 -7 -6 -10 -22 -7 -19 4 -25 1 -25 -12 0 -9 9 -19 20 -22 24 -6 27
-23 4 -23 -44 0 -69 41 -42 68 15 15 60 12 65 -4z m43 7 c0 -5 3 -23 6 -40 5
-24 3 -31 -10 -31 -12 0 -16 10 -16 40 0 22 5 40 10 40 6 0 10 -4 10 -9z m102
-30 l22 -34 -28 7 c-17 4 -34 2 -42 -5 -21 -17 -25 -8 -13 35 13 45 31 45 61
-3z m298 -106 c-35 -37 -165 -101 -254 -124 -43 -11 -82 -18 -87 -15 -20 12
-6 22 39 29 72 10 148 34 174 54 20 16 136 79 147 81 3 0 -6 -11 -19 -25z
m-761 -36 c63 -34 116 -55 169 -66 87 -19 86 -18 78 -31 -17 -27 -251 62 -321
122 -16 14 -27 25 -24 26 4 0 48 -23 98 -51z m166 36 c89 -19 262 -19 340 0
81 19 79 20 98 -19 l16 -35 -47 -15 c-124 -40 -318 -46 -440 -13 -70 19 -78
27 -58 66 9 17 18 31 19 31 1 0 34 -7 72 -15z m155 -163 c0 -31 -44 -52 -66
-31 -19 20 -8 48 22 55 13 3 24 11 24 18 0 21 20 -19 20 -42z m45 38 c-3 -5 2
-10 12 -10 24 0 43 -19 43 -42 0 -24 -20 -31 -53 -19 -29 11 -37 47 -15 69 15
15 21 16 13 2z m-10 -82 c30 -13 17 -28 -26 -28 -34 0 -43 10 -21 26 21 16 16
16 47 2z"/>
<path d="M1240 2234 c-6 -14 -10 -32 -10 -41 0 -13 3 -13 15 -3 12 10 18 10
30 0 20 -17 20 1 0 40 -19 37 -23 37 -35 4z"/>
<path d="M1315 2229 c-9 -39 -2 -46 24 -20 18 18 18 20 3 24 -15 4 -15 5 1 6
23 1 22 21 -2 21 -14 0 -21 -9 -26 -31z"/>
<path d="M1185 2218 c8 -35 12 -44 19 -37 7 8 -6 69 -16 69 -6 0 -7 -13 -3
-32z"/>
<path d="M1374 2236 c-10 -26 1 -51 24 -54 15 -2 22 2 22 14 0 13 -3 14 -15 4
-13 -11 -15 -8 -15 14 0 29 9 33 29 14 11 -11 13 -10 9 2 -6 20 -47 25 -54 6z"/>
<path d="M1526 1971 c-7 -11 18 -33 27 -24 4 3 7 12 7 20 0 15 -26 18 -34 4z"/>
<path d="M985 1430 c3 -5 8 -10 11 -10 2 0 4 5 4 10 0 6 -5 10 -11 10 -5 0 -7
-4 -4 -10z"/>
<path d="M1288 1180 l-3 -65 -19 38 c-18 37 -19 37 -33 17 -16 -22 -38 -26
-49 -8 -8 13 33 51 47 42 5 -3 9 0 9 5 0 19 -30 12 -55 -14 -14 -13 -25 -28
-25 -32 1 -4 21 -21 46 -37 49 -31 54 -47 7 -22 -16 8 -43 16 -59 18 -23 2
-30 -1 -32 -19 -3 -19 3 -22 45 -29 68 -9 88 -23 38 -25 -22 -1 -51 -2 -65 -3
-22 -1 -25 -5 -23 -35 0 -18 8 -40 16 -48 13 -13 17 -13 36 6 13 13 18 27 14
38 -6 15 -8 14 -13 -7 -8 -33 -34 -32 -38 1 -3 23 1 27 30 32 34 5 52 -8 43
-31 -3 -7 0 -10 6 -7 5 4 7 15 4 25 -5 15 1 20 30 26 46 8 57 -2 19 -18 -16
-7 -30 -20 -32 -28 -2 -8 -10 -20 -18 -26 -7 -6 -14 -16 -14 -22 0 -6 -8 -15
-17 -21 -14 -8 -15 -12 -4 -25 17 -21 33 -10 26 17 -4 14 -3 17 2 10 7 -9 20
0 47 33 35 42 39 53 44 118 3 39 10 74 16 78 13 8 15 69 2 61 -4 -3 -12 1 -17
8 -5 8 -9 -11 -11 -51z m25 10 c3 -11 1 -20 -4 -20 -5 0 -9 9 -9 20 0 11 2 20
4 20 2 0 6 -9 9 -20z m-53 -39 c0 -5 -6 -14 -14 -20 -16 -13 -32 2 -21 19 8
12 35 13 35 1z m20 -40 c12 -23 4 -51 -15 -51 -7 0 -29 7 -49 15 -20 8 -38 15
-41 15 -21 0 -25 1 -25 11 0 6 5 7 13 2 13 -8 12 -8 77 -19 42 -7 44 -6 27 10
-9 10 -17 22 -17 27 0 16 19 10 30 -10z m-10 -110 c-5 -11 -19 -26 -30 -34
-11 -8 -17 -17 -13 -20 3 -4 1 -7 -5 -7 -18 0 -15 7 16 46 29 37 49 46 32 15z"/>
<path d="M1375 1205 c-9 -26 -15 -39 -36 -74 -29 -48 -28 -111 3 -143 13 -13
35 -39 51 -57 22 -27 30 -31 41 -22 12 10 8 19 -25 54 -21 23 -39 48 -39 55 0
6 -8 12 -17 12 -13 0 -11 -6 12 -30 16 -16 26 -32 24 -35 -3 -3 -18 8 -33 23
-31 33 -27 62 9 62 26 0 46 -21 26 -28 -17 -6 6 -32 29 -32 10 0 23 -7 30 -15
11 -13 14 -13 26 2 7 10 13 25 13 33 0 8 -4 4 -10 -8 -11 -29 -34 -24 -34 8 0
17 7 26 25 31 21 6 19 7 -15 9 -22 1 -47 1 -55 0 -28 -3 4 16 49 30 24 8 39
16 32 18 -6 2 -9 8 -5 13 7 12 -2 11 -50 -2 -28 -8 -35 -13 -25 -19 13 -9 7
-12 -58 -35 -7 -2 -13 0 -13 5 0 5 11 12 24 16 16 4 23 11 19 20 -3 8 0 14 6
14 6 0 19 8 30 19 10 10 24 20 31 23 18 6 -7 43 -37 57 -19 9 -25 8 -28 -4z
m54 -29 c11 -13 10 -17 -3 -22 -26 -10 -46 3 -46 31 0 22 3 24 18 16 10 -5 24
-17 31 -25z m-40 -30 c8 -10 9 -16 1 -21 -13 -8 -30 3 -30 21 0 18 14 18 29 0z
m-36 -48 c-10 -11 -19 -15 -21 -8 -5 15 18 41 30 34 5 -3 1 -15 -9 -26z m97
-8 c-18 -12 -30 -13 -30 -2 0 4 10 9 22 9 18 2 20 0 8 -7z m-17 -71 c-5 -18
-26 -23 -24 -6 1 4 1 14 1 22 0 8 6 12 14 9 8 -3 12 -13 9 -25z m-27 -68 c-4
-5 -1 -12 4 -14 6 -3 5 -4 -2 -3 -15 3 -23 26 -8 26 6 0 9 -4 6 -9z"/>
<path d="M1279 952 c-2 -11 -8 -46 -11 -67 -2 -12 3 -20 15 -21 13 -2 14 -1 1
3 -10 3 -13 10 -8 21 3 10 6 25 6 35 -1 12 7 17 24 17 20 0 24 -4 19 -19 -3
-11 -2 -22 3 -24 4 -3 8 6 7 20 0 20 -7 28 -27 34 -16 4 -29 4 -29 1z"/>
<path d="M1330 870 c-13 -8 -12 -10 3 -10 9 0 17 5 17 10 0 12 -1 12 -20 0z"/>
<path d="M1610 786 c0 -8 4 -17 9 -20 11 -7 33 18 24 27 -12 12 -33 7 -33 -7z"/>
<path d="M1132 723 c4 -21 33 -25 33 -3 0 8 -8 16 -18 18 -14 3 -18 -1 -15
-15z"/>
<path d="M1094 559 c-8 -14 21 -43 35 -35 19 12 13 46 -8 46 -11 0 -23 -5 -27
-11z m36 -9 c0 -5 -4 -10 -10 -10 -5 0 -10 5 -10 10 0 6 5 10 10 10 6 0 10 -4
10 -10z"/>
<path d="M1450 545 c0 -14 5 -25 10 -25 6 0 10 11 10 25 0 14 -4 25 -10 25 -5
0 -10 -11 -10 -25z"/>
<path d="M1156 544 c-8 -21 -8 -21 13 -27 14 -3 19 1 19 19 0 27 -23 32 -32 8z"/>
<path d="M1204 545 c-7 -18 3 -35 22 -35 8 0 14 10 14 25 0 27 -27 35 -36 10z
m18 -17 c-7 -7 -12 -8 -12 -2 0 14 12 26 19 19 2 -3 -1 -11 -7 -17z"/>
<path d="M1322 535 c0 -16 2 -22 5 -12 2 9 2 23 0 30 -3 6 -5 -1 -5 -18z"/>
<path d="M1353 544 c-7 -18 11 -39 25 -30 12 7 4 46 -9 46 -6 0 -12 -7 -16
-16z"/>
<path d="M1408 534 c3 -19 7 -22 13 -12 13 20 11 38 -5 38 -9 0 -12 -8 -8 -26z"/>
<path d="M2084 2250 c-27 -11 -66 -59 -58 -72 4 -6 21 -8 39 -6 29 3 32 2 24
-13 -5 -11 -5 -20 0 -23 10 -7 61 10 61 20 0 3 -8 3 -17 -1 -10 -3 0 12 22 35
39 40 39 42 21 56 -22 15 -60 17 -92 4z m69 -15 c3 -14 -62 -55 -87 -55 -18 1
-16 5 17 36 36 33 66 41 70 19z"/>
<path d="M396 2221 c-4 -5 -2 -21 4 -36 12 -32 13 -92 2 -99 -5 -3 -16 20 -26
50 -19 59 -39 68 -43 18 -1 -16 0 -22 4 -14 4 10 12 -3 22 -35 19 -58 41 -65
56 -18 10 28 12 30 22 15 11 -15 13 -15 22 -2 6 8 10 24 10 35 0 20 0 20 -8 0
-6 -16 -11 -10 -25 33 -18 53 -30 69 -40 53z"/>
<path d="M2245 2219 c-4 -6 -14 -8 -22 -5 -10 4 -13 2 -10 -8 3 -7 -12 -30
-34 -52 -21 -21 -39 -42 -39 -46 0 -12 42 -10 60 3 11 8 9 9 -10 4 -24 -7 -23
-5 10 29 23 24 41 35 53 32 13 -3 17 0 13 9 -3 8 -1 17 5 20 10 7 3 25 -11 25
-5 0 -12 -5 -15 -11z"/>
<path d="M253 2182 c-7 -12 -7 -20 2 -27 6 -5 24 -40 39 -77 31 -74 56 -90 55
-35 0 22 -2 27 -7 14 -5 -12 -15 3 -36 58 -16 42 -32 77 -35 80 -4 2 -12 -4
-18 -13z"/>
<path d="M2324 2175 c-4 -8 -19 -15 -34 -15 -16 0 -32 -4 -35 -10 -4 -6 1 -7
12 -4 10 3 -1 -11 -24 -31 -24 -20 -43 -41 -43 -46 0 -12 57 -12 65 1 4 6 -1
7 -12 4 -10 -4 4 14 31 40 27 25 53 46 57 46 4 0 9 7 13 15 3 9 0 15 -10 15
-8 0 -17 -7 -20 -15z"/>
<path d="M2299 2081 c-33 -33 -36 -52 -13 -75 36 -37 124 1 124 53 0 54 -66
67 -111 22z m95 1 c8 -13 -22 -51 -55 -67 -54 -29 -68 7 -18 49 30 26 63 34
73 18z"/>
<path d="M115 2070 c-16 -18 -16 -20 -2 -20 11 0 20 -15 27 -42 6 -24 14 -52
17 -63 4 -14 -9 -6 -40 24 -26 24 -43 49 -40 55 3 6 -6 0 -20 -13 -26 -24 -36
-37 -18 -27 5 3 38 -21 74 -54 36 -33 67 -60 69 -60 3 0 -6 43 -19 97 -13 53
-22 102 -19 110 8 19 -8 16 -29 -7z"/>
<path d="M199 2069 c-23 -23 -24 -50 -4 -88 13 -26 33 -41 55 -41 19 0 40 33
40 63 0 64 -54 103 -91 66z m56 -30 c17 -32 17 -78 0 -82 -14 -3 -55 63 -55
89 0 36 36 31 55 -7z"/>
<path d="M2436 2032 c-14 -3 -16 -6 -6 -12 9 -6 1 -16 -29 -35 -62 -42 -53
-63 11 -26 39 22 88 35 88 23 0 -4 -20 -23 -45 -40 -26 -18 -43 -37 -40 -42 8
-13 52 -13 60 0 4 6 -1 7 -12 4 -15 -5 -15 -3 3 13 11 10 31 25 44 34 35 23
21 54 -22 45 -26 -5 -30 -4 -20 6 23 23 6 39 -32 30z"/>
<path d="M2507 1442 c-43 -44 -45 -52 -16 -52 15 0 19 -5 15 -15 -4 -10 1 -15
15 -15 11 0 18 4 14 9 -3 5 -1 12 4 15 5 4 8 21 7 39 -1 17 2 38 7 45 21 27
-11 10 -46 -26z m21 -17 c-11 -24 -38 -35 -38 -16 0 8 38 41 47 41 1 0 -3 -11
-9 -25z"/>
<path d="M190 1450 c0 -11 -7 -37 -15 -57 l-15 -36 49 5 c28 3 54 1 59 -4 5
-5 16 -6 25 -2 19 7 23 39 7 49 -16 10 -12 25 5 19 8 -4 15 -1 15 5 0 17 -40
13 -47 -5 -3 -8 -1 -20 6 -27 6 -6 11 -17 11 -25 0 -11 -3 -12 -14 -3 -9 8
-28 10 -50 6 -32 -6 -34 -5 -29 15 4 14 12 20 23 17 12 -3 22 6 34 29 l16 34
-40 0 c-34 0 -40 -3 -40 -20z m60 1 c0 -12 -29 -35 -36 -28 -11 10 5 37 21 37
8 0 15 -4 15 -9z"/>
<path d="M2229 1463 c-1 -5 -2 -15 -3 -23 -2 -8 -3 -23 -4 -32 -1 -9 -9 -24
-18 -32 -14 -15 -13 -16 11 -16 14 0 24 4 21 9 -3 5 1 28 9 51 8 23 15 44 15
46 0 8 -30 4 -31 -3z"/>
<path d="M2297 1463 c-16 -15 -7 -55 13 -60 26 -7 21 -24 -11 -40 -19 -10 -20
-13 -6 -13 31 0 79 56 75 87 -2 14 -9 29 -17 31 -9 3 -11 0 -6 -7 4 -7 4 -23
1 -37 -6 -21 -9 -23 -27 -14 -19 11 -19 13 -4 36 12 19 13 24 2 24 -8 0 -17
-3 -20 -7z"/>
<path d="M2390 1455 c-17 -20 -8 -49 15 -52 11 -2 14 0 8 3 -16 7 -17 36 -1
52 8 8 8 12 1 12 -6 0 -16 -7 -23 -15z"/>
<path d="M2440 1436 c0 -26 -7 -40 -31 -60 -21 -18 -26 -26 -14 -26 27 0 65
46 65 79 0 16 -4 33 -10 36 -6 4 -10 -8 -10 -29z"/>
<path d="M345 1447 c-5 -7 -11 -29 -13 -49 -3 -30 0 -38 12 -38 12 0 15 6 10
24 -3 14 0 29 9 37 7 8 12 20 9 27 -5 15 -14 15 -27 -1z"/>
<path d="M375 1370 c-3 -5 -1 -10 4 -10 6 0 11 5 11 10 0 6 -2 10 -4 10 -3 0
-8 -4 -11 -10z"/>
<path d="M1430 415 c-26 -32 13 -81 48 -59 22 14 27 41 12 59 -16 19 -44 19
-60 0z m58 -24 c2 -14 0 -21 -6 -17 -6 3 -12 0 -15 -6 -2 -7 -8 -10 -12 -5 -5
4 0 13 10 21 18 13 18 14 -1 25 -18 11 -18 12 1 9 12 -2 21 -12 23 -27z m-51
-13 c-3 -7 -5 -2 -5 12 0 14 2 19 5 13 2 -7 2 -19 0 -25z"/>
<path d="M444 291 c-77 -47 -59 -161 27 -161 30 0 43 7 68 35 39 44 41 86 6
120 -29 30 -59 32 -101 6z m81 -8 c20 -20 13 -75 -14 -113 -25 -34 -75 -35
-79 -1 -6 38 7 86 29 109 24 26 42 28 64 5z"/>
<path d="M623 275 c-17 -19 -28 -35 -23 -35 4 0 -1 -30 -11 -67 -28 -99 -27
-97 -44 -83 -17 14 -31 8 -20 -9 10 -17 40 -13 57 7 9 9 25 46 35 82 16 54 23
66 42 68 26 4 26 4 -6 -106 -11 -39 -18 -51 -26 -43 -15 15 -27 14 -27 -4 0
-24 47 -18 64 7 8 13 23 51 32 86 12 42 22 62 33 62 13 0 14 2 2 9 -19 12 -6
43 16 39 10 -1 19 2 21 7 7 24 -37 14 -61 -14 -35 -42 -79 -41 -56 1 8 15 14
17 24 8 13 -11 30 1 18 14 -15 15 -41 4 -70 -29z"/>
<path d="M1400 290 c-26 -26 -25 -36 6 -77 14 -18 24 -41 22 -51 -5 -24 -47
-28 -63 -5 -14 17 -14 17 -15 -4 0 -20 5 -23 43 -23 24 0 48 5 55 12 20 20 14
57 -15 94 -25 33 -25 36 -9 52 16 16 18 16 37 -7 18 -22 19 -22 19 -3 0 36
-49 43 -80 12z"/>
<path d="M790 284 c0 -17 22 -14 28 4 2 7 -3 12 -12 12 -9 0 -16 -7 -16 -16z"/>
<path d="M1867 293 c-12 -11 -8 -23 8 -23 8 0 15 7 15 15 0 16 -12 20 -23 8z"/>
<path d="M1759 268 c-7 -13 -14 -32 -15 -43 -1 -11 -5 -37 -9 -57 -9 -45 10
-52 41 -16 15 19 16 20 2 9 -21 -16 -22 -11 -6 40 7 24 17 39 27 39 13 0 14 2
2 9 -8 5 -11 16 -8 25 10 25 -20 19 -34 -6z"/>
<path d="M759 240 c-16 -14 -18 -18 -7 -14 17 6 17 4 1 -40 -9 -25 -14 -48
-10 -52 10 -10 57 13 57 27 0 8 -4 8 -15 -1 -8 -7 -15 -10 -15 -7 0 2 7 21 15
40 27 66 17 84 -26 47z"/>
<path d="M849 231 c-30 -31 -38 -68 -17 -89 19 -19 53 -14 74 11 10 12 12 16
4 10 -18 -17 -49 -16 -56 0 -6 16 13 69 28 78 6 4 19 2 29 -4 10 -6 22 -8 26
-4 9 10 -16 27 -40 27 -10 0 -32 -13 -48 -29z"/>
<path d="M978 244 c-29 -15 -42 -46 -36 -85 4 -33 56 -39 83 -9 10 11 13 20 7
20 -6 0 -14 -4 -17 -10 -10 -16 -45 -12 -45 5 0 8 12 18 28 21 15 4 33 11 40
17 17 13 15 44 -4 51 -21 8 -25 7 -56 -10z m47 -4 c6 -10 -29 -50 -45 -50 -14
0 -12 12 6 38 16 24 29 28 39 12z"/>
<path d="M1092 253 c-7 -3 -17 -14 -24 -26 -11 -21 -10 -21 7 -7 17 14 18 13
11 -10 -26 -94 -13 -108 26 -30 15 30 29 44 40 42 21 -3 34 16 19 31 -8 8 -16
7 -28 -5 -14 -14 -18 -15 -27 -4 -6 8 -17 12 -24 9z"/>
<path d="M1206 245 c-21 -22 -20 -38 4 -60 22 -20 27 -45 9 -45 -7 0 -18 8
-25 17 -14 21 -29 12 -20 -12 8 -21 65 -16 79 6 8 12 4 25 -16 51 -31 40 -25
56 11 32 22 -15 24 -14 20 3 -4 24 -41 28 -62 8z"/>
<path d="M1517 240 c-65 -52 -28 -138 44 -100 10 6 19 16 19 22 0 9 -3 9 -12
0 -16 -16 -45 -15 -51 2 -4 9 8 17 34 25 44 13 58 33 39 56 -17 21 -43 19 -73
-5z m53 -10 c0 -12 -9 -24 -22 -29 -29 -11 -35 4 -12 30 22 25 34 24 34 -1z"/>
<path d="M1641 234 c-30 -25 -38 -54 -25 -88 9 -24 58 -20 80 7 10 12 12 16 4
10 -8 -7 -24 -13 -37 -13 -28 0 -31 26 -8 70 17 33 25 36 43 18 13 -13 27 -5
17 11 -11 19 -42 12 -74 -15z"/>
<path d="M1829 239 c-19 -16 -20 -19 -5 -15 14 5 17 3 11 -11 -4 -10 -9 -33
-12 -50 -7 -40 14 -45 43 -11 15 19 16 20 2 9 -22 -16 -22 -6 -4 47 20 56 6
68 -35 31z"/>
<path d="M1950 253 c-46 -17 -68 -81 -38 -111 20 -20 67 -14 93 13 30 29 32
58 5 85 -20 20 -33 23 -60 13z m48 -30 c5 -36 -26 -85 -51 -81 -17 2 -22 9
-20 32 4 62 63 103 71 49z"/>
<path d="M2068 249 c-22 -12 -24 -31 -3 -23 13 5 13 1 0 -36 -18 -50 -18 -60
-5 -60 5 0 17 15 26 33 18 35 53 77 65 77 4 0 0 -22 -9 -50 -9 -27 -13 -52
-10 -56 10 -10 46 6 52 23 5 13 4 14 -9 3 -19 -15 -19 -13 0 40 22 63 2 79
-49 39 -25 -19 -27 -20 -24 -4 4 22 -11 28 -34 14z"/>
</g>
</svg>
