<?xml version="1.0" standalone="no"?>
<!DOCTYPE svg PUBLIC "-//W3C//DTD SVG 20010904//EN"
 "http://www.w3.org/TR/2001/REC-SVG-20010904/DTD/svg10.dtd">
<svg version="1.0" xmlns="http://www.w3.org/2000/svg"
 width="260.000000pt" height="260.000000pt" viewBox="0 0 260.000000 260.000000"
 preserveAspectRatio="xMidYMid meet">
<metadata>
Created by potrace 1.11, written by Peter Selinger 2001-2013
</metadata>
<g transform="translate(0.000000,260.000000) scale(0.100000,-0.100000)"
fill="#000000" stroke="none">
<path d="M1215 2385 c-11 -8 -28 -15 -38 -15 -30 0 -77 -33 -77 -52 0 -10 -4
-18 -10 -18 -5 0 -10 -21 -10 -47 0 -25 -6 -54 -13 -62 -49 -58 -58 -184 -32
-416 24 -212 26 -202 -50 -255 -36 -25 -76 -62 -90 -82 -21 -31 -32 -38 -82
-48 -32 -6 -98 -29 -148 -52 -93 -43 -87 -41 -490 -106 l-120 -20 1228 -1
1227 -1 -26 43 c-14 23 -36 51 -49 62 -16 14 -25 33 -27 59 -2 32 -7 40 -30
48 -34 12 -48 35 -48 82 0 19 -4 38 -10 41 -5 3 -10 16 -10 28 0 12 -7 31 -15
41 -10 13 -15 43 -15 81 0 50 -5 69 -30 108 -33 53 -87 77 -104 48 -5 -9 -13
-19 -18 -22 -5 -3 -13 -46 -18 -95 -27 -261 -49 -276 -50 -34 0 163 -3 199
-16 218 -15 22 -17 22 -34 7 -26 -24 -42 -10 -34 30 4 22 1 41 -10 56 -21 33
-32 149 -17 178 9 16 9 27 -1 48 -10 21 -25 29 -72 40 -33 7 -67 20 -75 27 -9
8 -32 17 -51 21 -19 3 -57 13 -83 22 -43 13 -55 13 -116 -1 -74 -16 -111 -11
-181 24 -52 26 -131 34 -155 15z"/>
<path d="M135 1140 c-28 -11 -44 -31 -51 -66 -7 -37 25 -80 75 -101 77 -32
104 -90 61 -133 -22 -22 -88 -27 -121 -10 -15 8 -19 7 -19 -4 0 -19 22 -26 81
-26 64 0 99 31 99 85 0 53 -14 72 -79 105 -32 16 -61 36 -65 45 -23 62 16 102
89 92 46 -7 63 6 23 17 -31 8 -69 7 -93 -4z"/>
<path d="M1707 1126 c-7 -19 18 -42 28 -26 8 13 -1 40 -14 40 -5 0 -11 -6 -14
-14z"/>
<path d="M603 1035 c-14 -10 -24 -12 -28 -5 -18 29 -25 -1 -25 -110 0 -100 3
-120 15 -120 12 0 15 17 15 93 0 85 2 96 23 115 13 12 35 22 50 22 41 0 57
-42 57 -145 0 -47 4 -85 9 -85 5 0 11 43 13 96 3 86 5 98 27 115 30 24 63 24
86 -1 13 -15 19 -42 23 -115 2 -52 9 -95 13 -95 16 0 10 178 -6 210 -24 45
-91 53 -129 14 -15 -14 -18 -14 -42 5 -31 25 -71 27 -101 6z"/>
<path d="M1040 1043 c-8 -3 -23 -12 -32 -21 -16 -14 -18 -13 -18 1 0 10 -4 17
-10 17 -6 0 -10 -63 -10 -170 0 -107 4 -170 10 -170 6 0 10 28 10 65 0 66 7
78 30 50 8 -9 30 -15 57 -15 36 0 50 6 73 28 74 75 31 224 -64 221 -17 0 -38
-3 -46 -6z m75 -19 c25 -10 45 -58 45 -109 0 -59 -32 -95 -85 -95 -60 0 -94
53 -81 124 13 69 63 102 121 80z"/>
<path d="M1290 1038 c-67 -35 -78 -158 -20 -210 44 -40 110 -39 150 0 49 50
50 152 0 197 -25 22 -97 30 -130 13z m114 -33 c62 -66 25 -185 -56 -185 -45 0
-75 23 -87 66 -21 76 19 144 84 144 26 0 43 -7 59 -25z"/>
<path d="M1530 1030 c-40 -40 -23 -77 59 -122 21 -12 31 -25 31 -41 0 -36 -24
-51 -70 -44 -41 5 -63 -6 -34 -17 37 -14 91 -6 112 17 40 42 27 79 -38 112
-49 25 -64 44 -54 70 8 19 46 29 79 21 27 -7 35 8 9 18 -31 12 -74 6 -94 -14z"/>
<path d="M2136 1029 c-21 -17 -26 -18 -26 -5 0 9 -4 16 -10 16 -6 0 -10 -47
-10 -120 0 -73 4 -120 10 -120 6 0 10 33 10 80 0 109 22 150 79 150 39 0 51
-31 51 -133 0 -80 3 -97 15 -97 12 0 15 17 15 93 0 85 2 96 23 115 30 29 71
28 91 0 12 -16 16 -47 16 -115 0 -79 2 -93 16 -93 14 0 16 13 12 101 -4 96 -5
103 -31 125 -34 29 -76 31 -110 4 l-26 -21 -21 21 c-26 26 -70 26 -104 -1z"/>
<path d="M300 1037 c0 -3 18 -52 40 -108 22 -57 40 -113 40 -126 0 -13 -16
-39 -40 -63 -21 -21 -35 -42 -31 -44 16 -10 61 35 87 86 21 41 104 245 104
255 0 2 -7 3 -15 3 -8 0 -15 -6 -15 -12 0 -7 -16 -53 -35 -103 -33 -89 -34
-90 -45 -60 -41 111 -67 169 -77 173 -7 2 -13 1 -13 -1z"/>
<path d="M1710 920 c0 -100 3 -120 15 -120 13 0 15 20 15 120 0 100 -2 120
-15 120 -12 0 -15 -20 -15 -120z"/>
<path d="M1820 946 c0 -79 3 -97 21 -120 26 -33 84 -36 123 -5 l26 20 0 -20
c0 -12 5 -21 10 -21 6 0 10 47 10 120 0 100 -2 120 -15 120 -12 0 -15 -16 -15
-88 0 -80 -2 -91 -23 -110 -27 -25 -65 -28 -93 -8 -16 12 -20 29 -22 110 -2
53 -8 96 -13 96 -5 0 -9 -42 -9 -94z"/>
<path d="M2043 675 c0 -64 1 -71 6 -37 8 48 23 67 45 59 11 -5 16 -20 16 -52
0 -25 5 -45 10 -45 13 0 13 51 0 86 -9 23 -15 26 -40 21 -25 -6 -29 -3 -33 21
-2 15 -4 -9 -4 -53z"/>
<path d="M1972 714 c-7 -8 -8 -14 -3 -14 5 0 11 -21 13 -47 2 -39 7 -48 23
-51 18 -2 18 -2 3 8 -12 7 -18 23 -18 45 0 22 6 38 18 44 15 9 15 10 0 11 -9
0 -18 4 -20 9 -1 5 -9 3 -16 -5z"/>
<path d="M1812 650 c1 -48 2 -50 5 -13 8 80 59 85 66 6 l3 -48 2 53 c2 54 2
54 -50 56 -28 2 -28 1 -26 -54z"/>
<path d="M2167 692 c-35 -39 -10 -93 41 -91 l27 2 -25 4 c-59 11 -66 43 -10
43 41 0 47 8 30 41 -13 24 -42 25 -63 1z m51 -4 c19 -19 14 -28 -18 -28 -18 0
-30 5 -30 13 0 28 27 36 48 15z"/>
<path d="M1773 650 c0 -30 2 -43 4 -27 2 15 2 39 0 55 -2 15 -4 2 -4 -28z"/>
</g>
</svg>
