<?xml version="1.0" encoding="UTF-8"?>
<svg width="79px" height="75px" viewBox="0 0 79 75" version="1.1" xmlns="http://www.w3.org/2000/svg" xmlns:xlink="http://www.w3.org/1999/xlink">
    <!-- Generator: Sketch 48.1 (47250) - http://www.bohemiancoding.com/sketch -->
    <title>Fill 1</title>
    <desc>Created with Sketch.</desc>
    <defs></defs>
    <g id="Design-Elements" stroke="none" stroke-width="1" fill="none" fill-rule="evenodd" transform="translate(-960.000000, -875.000000)">
        <path d="M998.375287,911.097661 C998.375287,912.146329 997.51445,912.996563 996.452702,912.996563 L982.689874,912.996563 C981.628126,912.996563 980.767288,912.146329 980.767288,911.097661 C980.767288,910.048992 981.628126,909.198758 982.689874,909.198758 L996.452702,909.198758 C997.51445,909.198758 998.375287,910.048992 998.375287,911.097661 Z M1010.28138,904.815142 C1010.28138,905.863811 1009.42054,906.714044 1008.35879,906.714044 L982.689874,906.714044 C981.628126,906.714044 980.767288,905.863811 980.767288,904.815142 C980.767288,903.766473 981.628126,902.916239 982.689874,902.916239 L1008.35879,902.916239 C1009.42054,902.916239 1010.28138,903.766473 1010.28138,904.815142 Z M980.767288,898.630891 C980.767288,897.582222 981.628126,896.731989 982.689874,896.731989 L1003.78256,896.731989 C1004.84431,896.731989 1005.70514,897.582222 1005.70514,898.630891 C1005.70514,899.67956 1004.84431,900.529794 1003.78256,900.529794 L982.689874,900.529794 C981.628126,900.529794 980.767288,899.67956 980.767288,898.630891 Z M980.767288,892.447116 C980.767288,891.398447 981.628126,890.548213 982.689874,890.548213 L1008.35879,890.548213 C1009.42054,890.548213 1010.28138,891.398447 1010.28138,892.447116 C1010.28138,893.495784 1009.42054,894.346018 1008.35879,894.346018 L982.689874,894.346018 C981.628126,894.346018 980.767288,893.495784 980.767288,892.447116 Z M1017.21086,885.760131 L1017.21086,939.041909 C1017.20413,939.106946 1017.20076,939.172933 1017.20076,939.239395 C1017.20076,943.078975 1014.03859,946.202195 1010.15112,946.202195 C1006.26366,946.202195 1003.10148,943.078975 1003.10148,939.239395 C1003.10148,938.190726 1002.24065,937.340492 1001.1789,937.340492 L974.072845,937.340492 L974.072845,885.760131 C974.072845,881.921499 977.235498,878.797805 981.122486,878.797805 L1019.80923,878.797805 C1018.1909,880.675819 1017.21086,883.106889 1017.21086,885.760131 Z M970.894811,946.202195 C967.674,946.202195 964.950658,944.05786 964.11193,941.138297 L999.426461,941.138297 C999.771565,943.047169 1000.62808,944.782766 1001.85036,946.202195 L970.894811,946.202195 Z M1028.10567,875 L981.122486,875 C975.114887,875 970.227674,879.82701 970.227674,885.760131 L970.227674,937.340492 L961.922586,937.340492 C960.860838,937.340492 960,938.190726 960,939.239395 C960,945.17299 964.887212,950 970.894811,950 L1010.19919,950 C1010.21072,950 1010.22226,950 1010.23379,949.999525 C1016.1097,949.956325 1020.89453,945.294994 1021.04209,939.515685 C1021.0517,939.440678 1021.05603,939.364247 1021.05603,939.286867 L1021.05603,885.760131 C1021.05603,881.921499 1024.21868,878.797805 1028.10567,878.797805 C1031.32696,878.797805 1034.04982,880.94214 1034.88855,883.861228 L1026.14271,883.861228 C1025.08144,883.861228 1024.22012,884.711462 1024.22012,885.760131 C1024.22012,886.8088 1025.08144,887.659033 1026.14271,887.659033 L1037.07741,887.659033 C1038.13916,887.659033 1039,886.8088 1039,885.760131 C1039,879.82701 1034.11327,875 1028.10567,875 Z" id="Fill-1" fill="#666666"></path>
    </g>
</svg>