<?xml version="1.0" encoding="UTF-8"?>
<svg width="91px" height="75px" viewBox="0 0 91 75" version="1.1" xmlns="http://www.w3.org/2000/svg" xmlns:xlink="http://www.w3.org/1999/xlink">
    <!-- Generator: Sketch 48.1 (47250) - http://www.bohemiancoding.com/sketch -->
    <title>Fill 1</title>
    <desc>Created with Sketch.</desc>
    <defs></defs>
    <g id="Design-Elements" stroke="none" stroke-width="1" fill="none" fill-rule="evenodd" transform="translate(-1146.000000, -875.000000)">
        <path d="M1158.8552,945.923887 L1155.97047,922.709062 L1161.07349,922.068633 L1163.95775,945.283458 L1158.8552,945.923887 Z M1154.169,942.144393 C1152.59752,942.345671 1151.15635,941.216975 1150.95991,939.635646 L1149.85604,930.755353 C1149.76117,929.989727 1149.96815,929.232769 1150.44007,928.623158 C1150.91152,928.01451 1151.59042,927.6264 1152.35269,927.530577 L1152.701,927.486758 L1154.51732,942.101056 L1154.169,942.144393 Z M1164.63905,919.679786 C1164.50873,918.624763 1163.55769,917.876473 1162.49981,918.007448 L1153.59359,919.12555 C1153.08956,919.18863 1152.63057,919.450098 1152.31819,919.853616 C1152.00629,920.256653 1151.86639,920.768515 1151.92963,921.275561 L1152.22668,923.664409 L1151.87789,923.708228 C1150.0999,923.931174 1148.515,924.836442 1147.41448,926.257905 C1146.31444,927.679368 1145.83053,929.446085 1146.05284,931.233026 L1147.15672,940.113319 C1147.57929,943.51963 1150.47601,946.01971 1153.80823,946.01971 C1154.08372,946.01971 1154.36305,946.002376 1154.64333,945.967224 L1154.64381,945.967224 L1154.99212,945.923405 L1155.28965,948.312735 C1155.41038,949.286861 1156.2359,950 1157.18837,950 C1157.2679,950 1157.34791,949.995185 1157.42841,949.985073 L1166.33462,948.866971 C1166.83913,948.803891 1167.29764,948.541941 1167.60954,948.138904 C1167.92192,947.735867 1168.06182,947.224006 1167.99858,946.716959 L1164.63905,919.679786 Z M1233.14444,930.755353 L1232.04057,939.635646 C1231.84413,941.216494 1230.40871,942.348079 1228.83147,942.144393 L1228.83147,942.144875 L1228.48268,942.101056 L1230.299,927.486758 L1230.64827,927.530577 C1231.41006,927.6264 1232.08896,928.01451 1232.56041,928.623158 C1233.03185,929.232769 1233.23931,929.989727 1233.14444,930.755353 Z M1219.04225,945.283458 L1221.92699,922.068633 L1227.03001,922.709062 L1224.1448,945.923887 L1219.04225,945.283458 Z M1235.58552,926.257905 C1234.485,924.836442 1232.90058,923.931174 1231.12307,923.708228 L1230.77332,923.664409 L1231.07085,921.275561 C1231.13361,920.768515 1230.99371,920.256653 1230.68181,919.853616 C1230.3699,919.450098 1229.91091,919.18863 1229.40689,919.12555 L1220.50019,918.007448 C1219.44566,917.876473 1218.49175,918.624763 1218.36095,919.679786 L1215.00142,946.716959 C1214.93865,947.224006 1215.07856,947.735867 1215.39046,948.138904 C1215.70236,948.541941 1216.16087,948.803891 1216.66538,948.866971 L1225.57159,949.985073 C1225.65256,949.995185 1225.73258,950 1225.81163,950 C1226.7641,950 1227.59009,949.286861 1227.71083,948.312735 L1228.00788,945.923405 L1228.35619,945.967224 L1228.35667,945.967224 C1228.63743,946.002376 1228.9158,946.01971 1229.19225,946.01971 C1232.52351,946.01971 1235.42071,943.51963 1235.84328,940.113801 L1236.94716,931.233026 C1237.16947,929.446085 1236.68556,927.679368 1235.58552,926.257905 Z M1173.5467,888.650766 L1173.5467,883.177747 C1173.5467,883.108407 1173.53377,883.041957 1173.5261,882.974062 C1178.99565,880.336265 1185.10385,878.852204 1191.53018,878.852204 C1197.83626,878.852204 1203.96746,880.278001 1209.53618,882.953356 C1209.52756,883.027511 1209.51367,883.100703 1209.51367,883.177747 L1209.51367,888.650766 C1203.84145,886.194504 1197.80656,884.947835 1191.53018,884.947835 C1185.25429,884.947835 1179.21939,886.194504 1173.5467,888.650766 Z M1213.34656,885.030657 C1215.6669,886.460788 1217.86316,888.120125 1219.89507,890.009149 C1227.59297,897.164136 1232.30887,906.864948 1233.17319,917.324163 C1233.26087,918.384964 1234.19178,919.171295 1235.242,919.08462 C1236.297,918.996501 1237.08035,918.065712 1236.99315,917.005393 C1236.04882,905.583609 1230.90076,894.991975 1222.49761,887.18115 C1214.04607,879.326025 1203.04852,875 1191.53018,875 C1167.54247,875 1147.54528,893.827164 1146.00445,917.861545 C1145.93642,918.922828 1146.73749,919.838689 1147.79394,919.907547 C1147.83562,919.909955 1147.8773,919.911399 1147.91898,919.911399 C1148.92129,919.911399 1149.76405,919.128439 1149.82968,918.108568 C1150.72898,904.075471 1158.50593,891.989182 1169.7138,885.064364 L1169.7138,891.681487 C1169.7138,891.703156 1169.71955,891.72338 1169.72051,891.74553 C1169.72291,891.815833 1169.73105,891.885172 1169.74159,891.955475 C1169.74974,892.014703 1169.75788,892.072967 1169.77178,892.130269 C1169.78567,892.189978 1169.80579,892.247761 1169.82592,892.306025 C1169.84843,892.371513 1169.87143,892.435556 1169.90018,892.497191 C1169.90976,892.517897 1169.91407,892.539084 1169.92461,892.559308 C1169.9409,892.59157 1169.96438,892.618054 1169.98259,892.649353 C1170.01708,892.708581 1170.05254,892.766364 1170.09326,892.821739 C1170.12967,892.871336 1170.16848,892.917563 1170.20873,892.962826 C1170.25041,893.009053 1170.29353,893.053835 1170.33952,893.09669 C1170.38504,893.138583 1170.43199,893.177105 1170.48134,893.214183 C1170.53165,893.252223 1170.58291,893.287374 1170.63657,893.321081 C1170.68688,893.351417 1170.73815,893.379346 1170.79085,893.405348 C1170.8493,893.433758 1170.90871,893.460242 1170.97052,893.482874 C1171.02561,893.503579 1171.08167,893.519951 1171.13868,893.53536 C1171.20001,893.551732 1171.26134,893.566178 1171.3241,893.57629 C1171.38974,893.587365 1171.4549,893.59218 1171.5215,893.596514 C1171.55839,893.59844 1171.59288,893.607589 1171.63025,893.607589 C1171.65325,893.607589 1171.67481,893.601329 1171.69733,893.600366 C1171.76488,893.59844 1171.83196,893.589772 1171.89999,893.580142 C1171.96036,893.570993 1172.02025,893.563288 1172.07918,893.548361 C1172.13715,893.534397 1172.19417,893.514654 1172.25118,893.494912 C1172.31682,893.47228 1172.38054,893.448685 1172.44235,893.419794 C1172.46247,893.410163 1172.48355,893.406311 1172.50368,893.395718 C1178.42694,890.346217 1184.82836,888.800039 1191.53018,888.800039 C1198.23249,888.800039 1204.63391,890.346217 1210.55669,893.395718 C1210.5864,893.410645 1210.61658,893.422202 1210.64677,893.435203 C1210.66928,893.445796 1210.69132,893.455908 1210.7148,893.465539 C1210.81733,893.507432 1210.9213,893.540175 1211.0267,893.562807 C1211.04251,893.566659 1211.0588,893.568104 1211.07509,893.570993 C1211.19247,893.593625 1211.31082,893.60807 1211.42868,893.60807 C1211.5451,893.60807 1211.65913,893.593143 1211.7722,893.572437 C1211.80238,893.567622 1211.83161,893.561362 1211.86132,893.55414 C1211.95953,893.531508 1212.05536,893.502616 1212.14878,893.464576 C1212.1598,893.460242 1212.1713,893.457353 1212.18232,893.452538 C1212.28246,893.409682 1212.37732,893.355751 1212.46931,893.296042 C1212.49326,893.280633 1212.51626,893.26378 1212.53974,893.246926 C1212.614,893.193958 1212.68443,893.135694 1212.75055,893.072133 C1212.76588,893.057205 1212.78265,893.044204 1212.79702,893.028795 C1212.87368,892.950307 1212.94459,892.865558 1213.00783,892.772142 C1213.0222,892.751918 1213.03275,892.729286 1213.04616,892.708581 C1213.07682,892.659947 1213.1094,892.611794 1213.13623,892.559308 C1213.1463,892.539084 1213.15061,892.517897 1213.16019,892.497191 C1213.18894,892.435556 1213.21241,892.371513 1213.23445,892.306025 C1213.25457,892.247761 1213.2747,892.189978 1213.28859,892.130269 C1213.30296,892.073449 1213.31063,892.014703 1213.31925,891.955475 C1213.32932,891.885172 1213.33794,891.815833 1213.34034,891.74553 C1213.34129,891.72338 1213.34656,891.703156 1213.34656,891.681487 L1213.34656,885.030657 Z M1178.12702,923.467946 C1176.6686,923.467946 1175.48232,922.275689 1175.48232,920.809926 C1175.48232,919.344162 1176.6686,918.151905 1178.12702,918.151905 C1179.58543,918.151905 1180.77172,919.344162 1180.77172,920.809926 C1180.77172,922.275689 1179.58543,923.467946 1178.12702,923.467946 Z M1183.66028,920.809926 L1183.66028,904.328272 L1189.09246,902.952072 C1189.86623,902.756091 1190.33528,901.966871 1190.14028,901.19017 C1189.94576,900.412988 1189.16529,899.941093 1188.38673,900.137074 L1181.86313,901.790151 C1181.83295,901.797374 1181.80612,901.812301 1181.77689,901.82145 C1181.72275,901.838785 1181.66957,901.855639 1181.61879,901.879233 C1181.57998,901.89705 1181.54357,901.918719 1181.50715,901.939906 C1181.46308,901.964945 1181.419,901.989984 1181.37779,902.019357 C1181.34138,902.045841 1181.30832,902.075214 1181.27478,902.104587 C1181.23837,902.136368 1181.20196,902.167667 1181.16842,902.202819 C1181.13872,902.235081 1181.11237,902.269751 1181.08506,902.30442 C1181.05487,902.342942 1181.02421,902.381464 1180.99786,902.423839 C1180.97534,902.459953 1180.95665,902.498475 1180.93701,902.536516 C1180.91401,902.581298 1180.89102,902.625116 1180.87281,902.672306 C1180.85652,902.71468 1180.84502,902.75898 1180.83256,902.803281 C1180.81963,902.849026 1180.80573,902.893326 1180.79759,902.940516 C1180.78801,902.992039 1180.78561,903.043562 1180.78226,903.096048 C1180.77986,903.130237 1180.77172,903.162499 1180.77172,903.19765 L1180.77172,915.926776 C1179.98549,915.494848 1179.08428,915.248788 1178.12702,915.248788 C1175.07555,915.248788 1172.59375,917.743572 1172.59375,920.809926 C1172.59375,923.87628 1175.07555,926.371545 1178.12702,926.371545 C1181.178,926.371545 1183.66028,923.87628 1183.66028,920.809926 Z M1203.67329,936.123399 C1202.21487,936.123399 1201.02859,934.931623 1201.02859,933.46586 C1201.02859,932.000096 1202.21487,930.807358 1203.67329,930.807358 C1205.1317,930.807358 1206.31799,932.000096 1206.31799,933.46586 C1206.31799,934.931623 1205.1317,936.123399 1203.67329,936.123399 Z M1192.98621,920.933678 L1192.98621,917.504253 L1206.31799,914.126834 L1206.31799,917.555777 L1192.98621,920.933678 Z M1187.45294,940.2337 C1185.995,940.2337 1184.80824,939.040962 1184.80824,937.575198 C1184.80824,936.109435 1185.995,934.917659 1187.45294,934.917659 C1188.91136,934.917659 1190.09764,936.109435 1190.09764,937.575198 C1190.09764,939.040962 1188.91136,940.2337 1187.45294,940.2337 Z M1209.14571,911.867516 C1209.12511,911.795769 1209.10211,911.725466 1209.07144,911.658534 C1209.05659,911.625791 1209.03791,911.595936 1209.02066,911.565118 C1208.98856,911.505891 1208.95358,911.449071 1208.91334,911.396103 C1208.8913,911.364804 1208.86686,911.336875 1208.84147,911.307502 C1208.79691,911.257424 1208.74996,911.210716 1208.6987,911.166897 C1208.68145,911.151969 1208.66851,911.13319 1208.6503,911.119226 C1208.63881,911.110558 1208.62587,911.105261 1208.61437,911.097557 C1208.55544,911.053738 1208.49268,911.017142 1208.42704,910.982472 C1208.40117,910.968508 1208.37673,910.952136 1208.35038,910.94058 C1208.26366,910.901576 1208.17311,910.870759 1208.07824,910.849571 C1208.07154,910.848127 1208.06483,910.844756 1208.05764,910.84283 C1207.9623,910.823088 1207.8636,910.812494 1207.76251,910.812494 C1207.75772,910.812494 1207.75389,910.813939 1207.74957,910.813939 C1207.71891,910.813939 1207.68968,910.82068 1207.65902,910.822606 C1207.58284,910.828384 1207.5081,910.83657 1207.43528,910.853424 C1207.42713,910.85535 1207.41803,910.854387 1207.40988,910.856794 L1191.18906,914.966133 C1191.14258,914.977689 1191.09946,914.995987 1191.0549,915.012841 C1191.02568,915.022953 1190.99549,915.030657 1190.96675,915.042695 C1190.88769,915.076884 1190.81295,915.118295 1190.74252,915.165484 C1190.72384,915.178004 1190.70755,915.193894 1190.68934,915.206895 C1190.6376,915.245417 1190.58729,915.285384 1190.5413,915.330166 C1190.5183,915.352316 1190.49866,915.376874 1190.4771,915.399987 C1190.4402,915.440917 1190.40523,915.482328 1190.37313,915.526628 C1190.35253,915.555038 1190.33432,915.58393 1190.31611,915.614266 C1190.28832,915.659048 1190.26389,915.705274 1190.24089,915.753427 C1190.22604,915.785208 1190.21119,915.816507 1190.19825,915.84925 C1190.17765,915.9027 1190.16232,915.958075 1190.14747,916.013932 C1190.14028,916.043787 1190.13022,916.072678 1190.12495,916.103496 C1190.1077,916.191615 1190.09764,916.281179 1190.09764,916.373632 L1190.09764,922.796218 L1190.09764,932.692048 C1189.31141,932.26012 1188.41068,932.014061 1187.45294,932.014061 C1184.40195,932.014061 1181.91967,934.508844 1181.91967,937.575198 C1181.91967,940.641552 1184.40195,943.136817 1187.45294,943.136817 C1190.5044,943.136817 1192.98621,940.641552 1192.98621,937.575198 L1192.98621,923.92684 L1206.31799,920.549421 L1206.31799,928.582228 C1205.53176,928.150782 1204.63055,927.904241 1203.67329,927.904241 C1200.6223,927.904241 1198.14002,930.399506 1198.14002,933.46586 C1198.14002,936.532214 1200.6223,939.026998 1203.67329,939.026998 C1206.72427,939.026998 1209.20703,936.532214 1209.20703,933.46586 L1209.20703,918.68688 L1209.20703,912.264293 C1209.20703,912.15595 1209.19314,912.051459 1209.1711,911.950339 C1209.16487,911.92241 1209.15337,911.895445 1209.14571,911.867516 Z" id="Fill-1" fill="#666666"></path>
    </g>
</svg>