<?xml version="1.0" encoding="UTF-8"?>
<svg width="89px" height="75px" viewBox="0 0 89 75" version="1.1" xmlns="http://www.w3.org/2000/svg" xmlns:xlink="http://www.w3.org/1999/xlink">
    <!-- Generator: Sketch 48.1 (47250) - http://www.bohemiancoding.com/sketch -->
    <title>Page 1</title>
    <desc>Created with Sketch.</desc>
    <defs></defs>
    <g id="Design-Elements" stroke="none" stroke-width="1" fill="none" fill-rule="evenodd" transform="translate(-1343.000000, -875.000000)">
        <path d="M1428.42211,940.793562 L1396.29266,940.793562 C1395.30472,940.793562 1394.50372,941.59789 1394.50372,942.58994 L1394.50372,946.407244 L1380.49181,946.407244 L1380.49181,942.58994 C1380.49181,941.59789 1379.69081,940.793562 1378.70286,940.793562 L1346.57789,940.793562 L1346.57789,890.494971 L1350.37806,890.494971 L1350.37806,936.525816 C1350.37806,937.517866 1351.17906,938.322194 1352.167,938.322194 L1385.71106,938.322194 L1385.71106,939.731453 C1385.71106,940.723503 1386.51206,941.527831 1387.5,941.527831 C1388.48794,941.527831 1389.28894,940.723503 1389.28894,939.731453 L1389.28894,938.323541 L1422.90322,938.323541 C1423.89116,938.323541 1424.69216,937.519213 1424.69216,936.527163 L1424.69216,890.494971 L1428.42211,890.494971 L1428.42211,940.793562 Z M1353.95594,888.713862 C1353.95594,888.708473 1353.95729,888.703982 1353.95729,888.698593 C1353.95729,888.693203 1353.95594,888.689162 1353.95594,888.683772 L1353.95594,885.02949 L1358.20469,885.02949 L1358.20469,927.394376 C1358.20469,928.169513 1358.69933,928.856628 1359.4319,929.100037 L1376.38842,934.729438 L1353.95594,934.729438 L1353.95594,888.713862 Z M1361.78258,879.059227 L1380.17785,883.364696 C1383.43507,884.126361 1385.70971,887.004608 1385.70971,890.362488 L1385.70971,934.040078 L1361.78258,926.096044 L1361.78258,879.059227 Z M1389.28894,892.215003 C1389.28894,891.23912 1389.48036,890.292878 1389.85693,889.402324 L1389.85738,889.400976 C1389.85828,889.400078 1389.85917,889.398282 1389.85962,889.396485 C1390.98844,886.743235 1393.57213,885.02949 1396.44472,885.02949 L1403.15192,885.02949 L1403.15192,903.79805 C1403.15192,904.528278 1403.59156,905.185752 1404.26465,905.461047 C1404.93774,905.737689 1405.71012,905.576464 1406.21862,905.055066 L1410.19589,900.976838 L1414.17272,905.055066 C1414.51575,905.406707 1414.97909,905.594428 1415.45137,905.594428 C1415.67856,905.594428 1415.90799,905.550866 1416.12669,905.461047 C1416.79978,905.185752 1417.23986,904.528278 1417.23986,903.79805 L1417.23986,885.02949 L1421.11427,885.02949 L1421.11427,934.730785 L1389.28894,934.730785 L1389.28894,922.770948 L1389.28894,892.215003 Z M1406.72981,883.248381 C1406.72981,883.243441 1406.73116,883.238501 1406.73116,883.233112 C1406.73116,883.227723 1406.72981,883.223681 1406.72981,883.218292 L1406.72981,879.322396 L1413.66197,879.322396 L1413.66197,899.395576 L1411.47365,897.151899 C1411.13733,896.806995 1410.67667,896.612537 1410.19589,896.612537 C1409.71467,896.612537 1409.25402,896.806995 1408.91769,897.151899 L1406.72981,899.395576 L1406.72981,883.248381 Z M1430.21106,886.902214 L1424.69216,886.902214 L1424.69216,883.233112 C1424.69216,882.241062 1423.89116,881.436733 1422.90322,881.436733 L1417.23986,881.436733 L1417.23986,877.526018 C1417.23986,876.533968 1416.43886,875.72964 1415.45092,875.72964 L1404.94087,875.72964 C1403.95292,875.72964 1403.15192,876.533968 1403.15192,877.526018 L1403.15192,881.436733 L1396.44472,881.436733 C1393.14815,881.436733 1390.10873,882.945242 1388.10287,885.435471 C1386.70303,882.690606 1384.16049,880.607705 1380.99003,879.865801 L1360.39928,875.047016 C1359.86885,874.922617 1359.30891,875.047914 1358.88136,875.389226 C1358.4538,875.730089 1358.20469,876.247895 1358.20469,876.796239 L1358.20469,881.436733 L1352.167,881.436733 C1351.17906,881.436733 1350.37806,882.241062 1350.37806,883.233112 L1350.37806,886.902214 L1344.78894,886.902214 C1343.801,886.902214 1343,887.706543 1343,888.698593 L1343,942.58994 C1343,943.58199 1343.801,944.386318 1344.78894,944.386318 L1376.91392,944.386318 L1376.91392,948.203622 C1376.91392,949.195672 1377.71492,950 1378.70286,950 L1396.29266,950 C1397.28061,950 1398.08161,949.195672 1398.08161,948.203622 L1398.08161,944.386318 L1430.21106,944.386318 C1431.199,944.386318 1432,943.58199 1432,942.58994 L1432,888.698593 C1432,887.706543 1431.199,886.902214 1430.21106,886.902214 Z" id="Page-1" fill="#666666"></path>
    </g>
</svg>