<?xml version="1.0" encoding="UTF-8"?>
<svg width="106px" height="75px" viewBox="0 0 106 75" version="1.1" xmlns="http://www.w3.org/2000/svg" xmlns:xlink="http://www.w3.org/1999/xlink">
    <!-- Generator: Sketch 48.1 (47250) - http://www.bohemiancoding.com/sketch -->
    <title>Fill 1</title>
    <desc>Created with Sketch.</desc>
    <defs></defs>
    <g id="Design-Elements" stroke="none" stroke-width="1" fill="none" fill-rule="evenodd" transform="translate(-947.000000, -1035.000000)">
        <path d="M953.270316,1098.76497 L961.403724,1098.76497 C961.979027,1098.76497 962.530472,1098.56221 962.937143,1098.20187 L970.587426,1091.42405 L982.194342,1091.42405 L986.206282,1094.97848 C986.612952,1095.33882 987.164939,1095.54157 987.7397,1095.54157 L998.066418,1095.54157 C998.641721,1095.54157 999.193166,1095.33882 999.599836,1094.97848 L1012.02606,1083.9683 L1025.65765,1083.9683 C1026.23295,1083.9683 1026.7844,1083.76554 1027.19107,1083.4052 L1033.25371,1078.03416 L1046.72914,1078.03416 C1047.92692,1078.03416 1048.89805,1077.17366 1048.89805,1076.11232 C1048.89805,1075.05099 1047.92692,1074.19049 1046.72914,1074.19049 L1032.35524,1074.19049 C1031.77994,1074.19049 1031.22795,1074.39276 1030.82128,1074.75311 L1024.75918,1080.12463 L1011.12759,1080.12463 C1010.55283,1080.12463 1010.00084,1080.32738 1009.59417,1080.68773 L997.167947,1091.69791 L988.638713,1091.69791 L984.626232,1088.14348 C984.219561,1087.78313 983.668116,1087.58038 983.092813,1087.58038 L969.688414,1087.58038 C969.113653,1087.58038 968.561666,1087.78313 968.154995,1088.14348 L960.505253,1094.9213 L953.270316,1094.9213 C952.072536,1094.9213 951.101407,1095.7818 951.101407,1096.84313 C951.101407,1097.90447 952.072536,1098.76497 953.270316,1098.76497 M963.851338,1087.79466 C965.049118,1087.79466 966.020247,1086.93416 966.020247,1085.87283 L966.020247,1062.49037 L976.142002,1062.49037 L976.142002,1083.47054 C976.142002,1084.53187 977.113131,1085.39237 978.310911,1085.39237 C979.508691,1085.39237 980.47982,1084.53187 980.47982,1083.47054 L980.47982,1081.30848 L990.601576,1081.30848 L990.601576,1087.23397 C990.601576,1088.2953 991.572704,1089.1558 992.770484,1089.1558 C993.968264,1089.1558 994.939393,1088.2953 994.939393,1087.23397 L994.939393,1054.08236 L1005.06061,1054.08236 L1005.06061,1076.82388 C1005.06061,1077.88522 1006.03174,1078.74572 1007.22952,1078.74572 C1008.4273,1078.74572 1009.39842,1077.88522 1009.39842,1076.82388 L1009.39842,1066.41428 L1019.52018,1066.41428 L1019.52018,1075.62274 C1019.52018,1076.68407 1020.49131,1077.54457 1021.68909,1077.54457 C1022.88687,1077.54457 1023.858,1076.68407 1023.858,1075.62274 L1023.858,1038.84367 L1033.97975,1038.84367 L1033.97975,1069.69725 C1033.97975,1070.75858 1034.95088,1071.61908 1036.14866,1071.61908 C1037.34644,1071.61908 1038.31757,1070.75858 1038.31757,1069.69725 L1038.31757,1036.92183 C1038.31757,1035.8605 1037.34644,1035 1036.14866,1035 L1021.68909,1035 C1020.49131,1035 1019.52018,1035.8605 1019.52018,1036.92183 L1019.52018,1062.57061 L1009.39842,1062.57061 L1009.39842,1052.16052 C1009.39842,1051.09919 1008.4273,1050.23869 1007.22952,1050.23869 L992.770484,1050.23869 C991.572704,1050.23869 990.601576,1051.09919 990.601576,1052.16052 L990.601576,1077.46481 L980.47982,1077.46481 L980.47982,1060.56854 C980.47982,1059.50721 979.508691,1058.64671 978.310911,1058.64671 L963.851338,1058.64671 C962.653558,1058.64671 961.682429,1059.50721 961.682429,1060.56854 L961.682429,1085.87283 C961.682429,1086.93416 962.653558,1087.79466 963.851338,1087.79466 M1053,1108.07817 C1053,1109.1395 1052.02887,1110 1050.83109,1110 L1036.14866,1110 L1021.68909,1110 L1007.22952,1110 L992.770484,1110 L978.310911,1110 L963.851338,1110 L949.168909,1110 C947.971129,1110 947,1109.1395 947,1108.07817 C947,1107.01684 947.971129,1106.15633 949.168909,1106.15633 L961.682429,1106.15633 L961.682429,1102.44864 C961.682429,1101.38731 962.653558,1100.52681 963.851338,1100.52681 C965.049118,1100.52681 966.020247,1101.38731 966.020247,1102.44864 L966.020247,1106.15633 L976.142002,1106.15633 L976.142002,1095.80198 C976.142002,1094.74065 977.113131,1093.88015 978.310911,1093.88015 C979.508691,1093.88015 980.47982,1094.74065 980.47982,1095.80198 L980.47982,1106.15633 L990.601576,1106.15633 L990.601576,1099.96611 C990.601576,1098.90478 991.572704,1098.04428 992.770484,1098.04428 C993.968264,1098.04428 994.939393,1098.90478 994.939393,1099.96611 L994.939393,1106.15633 L1005.06061,1106.15633 L1005.06061,1093.80039 C1005.06061,1092.73906 1006.03174,1091.87856 1007.22952,1091.87856 C1008.4273,1091.87856 1009.39842,1092.73906 1009.39842,1093.80039 L1009.39842,1106.15633 L1019.52018,1106.15633 L1019.52018,1088.27512 C1019.52018,1087.21379 1020.49131,1086.35329 1021.68909,1086.35329 C1022.88687,1086.35329 1023.858,1087.21379 1023.858,1088.27512 L1023.858,1106.15633 L1033.97975,1106.15633 L1033.97975,1082.50963 C1033.97975,1081.44829 1034.95088,1080.58779 1036.14866,1080.58779 C1037.34644,1080.58779 1038.31757,1081.44829 1038.31757,1082.50963 L1038.31757,1106.15633 L1050.83109,1106.15633 C1052.02887,1106.15633 1053,1107.01684 1053,1108.07817" id="Fill-1" fill="#666666"></path>
    </g>
</svg>