<?xml version="1.0" encoding="UTF-8"?>
<svg width="82px" height="75px" viewBox="0 0 82 75" version="1.1" xmlns="http://www.w3.org/2000/svg" xmlns:xlink="http://www.w3.org/1999/xlink">
    <!-- Generator: Sketch 48.1 (47250) - http://www.bohemiancoding.com/sketch -->
    <title>Fill 1</title>
    <desc>Created with Sketch.</desc>
    <defs></defs>
    <g id="Design-Elements" stroke="none" stroke-width="1" fill="none" fill-rule="evenodd" transform="translate(-825.000000, -270.000000)">
        <path d="M858.379894,312.983821 C858.379894,311.825398 859.323145,310.88629 860.486209,310.88629 C861.649654,310.88629 862.592905,311.825398 862.592905,312.983821 C862.592905,314.142623 861.649654,315.081731 860.486209,315.081731 C859.323145,315.081731 858.379894,314.142623 858.379894,312.983821 Z M841.057367,341.962603 L836.399016,341.962603 L837.636367,339.334239 L841.051652,339.334239 C841.054319,339.334239 841.056224,339.334998 841.05889,339.334998 C841.061557,339.334998 841.063843,339.334239 841.06651,339.334239 L854.363076,339.334239 L866.609723,339.334239 L879.915051,339.334239 L883.336432,339.334239 L884.573783,341.962603 L841.057367,341.962603 Z M830.430552,318.486044 L839.533536,318.486044 L839.533536,336.298739 L836.667972,336.298739 C836.076726,336.298739 835.539195,336.639474 835.288524,337.172204 L833.032874,341.962603 L830.430552,341.962603 L830.430552,318.486044 Z M846.146199,307.489186 L846.146199,336.298739 L842.582721,336.298739 L842.582721,316.967156 C842.582721,316.961844 842.581197,316.95767 842.581197,316.952358 L842.581197,307.489186 L846.146199,307.489186 Z M850.032349,301.196594 C850.033111,301.196215 850.033873,301.195835 850.034254,301.195456 L860.486209,296.479806 L878.159598,304.453686 L842.813201,304.453686 L850.032349,301.196594 Z M850.96379,288.703234 L853.440015,288.703234 L853.440015,296.326514 L850.96379,297.443578 L850.96379,288.703234 Z M860.27592,277.693855 C860.344874,277.70372 860.414208,277.715103 860.486209,277.715103 C860.558591,277.715103 860.627544,277.70372 860.696878,277.693855 C865.335038,277.795544 869.167854,281.208584 869.888626,285.652557 L851.084173,285.652557 C851.804564,281.208584 855.63776,277.795544 860.27592,277.693855 Z M862.011563,288.703234 L864.487788,288.703234 L864.487788,294.95257 L862.011563,293.835506 L862.011563,288.703234 Z M858.963902,288.703234 L858.963902,293.833988 L856.487677,294.951432 L856.487677,288.703234 L858.963902,288.703234 Z M870.011675,297.445095 L867.53545,296.328031 L867.53545,288.703234 L870.011675,288.703234 L870.011675,297.445095 Z M855.887288,336.298739 L865.085892,336.298739 L865.085892,321.514335 L855.887288,321.514335 L855.887288,336.298739 Z M871.821986,336.298739 L868.133554,336.298739 L868.133554,319.996585 C868.133554,319.158408 867.451258,318.478835 866.609723,318.478835 L854.363076,318.478835 C853.52154,318.478835 852.839245,319.158408 852.839245,319.996585 L852.839245,336.298739 L849.193861,336.298739 L849.193861,307.489186 L871.821986,307.489186 L871.821986,336.298739 Z M885.684274,337.172204 C885.433604,336.639474 884.896073,336.298739 884.304827,336.298739 L881.438882,336.298739 L881.438882,334.889887 C881.438882,334.05171 880.756587,333.372137 879.915051,333.372137 C879.073516,333.372137 878.39122,334.05171 878.39122,334.889887 L878.39122,336.298739 L874.869647,336.298739 L874.869647,307.489186 L878.39122,307.489186 L878.39122,314.6708 C878.39122,315.508977 879.073516,316.18855 879.915051,316.18855 C880.756587,316.18855 881.438882,315.508977 881.438882,314.6708 L881.438882,307.489186 L885.216458,307.489186 C885.934183,307.489186 886.554763,306.990226 886.706003,306.291681 C886.857624,305.592757 886.499143,304.883589 885.845419,304.588766 L873.059336,298.820177 L873.059336,288.703234 L873.345817,288.703234 C874.187352,288.703234 874.869647,288.023662 874.869647,287.185484 C874.869647,286.347307 874.187352,285.667734 873.345817,285.667734 L872.964097,285.667734 C872.276468,279.967444 867.730881,275.436201 862.01004,274.744107 L862.01004,271.51775 C862.01004,270.679573 861.327744,270 860.486209,270 C859.644673,270 858.962378,270.679573 858.962378,271.51775 L858.962378,274.744107 C853.241917,275.436201 848.69633,279.967444 848.008321,285.667734 L847.62622,285.667734 C846.784685,285.667734 846.102389,286.347307 846.102389,287.185484 C846.102389,288.023662 846.784685,288.703234 847.62622,288.703234 L847.916129,288.703234 L847.916129,298.818659 L835.127379,304.588766 C834.473656,304.883589 834.115175,305.592757 834.266415,306.291681 C834.418036,306.990226 835.038235,307.489186 835.755959,307.489186 L839.533536,307.489186 L839.533536,315.449406 L828.906721,315.449406 C828.902912,315.449406 828.899102,315.450544 828.895292,315.450544 L826.523831,315.450544 C825.682295,315.450544 825,316.130117 825,316.968294 C825,317.806472 825.682295,318.486044 826.523831,318.486044 L827.38289,318.486044 L827.38289,341.962603 L826.523831,341.962603 C825.682295,341.962603 825,342.642175 825,343.480353 C825,344.31853 825.682295,344.998103 826.523831,344.998103 L828.888054,344.998103 C828.89453,344.998103 828.900245,345 828.906721,345 L841.05889,345 C841.065367,345 841.071081,344.998103 841.077557,344.998103 L886.97153,344.998103 C887.492681,344.998103 887.97764,344.732876 888.257644,344.294626 C888.537266,343.855996 888.572315,343.306191 888.350978,342.836068 L885.684274,337.172204 Z M897.909207,330.913382 L894.287061,330.913382 L894.287061,329.060968 L897.194149,326.16548 C897.789205,325.573178 897.789205,324.612063 897.194149,324.019382 C896.599474,323.426321 895.633746,323.426321 895.039071,324.019382 L894.287061,324.768771 L894.287061,318.779729 C894.287061,317.941551 893.604766,317.261979 892.76323,317.261979 C891.921695,317.261979 891.239399,317.941551 891.239399,318.779729 L891.239399,322.289147 L889.765093,320.820723 C889.170418,320.228042 888.20469,320.228042 887.610396,320.820723 C887.01496,321.413405 887.01496,322.37452 887.610396,322.967201 L891.239399,326.581723 L891.239399,330.913382 L887.357441,330.913382 C884.025204,330.913382 881.314309,328.213305 881.314309,324.894365 C881.314309,322.248926 883.088429,319.877442 885.629416,319.126914 C886.082756,318.993352 886.419904,318.665139 886.592097,318.262935 C886.596287,318.25307 886.600478,318.242825 886.605049,318.232959 C886.634764,318.15821 886.658383,318.082323 886.676288,318.0034 C886.682383,317.977598 886.688098,317.952555 886.692669,317.926374 C886.703717,317.862249 886.709431,317.798124 886.712098,317.732102 C886.713622,317.7063 886.720098,317.682016 886.720098,317.655835 C886.720098,314.336895 889.430993,311.636818 892.76323,311.636818 C896.092038,311.636818 898.801029,314.331962 898.806362,317.66608 C898.804457,317.698332 898.810172,317.728687 898.810172,317.76056 C898.810553,317.813681 898.810933,317.866802 898.817029,317.919165 C898.821981,317.968492 898.832267,318.015921 898.842172,318.06411 C898.851696,318.110781 898.861601,318.156693 898.875696,318.202225 C898.890935,318.251552 898.910744,318.298223 898.930554,318.345273 C898.948459,318.387011 898.965983,318.428749 898.987698,318.46897 C899.011698,318.512984 899.039127,318.554722 899.067318,318.596081 C899.093604,318.635543 899.119509,318.674245 899.149605,318.711051 C899.180462,318.748236 899.214368,318.782385 899.248654,318.816914 C899.28294,318.851443 899.316464,318.885971 899.354179,318.917465 C899.392656,318.949717 899.434942,318.977036 899.476467,319.005115 C899.515324,319.031296 899.55342,319.058616 899.594944,319.081382 C899.643707,319.108322 899.695898,319.128432 899.747708,319.15006 C899.78009,319.16334 899.808662,319.181553 899.842186,319.192557 C902.300506,320.015178 903.952338,322.306601 903.952338,324.894365 C903.952338,328.213305 901.241444,330.913382 897.909207,330.913382 Z M901.805642,316.720901 C901.334397,312.165753 897.458915,308.601317 892.76323,308.601317 C888.110213,308.601317 884.264445,312.102387 883.736438,316.597584 C880.470487,318.01668 878.266647,321.282878 878.266647,324.894365 C878.266647,325.047657 878.270838,325.201709 878.278457,325.355002 C878.279981,325.388013 878.28379,325.420644 878.285695,325.453276 C878.292933,325.570143 878.300171,325.68701 878.3116,325.802359 C878.311981,325.804635 878.312743,325.806532 878.312743,325.808809 C878.774845,330.373442 882.654899,333.948882 887.357441,333.948882 L891.239399,333.948882 L891.239399,343.480353 C891.239399,344.31853 891.921695,344.998103 892.76323,344.998103 C893.604766,344.998103 894.287061,344.31853 894.287061,343.480353 L894.287061,333.948882 L897.909207,333.948882 C902.921848,333.948882 907,329.887004 907,324.894365 C907,321.361801 904.949305,318.202225 901.805642,316.720901 Z" id="Fill-1" fill="#5591AA"></path>
    </g>
</svg>