<?xml version="1.0" encoding="UTF-8"?>
<svg width="82px" height="75px" viewBox="0 0 82 75" version="1.1" xmlns="http://www.w3.org/2000/svg" xmlns:xlink="http://www.w3.org/1999/xlink">
    <!-- Generator: Sketch 48.1 (47250) - http://www.bohemiancoding.com/sketch -->
    <title>Fill 1</title>
    <desc>Created with Sketch.</desc>
    <defs></defs>
    <g id="Design-Elements" stroke="none" stroke-width="1" fill="none" fill-rule="evenodd" transform="translate(-1177.000000, -428.000000)" fill-opacity="0.0700000003">
        <path d="M1232.57778,460.855141 C1232.57778,461.439417 1231.74749,461.913026 1230.72284,461.913026 C1229.69859,461.913026 1228.8683,461.439417 1228.8683,460.855141 C1228.8683,460.270864 1229.69859,459.797255 1230.72284,459.797255 C1231.74749,459.797255 1232.57778,460.270864 1232.57778,460.855141 Z M1202.76842,473.416094 C1202.76842,472.831817 1203.59871,472.358208 1204.62336,472.358208 C1205.64761,472.358208 1206.4779,472.831817 1206.4779,473.416094 C1206.4779,473.999974 1205.64761,474.473583 1204.62336,474.473583 C1203.59871,474.473583 1202.76842,473.999974 1202.76842,473.416094 Z M1198.99177,431.17326 C1206.01287,431.17326 1210.49938,433.657923 1210.51726,435.379019 L1210.51726,435.395679 C1210.51289,436.144172 1209.65955,437.037841 1208.12139,437.80934 C1206.12217,438.812883 1202.96238,439.606198 1198.99177,439.606198 C1195.02117,439.606198 1191.86137,438.812883 1189.86216,437.80934 C1188.45118,437.10329 1187.61652,436.290142 1187.48536,435.584091 C1187.48417,435.578538 1187.48457,435.572985 1187.48377,435.567432 L1187.48377,435.389729 C1187.48377,435.35403 1187.47542,435.320711 1187.47344,435.285408 C1187.47503,435.266369 1187.47463,435.246933 1187.47741,435.2271 C1187.74768,433.513539 1192.17537,431.17326 1198.99177,431.17326 Z M1198.99138,447.232732 C1192.21948,447.232732 1187.76756,444.89404 1187.48377,443.179686 L1187.48377,440.096864 L1187.48536,440.098054 C1187.70794,440.24085 1188.19562,440.505818 1188.19919,440.507801 C1188.30134,440.578406 1188.41223,440.634731 1188.52988,440.680347 L1188.53862,440.685107 C1191.16582,441.994077 1194.82244,442.779458 1198.99177,442.779458 C1203.15713,442.779458 1206.80977,441.998043 1209.43697,440.689073 C1209.44134,440.68709 1209.44492,440.68471 1209.44929,440.682727 C1209.57052,440.636318 1209.79309,440.503438 1209.79468,440.502644 C1210.04866,440.371747 1210.28713,440.233314 1210.51726,440.086551 L1210.51726,443.018246 C1210.51329,444.737757 1206.024,447.232732 1198.99138,447.232732 Z M1184.30411,464.689629 C1184.30411,465.565448 1185.01595,466.276259 1185.89394,466.276259 C1186.77192,466.276259 1187.48377,465.565448 1187.48377,464.689629 L1187.48377,462.987175 C1187.69442,463.118072 1187.91144,463.246192 1188.14156,463.368759 C1188.38004,463.496483 1188.6368,463.556775 1188.88998,463.556775 C1189.45755,463.556775 1190.00683,463.252539 1190.293,462.717844 C1190.70716,461.945155 1190.41502,460.983658 1189.64078,460.570737 C1188.35818,459.886503 1187.57201,459.083272 1187.48377,458.392691 L1187.48377,455.348741 C1188.98934,456.288026 1190.97464,457.032949 1193.34628,457.501005 C1193.45041,457.521631 1193.55415,457.531547 1193.65629,457.531547 C1194.39994,457.531547 1195.06449,457.00796 1195.21433,456.252327 C1195.38444,455.39277 1194.82442,454.558203 1193.96313,454.388037 C1189.91661,453.589169 1187.66223,451.976756 1187.48377,450.79194 L1187.48377,447.732124 C1190.1376,449.389756 1194.23738,450.405992 1198.99138,450.405992 C1203.17184,450.405992 1206.83958,449.61585 1209.46678,448.301327 C1209.57847,448.256902 1210.28356,447.857468 1210.51726,447.710704 L1210.51726,449.48416 C1210.51726,450.360377 1211.22911,451.07079 1212.1071,451.07079 C1212.98508,451.07079 1213.69693,450.360377 1213.69693,449.48416 L1213.69693,443.02023 C1213.69693,443.018643 1213.69733,443.017453 1213.69733,443.015866 C1213.69733,443.01547 1213.69693,443.014676 1213.69693,443.013883 L1213.69693,435.410752 C1213.69693,435.403612 1213.69772,435.396472 1213.69772,435.389729 C1213.69772,435.384969 1213.69693,435.380209 1213.69693,435.37545 L1213.69693,435.006161 C1213.69693,434.79633 1213.654,434.597208 1213.57968,434.413555 C1213.57769,434.404432 1213.5769,434.394912 1213.57451,434.386186 C1213.57054,434.386186 1213.57054,434.382219 1213.57054,434.382219 C1212.65241,430.681405 1206.69054,428 1198.99177,428 C1190.60938,428 1184.28582,431.177227 1184.28582,435.389729 C1184.28582,435.50952 1184.30411,464.689629 1184.30411,464.689629 Z M1205.57368,485.935794 L1182.00441,473.413317 L1198.72548,464.750317 L1201.26523,466.285382 L1193.90431,470.073461 C1193.37569,470.343188 1193.0458,470.886609 1193.0458,471.481595 C1193.0458,471.925851 1193.22863,472.338375 1193.54262,472.635868 C1193.50685,472.659668 1193.46313,472.679501 1193.41941,472.7033 C1192.89079,472.976994 1192.5609,473.520415 1192.5609,474.111434 C1192.5609,474.706421 1192.89079,475.249841 1193.41941,475.523535 L1203.85269,480.910144 C1204.08321,481.025175 1204.33361,481.084673 1204.58401,481.084673 C1204.83838,481.084673 1205.09275,481.025175 1205.32726,480.902211 C1206.46796,480.303258 1208.18895,480.271525 1208.90835,480.640417 C1209.37338,480.882378 1209.92187,480.878411 1210.38292,480.63645 L1218.19695,476.503279 L1220.77248,478.062143 L1205.57368,485.935794 Z M1230.42674,448.328697 L1253.99203,460.851174 L1238.18114,469.042151 L1235.43868,467.384123 L1242.25509,463.782473 C1242.77576,463.504813 1243.10168,462.965359 1243.10168,462.374339 C1243.0977,461.949915 1242.92679,461.549291 1242.63267,461.255765 C1243.14937,460.978105 1243.46734,460.442617 1243.46734,459.855564 C1243.46734,459.264544 1243.13745,458.72509 1242.6128,458.451396 L1232.56506,453.22345 C1232.10798,452.985456 1231.55949,452.985456 1231.09844,453.22345 C1230.03723,453.770838 1228.41162,453.778771 1227.72005,453.417813 C1227.26297,453.179818 1226.71448,453.179818 1226.2574,453.417813 L1218.72557,457.293156 L1216.13812,455.730326 L1230.42674,448.328697 Z M1239.15492,461.830918 L1232.27094,465.472234 L1221.91716,459.220912 L1227.07616,456.563307 C1228.47919,456.98773 1230.26378,456.920298 1231.76219,456.384811 L1239.298,460.307753 C1239.16684,460.625079 1239.09927,460.962238 1239.09927,461.30733 C1239.09927,461.485826 1239.11914,461.660355 1239.15492,461.830918 Z M1197.00051,472.048815 L1204.45682,468.209171 L1215.02523,474.59139 L1209.53634,477.490956 C1208.08164,477.062566 1206.20961,477.153797 1204.63965,477.74085 L1196.7978,473.690977 C1196.96474,473.333986 1197.05218,472.957161 1197.05218,472.568437 C1197.05218,472.389941 1197.03628,472.219378 1197.00051,472.048815 Z M1237.31468,487.332029 L1225.7884,493.396922 L1225.7884,478.276338 C1225.7884,477.721018 1225.49825,477.205363 1225.02131,476.915803 L1199.63168,461.588957 L1210.89167,456.273747 L1237.31468,472.227311 L1237.31468,487.332029 Z M1258.14149,469.121483 C1258.92051,468.716892 1259.22258,467.756981 1258.82114,466.979532 C1258.41574,466.202084 1257.45786,465.900624 1256.67487,466.305215 L1240.49435,474.686588 L1240.49435,471.422096 L1258.14149,462.279141 C1258.66614,462.005447 1258.99603,461.465993 1259,460.87894 C1259,460.28792 1258.67806,459.7445 1258.15739,459.470806 L1231.18191,445.135604 C1230.72085,444.889676 1230.16441,444.88571 1229.70336,445.127671 L1212.9505,453.806537 L1211.80582,453.116353 C1211.34875,452.842659 1210.78436,452.814893 1210.30343,453.040988 L1195.59748,459.982494 C1195.06886,460.232388 1194.7191,460.75201 1194.6873,461.335096 C1194.65948,461.918183 1194.9536,462.473503 1195.4544,462.774963 L1195.53786,462.826528 L1177.85892,471.98535 C1177.33428,472.259044 1177.00439,472.798498 1177.00041,473.385551 C1176.99644,473.976571 1177.32236,474.519992 1177.84303,474.793685 L1204.81851,489.128887 C1205.04903,489.255818 1205.30738,489.315316 1205.56573,489.315316 C1205.81613,489.315316 1206.06653,489.255818 1206.29705,489.13682 L1222.60873,480.688016 L1222.60873,483.952507 L1205.57368,492.778136 L1179.65543,479.006188 C1178.88039,478.593664 1177.91854,478.887191 1177.50519,479.660673 C1177.09183,480.434155 1177.38595,481.394066 1178.16099,481.80659 L1204.81851,495.971229 C1205.04903,496.09816 1205.30738,496.157658 1205.56573,496.157658 C1205.81613,496.157658 1206.06653,496.09816 1206.29705,495.979162 L1222.60873,487.530358 L1222.60873,490.794849 L1205.57368,499.620478 L1179.33747,485.677967 C1178.56243,485.265443 1177.60058,485.55897 1177.18722,486.332452 C1176.77386,487.105934 1177.06798,488.069812 1177.84303,488.478369 L1204.81851,502.813571 C1205.04903,502.940501 1205.30738,503 1205.56573,503 C1205.81613,503 1206.06653,502.940501 1206.29705,502.821504 L1222.60873,494.372699 L1222.60873,496.026761 C1222.60873,496.582082 1222.89888,497.097736 1223.37583,497.38333 C1223.6302,497.53406 1223.9124,497.613391 1224.19857,497.613391 C1224.45294,497.613391 1224.70731,497.549926 1224.93784,497.430929 L1239.64379,489.696107 C1240.16843,489.418447 1240.49435,488.878993 1240.49435,488.29194 L1240.49435,485.10678 L1258.14149,475.963825 C1258.92051,475.559234 1259.22258,474.599323 1258.82114,473.821874 C1258.41574,473.044426 1257.45786,472.742966 1256.67487,473.147557 L1240.49435,481.52893 L1240.49435,478.264438 L1258.14149,469.121483 Z" id="Fill-1" fill="#231F20" style="mix-blend-mode: multiply;"></path>
    </g>
</svg>