<?xml version="1.0" encoding="UTF-8"?>
<svg width="97px" height="75px" viewBox="0 0 97 75" version="1.1" xmlns="http://www.w3.org/2000/svg" xmlns:xlink="http://www.w3.org/1999/xlink">
    <!-- Generator: Sketch 48.1 (47250) - http://www.bohemiancoding.com/sketch -->
    <title>Page 1</title>
    <desc>Created with Sketch.</desc>
    <defs></defs>
    <g id="Design-Elements" stroke="none" stroke-width="1" fill="none" fill-rule="evenodd" transform="translate(-1143.000000, -1035.000000)">
        <path d="M1206.86558,1073.625 C1208.62964,1073.625 1210.06408,1075.0545 1210.06408,1076.8125 C1210.06408,1078.5705 1208.62964,1080 1206.86558,1080 C1205.10151,1080 1203.66708,1078.5705 1203.66708,1076.8125 C1203.66708,1075.0545 1205.10151,1073.625 1206.86558,1073.625 Z M1206.86558,1084 C1210.84275,1084 1214.07788,1080.776 1214.07788,1076.8125 C1214.07788,1072.849 1210.84275,1069.625 1206.86558,1069.625 C1202.8884,1069.625 1199.65328,1072.849 1199.65328,1076.8125 C1199.65328,1080.776 1202.8884,1084 1206.86558,1084 Z M1240,1038.5 L1240,1079.8335 C1240,1081.763 1238.42408,1083.3335 1236.48792,1083.3335 L1229.77735,1083.3335 C1228.66904,1083.3335 1227.77045,1082.438 1227.77045,1081.3335 C1227.77045,1080.229 1228.66904,1079.3335 1229.77735,1079.3335 L1235.9862,1079.3335 L1235.9862,1039 L1178.4554,1039 L1178.4554,1043.5835 C1178.4554,1044.688 1177.55681,1045.5835 1176.4485,1045.5835 C1175.34019,1045.5835 1174.4416,1044.688 1174.4416,1043.5835 L1174.4416,1038.5 C1174.4416,1036.5705 1176.01752,1035 1177.95368,1035 L1236.48792,1035 C1238.42408,1035 1240,1036.5705 1240,1038.5 Z M1154.49803,1095 C1154.49803,1096.1045 1153.59944,1097 1152.49113,1097 L1146.51208,1097 C1144.57592,1097 1143,1095.4295 1143,1093.5 L1143,1052.1665 C1143,1050.237 1144.57592,1048.6665 1146.51208,1048.6665 L1205.04683,1048.6665 C1206.98298,1048.6665 1208.5589,1050.237 1208.5589,1052.1665 L1208.5589,1056.125 C1208.5589,1057.2295 1207.66031,1058.125 1206.552,1058.125 C1205.44369,1058.125 1204.5451,1057.2295 1204.5451,1056.125 L1204.5451,1052.6665 L1147.0138,1052.6665 L1147.0138,1093 L1152.49113,1093 C1153.59944,1093 1154.49803,1093.8955 1154.49803,1095 Z M1183.91166,1086.0155 L1200.05316,1102.1015 C1200.4445,1102.492 1200.95877,1102.6875 1201.47204,1102.6875 C1201.9853,1102.6875 1202.49957,1102.492 1202.89091,1102.1015 C1203.67511,1101.321 1203.67511,1100.054 1202.89091,1099.2735 L1197.66194,1094.0625 L1200.65673,1091.078 L1215.63021,1106 L1163.81105,1106 C1163.90086,1105.936 1163.98967,1105.8695 1164.06994,1105.789 L1183.91166,1086.0155 Z M1219.931,1065.6665 L1219.931,1104.63 L1202.07561,1086.836 C1201.29292,1086.0545 1200.02054,1086.0545 1199.23785,1086.836 L1194.82418,1091.2345 L1185.33054,1081.7735 C1184.54785,1080.992 1183.27547,1080.992 1182.49278,1081.7735 L1162.4002,1101.797 L1162.4002,1065.6665 L1219.931,1065.6665 Z M1220.43272,1061.6665 L1161.89848,1061.6665 C1159.96232,1061.6665 1158.3864,1063.237 1158.3864,1065.1665 L1158.3864,1106.5 C1158.3864,1108.4295 1159.96232,1110 1161.89848,1110 L1220.43272,1110 C1222.36888,1110 1223.9448,1108.4295 1223.9448,1106.5 L1223.9448,1065.1665 C1223.9448,1063.237 1222.36888,1061.6665 1220.43272,1061.6665 Z" id="Page-1" fill="#666666"></path>
    </g>
</svg>