<?xml version="1.0" encoding="UTF-8"?>
<svg width="64px" height="75px" viewBox="0 0 64 75" version="1.1" xmlns="http://www.w3.org/2000/svg" xmlns:xlink="http://www.w3.org/1999/xlink">
    <!-- Generator: Sketch 48.1 (47250) - http://www.bohemiancoding.com/sketch -->
    <title>Fill 1</title>
    <desc>Created with Sketch.</desc>
    <defs></defs>
    <g id="Design-Elements" stroke="none" stroke-width="1" fill="none" fill-rule="evenodd" transform="translate(-1011.000000, -428.000000)" fill-opacity="0.07">
        <path d="M1058.26911,493.279809 C1058.26911,494.106733 1057.59601,494.777181 1056.76581,494.777181 L1038.53539,494.777181 L1038.53539,501.502628 C1038.53539,502.329552 1037.86229,503 1037.03209,503 L1017.70464,503 C1016.87444,503 1016.20134,502.329552 1016.20134,501.502628 C1016.20134,500.675704 1016.87444,500.005256 1017.70464,500.005256 L1035.5288,500.005256 L1035.5288,493.279809 C1035.5288,492.452885 1036.2019,491.782437 1037.03209,491.782437 L1056.76581,491.782437 C1057.59601,491.782437 1058.26911,492.452885 1058.26911,493.279809 Z M1023.68135,475.433005 C1024.51155,475.433005 1025.18464,476.103453 1025.18464,476.930377 L1025.18464,496.115083 C1025.18464,496.942007 1024.51155,497.612455 1023.68135,497.612455 C1022.85116,497.612455 1022.17806,496.942007 1022.17806,496.115083 L1022.17806,476.930377 C1022.17806,476.103453 1022.85116,475.433005 1023.68135,475.433005 Z M1030.93136,478.982526 C1031.75666,479.072742 1032.35197,479.81207 1032.26139,480.634501 L1030.53449,496.279045 C1030.44993,497.045325 1029.79863,497.612455 1029.04172,497.612455 C1028.98685,497.612455 1028.9316,497.60946 1028.87598,497.603471 C1028.0503,497.513254 1027.45499,496.773552 1027.54557,495.951495 L1029.27285,480.306951 C1029.36342,479.484894 1030.10868,478.892683 1030.93136,478.982526 Z M1025.08468,456.127761 L1025.08468,466.588402 C1025.08468,468.134439 1025.94118,469.535979 1027.32007,470.246482 L1037.29517,475.383966 C1037.64431,475.563651 1037.90851,475.872484 1038.03178,476.244206 L1041.83624,487.710333 C1042.09706,488.495705 1041.669,489.342095 1040.8809,489.601889 C1040.72418,489.653174 1040.56521,489.67788 1040.40886,489.67788 C1039.77786,489.67788 1039.19045,489.279205 1038.98186,488.649934 L1035.36945,477.763665 L1025.93892,472.90619 C1023.55771,471.679842 1022.07809,469.258966 1022.07809,466.588402 L1022.07809,456.127761 C1022.07809,455.300837 1022.75119,454.630389 1023.58138,454.630389 C1024.41158,454.630389 1025.08468,455.300837 1025.08468,456.127761 Z M1069.37806,442.56419 C1069.91286,443.168379 1070.43074,443.835833 1070.86219,444.459863 C1068.37424,444.05969 1065.81263,444.131564 1063.34948,444.675485 L1063.34948,443.465608 C1063.45283,443.497801 1063.55694,443.527749 1063.65991,443.562188 C1063.81626,443.614222 1063.97748,443.640052 1064.13796,443.640052 C1064.44914,443.640052 1064.75694,443.543846 1065.01588,443.358171 C1065.40862,443.076665 1065.64125,442.624459 1065.64125,442.14268 L1065.64125,438.127851 C1067.5587,437.894635 1069.50396,437.987846 1071.38458,438.411603 C1070.90202,439.041996 1070.19623,439.818758 1069.4848,440.474233 C1068.88573,441.026389 1068.838,441.954759 1069.37806,442.56419 Z M1058.3127,439.704583 C1056.86165,439.704583 1055.41022,439.861433 1053.99149,440.174758 L1053.99149,434.061737 C1056.81166,433.317543 1059.81336,433.317543 1062.63467,434.061362 L1062.63467,440.175133 C1062.49787,440.144811 1062.35919,440.123099 1062.22201,440.095772 C1062.1679,440.081921 1062.11303,440.071814 1062.05703,440.063953 C1060.82207,439.82924 1059.56833,439.704583 1058.3127,439.704583 Z M1075,437.448418 C1075,436.805671 1074.58772,436.234049 1073.97588,436.029284 C1071.29589,435.131609 1068.44715,434.831012 1065.64125,435.119256 L1065.64125,432.947692 C1065.64125,432.304196 1065.2286,431.732574 1064.61601,431.528183 C1061.20128,430.386811 1057.49754,430.208998 1053.99149,430.984263 L1053.99149,429.497372 C1053.99149,428.670448 1053.31839,428 1052.48819,428 C1051.658,428 1050.9849,428.670448 1050.9849,429.497372 L1050.9849,432.94582 C1050.9849,432.946569 1050.9849,432.947317 1050.9849,432.948066 L1050.9849,442.142305 C1050.9849,442.143054 1050.9849,442.144177 1050.9849,442.144926 L1050.9849,448.62106 L1043.88899,452.510858 L1036.07976,447.335192 C1036.07901,447.334443 1036.07825,447.334069 1036.0775,447.333694 L1036.07111,447.329202 C1036.05232,447.316849 1036.03165,447.309736 1036.01248,447.298506 C1035.94784,447.2592 1035.88245,447.221766 1035.8118,447.192567 C1035.76369,447.172727 1035.71371,447.161871 1035.66447,447.147272 C1035.61975,447.133795 1035.57728,447.11695 1035.53106,447.107591 C1035.45063,447.091869 1035.36945,447.086254 1035.28865,447.083633 C1035.27136,447.082885 1035.25558,447.078392 1035.23829,447.078392 L1035.23228,447.078392 L1035.22626,447.078392 L1023.21458,447.078392 L1022.46293,447.078392 L1022.08035,447.078392 C1018.76634,447.078392 1015.80034,449.29076 1014.86755,452.45845 L1011.06121,465.387136 C1010.82745,466.180743 1011.2837,467.012907 1012.08082,467.245374 C1012.22175,467.286552 1012.36419,467.306392 1012.50437,467.306392 C1013.15455,467.306392 1013.75398,466.88301 1013.94603,466.230156 L1017.75237,453.301471 C1018.31234,451.400557 1020.09187,450.073137 1022.08035,450.073137 L1022.46293,450.073137 L1023.21458,450.073137 L1034.78392,450.073137 L1042.9825,455.5071 C1043.44852,455.816307 1044.04909,455.841763 1044.53991,455.572236 L1055.26252,449.694302 L1055.26252,451.568263 C1055.26252,453.11093 1054.40865,454.511348 1053.03389,455.222225 L1043.76008,460.021303 L1035.84111,456.567239 C1035.37622,456.36472 1034.84029,456.408892 1034.41561,456.685532 C1033.99093,456.961797 1033.735,457.433095 1033.735,457.938832 L1033.735,467.605492 C1033.735,468.109732 1033.9898,468.580282 1034.41261,468.856921 L1041.42847,473.44749 L1044.52262,488.481106 C1044.66882,489.189363 1045.29494,489.67788 1045.9936,489.67788 C1046.09394,489.67788 1046.19541,489.667773 1046.29726,489.647184 C1047.11054,489.480976 1047.63482,488.68924 1047.46795,487.879162 L1044.24865,472.236864 C1044.16822,471.846799 1043.93521,471.505024 1043.60148,471.286407 L1036.74158,466.79766 L1036.74158,460.229063 L1043.21213,463.051609 C1043.62816,463.233166 1044.10471,463.217443 1044.50797,463.008934 L1050.9849,459.657441 L1050.9849,488.179385 C1050.9849,489.006309 1051.658,489.676757 1052.48819,489.676757 C1053.31839,489.676757 1053.99149,489.006309 1053.99149,488.179385 L1053.99149,458.101672 L1054.41993,457.88006 C1056.79438,456.651467 1058.26911,454.233211 1058.26911,451.568263 L1058.26911,447.161497 C1058.26911,446.632176 1057.98837,446.141786 1057.53099,445.872259 C1057.07286,445.602732 1056.50687,445.594122 1056.04085,445.849799 L1053.99149,446.973202 L1053.99149,443.259719 C1056.05927,442.714301 1058.22326,442.565313 1060.3429,442.819492 L1060.3429,446.642283 C1060.3429,447.124062 1060.57553,447.576269 1060.96827,447.857775 C1061.22721,448.043449 1061.53501,448.139655 1061.84657,448.139655 C1062.00667,448.139655 1062.1679,448.1142 1062.32386,448.062166 C1065.77204,446.911435 1069.57086,446.91181 1073.01941,448.062166 C1073.47829,448.215272 1073.98227,448.138906 1074.37463,447.857775 C1074.76737,447.576269 1075,447.124062 1075,446.642283 C1075,445.096995 1073.59818,443.020514 1072.54512,441.678869 C1074.65499,439.48447 1075,438.11138 1075,437.448418 Z M1026.51356,435.585687 C1026.51356,433.959541 1027.84134,432.636987 1029.47354,432.636987 L1029.93242,432.636987 C1031.56462,432.636987 1032.8924,433.959541 1032.8924,435.585687 L1032.8924,438.633588 C1032.8924,440.25936 1031.56462,441.581914 1029.93242,441.581914 L1029.47354,441.581914 C1027.84134,441.581914 1026.51356,440.25936 1026.51356,438.633588 L1026.51356,435.585687 Z M1029.47354,444.576658 L1029.93242,444.576658 C1033.22237,444.576658 1035.89899,441.910587 1035.89899,438.633588 L1035.89899,435.585687 C1035.89899,432.308314 1033.22237,429.642243 1029.93242,429.642243 L1029.47354,429.642243 C1026.18358,429.642243 1023.50697,432.308314 1023.50697,435.585687 L1023.50697,438.633588 C1023.50697,441.910587 1026.18358,444.576658 1029.47354,444.576658 Z" id="Fill-1" fill="#231F20" style="mix-blend-mode: multiply;"></path>
    </g>
</svg>