<?xml version="1.0" encoding="UTF-8"?>
<svg width="75px" height="75px" viewBox="0 0 75 75" version="1.1" xmlns="http://www.w3.org/2000/svg" xmlns:xlink="http://www.w3.org/1999/xlink">
    <!-- Generator: Sketch 48.1 (47250) - http://www.bohemiancoding.com/sketch -->
    <title>Fill 1</title>
    <desc>Created with Sketch.</desc>
    <defs></defs>
    <g id="Design-Elements" stroke="none" stroke-width="1" fill="none" fill-rule="evenodd" transform="translate(-1351.000000, -1035.000000)">
        <path d="M1375.55145,1053.21563 C1376.5747,1053.21563 1377.40432,1052.39108 1377.40432,1051.3741 L1377.40432,1042.8529 C1377.40432,1041.83592 1376.5747,1041.01137 1375.55145,1041.01137 C1374.5282,1041.01137 1373.69858,1041.83592 1373.69858,1042.8529 L1373.69858,1051.3741 C1373.69858,1052.39108 1374.5282,1053.21563 1375.55145,1053.21563 Z M1367.89169,1054.28325 C1368.25346,1054.64327 1368.72779,1054.82282 1369.20167,1054.82282 C1369.676,1054.82282 1370.15034,1054.64327 1370.51211,1054.28325 C1371.23565,1053.5646 1371.23565,1052.39845 1370.51211,1051.67933 L1364.44952,1045.65386 C1363.72597,1044.93474 1362.55264,1044.93474 1361.8291,1045.65386 C1361.10555,1046.37298 1361.10555,1047.53912 1361.8291,1048.25778 L1367.89169,1054.28325 Z M1358.67042,1061.47257 L1367.24411,1061.47257 C1368.26736,1061.47257 1369.09698,1060.64803 1369.09698,1059.63104 C1369.09698,1058.61406 1368.26736,1057.78952 1367.24411,1057.78952 L1358.67042,1057.78952 C1357.64717,1057.78952 1356.81755,1058.61406 1356.81755,1059.63104 C1356.81755,1060.64803 1357.64717,1061.47257 1358.67042,1061.47257 Z M1402.9818,1077.37 C1402.9818,1074.67493 1401.92613,1072.14191 1400.00887,1070.23685 L1391.7951,1062.07337 C1391.07109,1061.35425 1389.89822,1061.35425 1389.17468,1062.07337 C1388.45113,1062.79248 1388.45113,1063.95863 1389.17468,1064.67728 L1397.38845,1072.84077 C1399.90094,1075.33834 1399.90094,1079.40167 1397.38845,1081.89923 L1374.70284,1104.4455 C1372.19035,1106.94215 1368.10152,1106.94307 1365.5895,1104.4455 L1356.59335,1095.50443 C1354.08086,1093.00732 1354.08086,1088.94399 1356.59335,1086.44688 L1368.7,1074.41389 C1369.42355,1073.69478 1369.42355,1072.52863 1368.7,1071.80997 C1367.97646,1071.0904 1366.80359,1071.0904 1366.07958,1071.80997 L1353.97293,1083.84251 C1352.05567,1085.74802 1351,1088.28104 1351,1090.97612 C1351,1093.67027 1352.05567,1096.20329 1353.97293,1098.10881 L1362.96861,1107.04988 C1364.94748,1109.01663 1367.54705,1110 1370.14617,1110 C1372.74528,1110 1375.34439,1109.01663 1377.32326,1107.04988 L1400.00887,1084.50315 C1401.92613,1082.59763 1402.9818,1080.06461 1402.9818,1077.37 Z M1423.02707,1046.89137 L1414.03139,1037.9503 C1410.07412,1034.0168 1403.63494,1034.01634 1399.67674,1037.9503 L1376.99113,1060.49656 C1375.07434,1062.40208 1374.0182,1064.9351 1374.0182,1067.63017 C1374.0182,1070.32478 1375.07434,1072.8578 1376.99113,1074.76332 L1385.2049,1082.92635 C1385.56714,1083.2859 1386.04101,1083.46591 1386.51534,1083.46591 C1386.98968,1083.46591 1387.46355,1083.2859 1387.82579,1082.92635 C1388.54933,1082.20769 1388.54933,1081.04108 1387.82579,1080.32243 L1379.61202,1072.15894 C1377.09906,1069.66183 1377.09906,1065.59805 1379.61202,1063.10094 L1402.29716,1040.55421 C1404.80965,1038.05757 1408.89801,1038.05618 1411.41097,1040.55421 L1420.40665,1049.49528 C1422.91914,1051.99285 1422.91914,1056.05572 1420.40665,1058.55329 L1408.53763,1070.34964 C1407.81408,1071.0683 1407.81408,1072.23491 1408.53763,1072.95356 C1409.26117,1073.67314 1410.4345,1073.67314 1411.15805,1072.95356 L1423.02707,1061.15721 C1424.94433,1059.25169 1426,1056.71867 1426,1054.02406 C1426,1051.32944 1424.94433,1048.79642 1423.02707,1046.89137 Z M1401.44855,1091.78409 C1400.4253,1091.78409 1399.59568,1092.60863 1399.59568,1093.62561 L1399.59568,1102.14681 C1399.59568,1103.1638 1400.4253,1103.98834 1401.44855,1103.98834 C1402.4718,1103.98834 1403.30142,1103.1638 1403.30142,1102.14681 L1403.30142,1093.62561 C1403.30142,1092.60863 1402.4718,1091.78409 1401.44855,1091.78409 Z M1409.10831,1090.71646 C1408.38477,1089.99735 1407.2119,1089.99735 1406.48789,1090.71646 C1405.76435,1091.43558 1405.76435,1092.60172 1406.48789,1093.32038 L1412.55048,1099.34585 C1412.91225,1099.70541 1413.38659,1099.88542 1413.86092,1099.88542 C1414.33526,1099.88542 1414.80913,1099.70541 1415.1709,1099.34585 C1415.89445,1098.6272 1415.89445,1097.46059 1415.1709,1096.74193 L1409.10831,1090.71646 Z M1420.18245,1085.36913 C1420.18245,1086.38611 1419.35283,1087.21066 1418.32958,1087.21066 L1409.75589,1087.21066 C1408.73264,1087.21066 1407.90302,1086.38611 1407.90302,1085.36913 C1407.90302,1084.35215 1408.73264,1083.5276 1409.75589,1083.5276 L1418.32958,1083.5276 C1419.35283,1083.5276 1420.18245,1084.35215 1420.18245,1085.36913 Z" id="Fill-1" fill="#666666"></path>
    </g>
</svg>