<?xml version="1.0" encoding="UTF-8"?>
<svg width="98px" height="75px" viewBox="0 0 98 75" version="1.1" xmlns="http://www.w3.org/2000/svg" xmlns:xlink="http://www.w3.org/1999/xlink">
    <!-- Generator: Sketch 48.1 (47250) - http://www.bohemiancoding.com/sketch -->
    <title>Fill 1</title>
    <desc>Created with Sketch.</desc>
    <defs></defs>
    <g id="Design-Elements" stroke="none" stroke-width="1" fill="none" fill-rule="evenodd" transform="translate(-1342.000000, -428.000000)" fill-opacity="0.0700000003">
        <path d="M1399.64473,482.820875 C1399.64473,483.869517 1398.79251,484.719729 1397.7414,484.719729 L1397.65242,484.719729 C1396.60131,484.719729 1395.74862,483.869517 1395.74862,482.820875 C1395.74862,481.772232 1396.60131,480.92202 1397.65242,480.92202 L1397.7414,480.92202 C1398.79251,480.92202 1399.64473,481.772232 1399.64473,482.820875 Z M1411.57002,482.820875 C1411.57002,483.869517 1410.7178,484.719729 1409.66669,484.719729 L1403.48136,484.719729 C1402.43024,484.719729 1401.57755,483.869517 1401.57755,482.820875 C1401.57755,481.772232 1402.43024,480.92202 1403.48136,480.92202 L1409.66669,480.92202 C1410.7178,480.92202 1411.57002,481.772232 1411.57002,482.820875 Z M1411.57002,457.815811 C1411.57002,458.864453 1410.7178,459.714665 1409.66669,459.714665 L1384.25443,459.714665 C1383.20332,459.714665 1382.3511,458.864453 1382.3511,457.815811 C1382.3511,456.767169 1383.20332,455.916957 1384.25443,455.916957 L1409.66669,455.916957 C1410.7178,455.916957 1411.57002,456.767169 1411.57002,457.815811 Z M1411.57002,451.632192 C1411.57002,452.680834 1410.7178,453.531046 1409.66669,453.531046 L1384.25443,453.531046 C1383.20332,453.531046 1382.3511,452.680834 1382.3511,451.632192 C1382.3511,450.58355 1383.20332,449.733338 1384.25443,449.733338 L1409.66669,449.733338 C1410.7178,449.733338 1411.57002,450.58355 1411.57002,451.632192 Z M1382.3511,445.448573 C1382.3511,444.39993 1383.20332,443.549718 1384.25443,443.549718 L1409.66669,443.549718 C1410.7178,443.549718 1411.57002,444.39993 1411.57002,445.448573 C1411.57002,446.497215 1410.7178,447.347427 1409.66669,447.347427 L1384.25443,447.347427 C1383.20332,447.347427 1382.3511,446.497215 1382.3511,445.448573 Z M1418.43056,438.761757 L1418.43056,492.04361 C1418.42104,492.105323 1418.42104,492.171783 1418.42104,492.238243 C1418.42104,496.078676 1415.29007,499.202291 1411.44059,499.202291 C1407.59111,499.202291 1404.46014,496.078676 1404.46014,492.238243 C1404.46014,491.189126 1403.6084,490.339389 1402.55682,490.339389 L1375.72467,490.339389 L1375.72467,476.026774 L1376.72868,477.037914 L1378.96985,479.311792 C1379.02219,479.359263 1379.06977,479.406735 1379.12687,479.449459 C1381.33473,481.248623 1383.73292,481.590417 1385.85037,481.894234 C1387.8679,482.183809 1389.15264,482.411672 1390.04245,483.418064 C1390.41835,483.84056 1390.94177,484.058928 1391.46518,484.058928 C1391.91722,484.058928 1392.3645,483.902272 1392.72614,483.579467 C1393.15438,483.204443 1393.36851,482.682258 1393.36851,482.160073 C1393.36851,481.709096 1393.21148,481.262865 1392.89268,480.902082 C1391.9648,479.857713 1391.74116,478.55225 1391.45567,476.904994 C1391.09403,474.830496 1390.64675,472.248054 1388.42462,470.021647 L1386.34523,467.918666 L1375.72467,457.161656 L1375.72467,438.761757 C1375.72467,434.921324 1378.85565,431.797709 1382.70512,431.797709 L1421.0048,431.797709 C1419.39649,433.672827 1418.43056,436.108108 1418.43056,438.761757 Z M1372.57943,499.202291 C1369.39136,499.202291 1366.69339,497.056586 1365.86069,494.137097 L1400.82479,494.137097 C1401.16739,496.045446 1402.01437,497.782898 1403.22298,499.202291 L1372.57943,499.202291 Z M1385.71714,472.694284 C1387.10181,474.080448 1387.38255,475.68498 1387.70611,477.550604 C1387.74894,477.816444 1387.79652,478.087031 1387.84886,478.362365 C1387.354,478.272169 1386.86865,478.205709 1386.39282,478.134502 C1384.637,477.882904 1382.98111,477.645547 1381.60595,476.567947 L1380.82559,475.779923 L1384.9225,471.892018 L1385.71714,472.694284 Z M1355.72547,450.363757 L1359.82238,446.471106 L1371.91802,458.718716 L1375.72467,462.573391 L1382.24832,469.181404 L1378.15141,473.069308 L1375.72467,470.615039 L1371.91802,466.760365 L1355.72547,450.363757 Z M1349.80137,444.363377 L1349.79185,444.353883 C1349.79138,444.353883 1349.79138,444.353883 1349.79138,444.353883 C1349.25607,443.819356 1348.96153,443.109184 1348.96153,442.35344 C1348.96153,440.792582 1350.23438,439.523198 1351.79891,439.523198 C1352.50742,439.523198 1353.17835,439.787613 1353.697,440.254731 C1353.697,440.255206 1353.69748,440.256155 1353.69843,440.257105 C1353.69843,440.257105 1353.70319,440.257105 1353.70319,440.261852 C1353.74126,440.309323 1353.78408,440.356795 1353.83166,440.404266 L1354.06958,440.64637 L1354.15999,440.741313 L1357.15297,443.765238 L1353.0513,447.65789 L1349.80137,444.363377 Z M1429.21766,428 L1382.70512,428 C1376.75723,428 1371.91802,432.827837 1371.91802,438.761757 L1371.91802,453.306981 L1356.85795,438.059181 L1356.78705,437.987024 C1355.52325,436.551016 1353.71984,435.725489 1351.79891,435.725489 C1348.13548,435.725489 1345.15488,438.69862 1345.15488,442.35344 C1345.15488,444.050066 1345.79582,445.645579 1346.95352,446.877935 C1346.95637,446.881258 1346.9578,446.885531 1346.96066,446.888854 C1346.96541,446.893601 1346.97017,446.898348 1346.97493,446.903095 C1347.00824,446.945819 1347.04631,446.988544 1347.08913,447.031268 L1350.29148,450.273562 L1348.42955,452.041395 L1345.25908,448.830907 C1344.52059,448.083708 1343.31579,448.075163 1342.5673,448.811444 C1341.81882,449.54725 1341.80978,450.749699 1342.54732,451.496899 L1357.01736,466.147984 C1357.38993,466.525381 1357.88147,466.714317 1358.37348,466.714317 C1358.85549,466.714317 1359.33846,466.532502 1359.70914,466.167922 C1360.45809,465.432116 1360.46666,464.229666 1359.72912,463.482467 L1351.10229,454.747737 L1352.96565,452.979429 L1371.91802,472.172099 L1371.91802,490.339389 L1363.69565,490.339389 C1362.64406,490.339389 1361.79233,491.189126 1361.79233,492.238243 C1361.79233,498.172163 1366.63153,503 1372.57943,503 L1411.54051,503 C1417.35042,502.947782 1422.07543,498.290841 1422.22293,492.513577 C1422.23245,492.44237 1422.23721,492.361668 1422.23721,492.285714 L1422.23721,438.761757 C1422.23721,434.921324 1425.36818,431.797709 1429.21766,431.797709 C1432.40573,431.797709 1435.09894,433.943414 1435.93164,436.862903 L1427.27151,436.862903 C1426.21992,436.862903 1425.36818,437.71264 1425.36818,438.761757 C1425.36818,439.810874 1426.21992,440.660611 1427.27151,440.660611 L1438.09667,440.660611 C1439.14826,440.660611 1440,439.810874 1440,438.761757 C1440,432.827837 1435.16079,428 1429.21766,428 Z" id="Fill-1" fill="#231F20" style="mix-blend-mode: multiply;"></path>
    </g>
</svg>