<?xml version="1.0" encoding="UTF-8"?>
<svg width="588px" height="406px" viewBox="0 0 588 406" version="1.1" xmlns="http://www.w3.org/2000/svg" xmlns:xlink="http://www.w3.org/1999/xlink">
    <!-- Generator: Sketch 48.1 (47250) - http://www.bohemiancoding.com/sketch -->
    <title>design/RESOURCE/placeholder</title>
    <desc>Created with Sketch.</desc>
    <defs>
        <path d="M3,0 L382,0 C383.656854,-3.04359188e-16 385,1.34314575 385,3 L385,266 L0,266 L0,3 C-2.02906125e-16,1.34314575 1.34314575,3.04359188e-16 3,0 Z" id="path-1"></path>
    </defs>
    <g id="Design-Elements" stroke="none" stroke-width="1" fill="none" fill-rule="evenodd" transform="translate(-72.000000, -875.000000)">
        <g id="design/RESOURCE/placeholder" transform="translate(72.000000, 875.000000)">
            <mask id="mask-2" fill="white">
                <use xlink:href="#path-1"></use>
            </mask>
            <use id="Mask" fill="#EFEFEF" fill-rule="evenodd" xlink:href="#path-1"></use>
            <path d="M229.238262,271.559677 L204.443756,250.064587 C204.512629,249.995912 204.512629,249.995912 204.512629,249.927238 L214.292685,216.62015 L247.903016,209.340663 C249.624857,215.727383 254.928126,243.26582 229.238262,271.559677 Z M192.115376,249.377843 C191.357766,249.240494 190.600156,249.103145 189.842546,248.897122 L187.431969,248.279052 C180.61348,246.562192 177.514167,243.746541 177.514167,242.991123 L179.167134,237.291147 L186.054497,213.66715 L187.363096,209.271988 C187.431969,209.203314 187.707464,208.997291 188.258453,208.791267 C188.258453,208.791267 188.327326,208.791267 188.3962,208.722593 C189.016063,208.51657 190.118041,208.379221 191.633261,208.379221 C193.837217,208.379221 196.316667,208.722593 198.933865,209.409337 L201.344442,210.027407 C202.170926,210.23343 202.859662,210.439453 203.548399,210.645476 C203.906541,210.789693 204.319783,210.892704 204.650377,211.057523 C205.063618,211.126197 205.407987,211.263546 205.752355,211.469569 C207.611943,212.224988 208.989415,213.049081 209.953646,213.735825 C210.298014,214.010522 210.642382,214.28522 210.78013,214.491243 C210.986751,214.697267 211.124498,214.834615 211.262245,214.971964 C211.262245,215.109313 211.331119,215.177987 211.331119,215.246662 L201.413316,249.034471 C201.275569,249.17182 200.242464,249.858564 197.143151,249.858564 C195.765678,249.858564 194.112711,249.721215 192.459744,249.446517 C192.321997,249.377843 192.253123,249.377843 192.115376,249.377843 Z M142.044247,225.547823 L136.603231,223.830963 L117.249741,217.650266 L117.249741,215.246662 L127.305291,211.812941 L130.542351,210.714151 L149.68922,204.258757 L182.955183,212.843058 L176.06782,236.329705 L142.044247,225.547823 Z M176.136694,274.718699 L164.634798,284.195768 L117.463249,229.942985 L117.318614,221.083987 L140.046912,228.294799 L176.136694,274.718699 Z M199.071613,304.111346 L188.878315,312.077578 L176.618809,297.930649 L187.363096,289.071651 L199.071613,304.111346 Z M204.581503,303.836649 C205.339113,304.180021 206.578838,305.004114 207.887437,306.583625 L208.645047,307.545067 C210.366888,309.673973 210.849003,311.528182 210.849003,311.80288 L194.870321,324.782343 C194.388206,324.782343 192.804112,324.026925 191.013398,321.829344 L190.186914,320.867902 C189.360431,319.769111 188.809442,318.80767 188.465074,318.052251 C188.120706,317.434181 188.058719,317.022135 188.058719,316.884786 L204.581503,303.836649 Z M170.695677,298.617394 C170.006941,298.617394 168.2851,297.587277 166.494386,295.321022 L165.736776,294.290906 C165.116913,293.535487 164.703671,292.780069 164.359303,292.161999 C164.152682,291.818627 164.014935,291.475255 163.877188,291.200557 C163.463946,290.239116 163.326199,289.552372 163.395073,289.415023 L180.820101,275.062071 C181.508837,275.062071 183.230678,276.092188 184.952519,278.358443 L185.847876,279.388559 C187.63859,281.792164 188.120706,283.715047 188.120706,284.195768 L188.120706,284.264442 L185.36576,286.530698 L174.483727,295.458371 L170.695677,298.617394 Z M115.183532,289.071651 L90.6645197,288.659604 L92.7307286,236.123682 L92.8684758,230.973101 L93.212844,223.350242 L93.3574786,219.847847 L93.5572121,213.529802 L93.6949594,210.164756 L93.8327066,207.692477 L93.9704539,202.953943 L94.1770748,198.764804 L94.1770748,198.07806 L94.314822,194.644339 L94.3836957,193.270851 L94.4525693,189.97448 L94.5903166,186.678108 L95.2101792,170.608296 L95.4168001,165.52639 L97.3452617,115.119374 L112.428587,115.256723 L113.25507,169.303483 L113.323944,174.385389 L113.599438,188.875689 L113.599438,189.287735 L113.599438,191.553991 L113.668312,192.652781 L113.668312,194.300967 L113.668312,194.987711 L113.874933,207.211756 L113.943806,212.018965 L113.943806,212.911732 L114.019567,216.345452 L114.019567,216.62015 L114.081554,220.05387 L114.150427,226.165893 L114.288175,231.247799 L115.183532,289.071651 Z M135.776747,350.672595 C132.333066,352.664153 121.588779,358.158106 106.023339,358.158106 C94.4525693,358.158106 82.606305,355.136432 70.7600407,349.230432 L84.8791348,319.700437 L85.016882,319.700437 L119.866939,320.181158 L135.776747,350.672595 Z M90.5267724,291.955976 L115.252405,292.299348 L119.798065,292.368022 C120.004686,292.436697 120.211307,292.64272 120.486801,293.123441 C120.555675,293.123441 120.555675,293.123441 120.555675,293.192115 C121.451032,294.634278 122.628771,298.067998 122.759631,303.561951 L122.759631,305.965555 C122.828505,307.13302 122.759631,308.231811 122.690757,309.261927 C122.628771,309.948671 122.55301,310.635415 122.484137,311.253485 C122.346389,312.283601 122.139768,313.245043 121.864274,314.000461 C121.519906,315.442624 121.03779,316.335391 120.624549,316.747437 C120.555675,316.884786 120.417928,316.953461 120.349054,316.953461 L85.1546293,316.47274 C84.465893,316.335391 82.9506732,313.657089 82.3996841,308.643857 L82.3996841,308.231811 C82.2619369,307.339043 82.1930632,306.377602 82.1930632,305.278811 L82.1241896,302.806532 C81.9864423,295.801743 83.8460303,292.093325 84.5347666,291.887302 L90.5267724,291.955976 Z M44.3814406,286.049977 L32.8795445,276.572908 L68.0739692,231.865869 L89.9137971,224.517707 L89.493668,234.887543 L44.3814406,286.049977 Z M34.5325116,297.31258 L23.5816045,288.247558 L19.7935548,285.15721 C19.6558076,284.745163 20.2067966,282.82228 22.2730055,280.48735 L23.0994891,279.525908 C23.7193517,278.77049 24.408088,278.221094 24.9590771,277.809048 C25.2345716,277.465676 25.5100661,277.259653 25.7855606,277.122304 C26.6120442,276.572908 27.1630332,276.366885 27.5074014,276.298211 L44.9324296,290.582488 C45.0701769,290.994534 44.5880615,292.986092 42.5218526,295.321022 L41.6264954,296.351138 C39.7669074,298.480045 37.9073194,299.441486 37.1497095,299.441486 L34.5325116,297.31258 Z M19.7935548,314.000461 L10.0134994,305.553509 L21.5842692,290.788511 L32.3974291,299.784858 L19.7935548,314.000461 Z M21.1021538,319.28839 C20.9644065,320.112483 20.3445439,321.554646 18.9670713,323.134157 L18.2094614,324.095599 C16.6253679,325.949808 14.9724008,326.842575 14.3525381,326.91125 L-1.34376208,313.794438 C-1.4883967,313.382391 -1.00628129,311.596857 0.853306705,309.46795 L1.61091663,308.506508 C2.2307793,307.819764 2.78176833,307.270369 3.33275737,306.720974 C3.88374641,306.308927 4.43473544,305.965555 4.77910359,305.828206 C4.91685085,305.690858 5.05459811,305.622183 5.12347174,305.622183 L21.1021538,319.28839 Z M29.8491048,241.342937 L22.6862473,217.924964 L67.9362219,205.357547 L73.5838595,203.778036 L87.1519646,200.000943 L89.5625416,199.314199 L90.595646,199.039501 L90.8711406,198.970827 L90.8711406,199.314199 L90.7333933,203.159966 L90.6645197,204.052733 L90.4578988,209.134639 L90.3201515,212.499686 L89.9757834,221.015312 L71.7931452,227.127334 L66.1455075,229.050218 L29.8491048,241.342937 Z M9.53138403,255.283842 C8.91152137,255.352516 8.2916587,255.352516 7.74066966,255.352516 C7.120807,255.352516 6.56981796,255.352516 6.15657618,255.283842 C5.88108166,255.283842 5.67446078,255.215167 5.54360088,255.146493 C5.33009263,255.077819 5.12347174,255.009144 5.05459811,255.009144 C4.91685085,254.94047 4.84797722,254.871795 4.84797722,254.871795 L-5.48306722,221.152661 C-5.48306722,220.465917 -3.27911107,218.062313 1.74866389,215.933406 C1.81753752,215.933406 1.81753752,215.864732 1.88641115,215.864732 C2.64402107,215.590034 3.47050463,215.246662 4.29698818,214.971964 L6.63869159,214.147871 C9.66913129,213.117755 12.699571,212.56836 14.9724008,212.56836 C16.969736,212.56836 17.727346,212.980406 17.8650932,213.117755 L19.5869339,218.749057 L26.7497914,242.373053 L28.127264,246.768215 C28.127264,246.974238 27.9275305,247.317611 27.576275,247.729657 L27.5074014,247.798331 C26.3365496,249.103145 23.3749836,251.232052 18.3472086,252.948912 L16.0743788,253.773005 C15.4545162,253.979028 14.7657799,254.185051 14.1528046,254.391075 C13.5260545,254.528423 12.9061919,254.734447 12.2863292,254.871795 C11.3220984,255.077819 10.3578676,255.215167 9.53138403,255.283842 Z M-22.632601,279.731931 C-27.4537551,275.336769 -47.0827395,255.215167 -41.0907337,217.581592 L-8.58238055,221.908079 L-8.58238055,222.114103 L1.542043,255.283842 L-22.632601,279.731931 Z M10.1512467,183.656434 L14.2836645,169.234808 L73.7904804,184.617876 L79.3003708,186.060038 L91.2155087,189.150387 L91.0088878,195.537107 L88.2539426,196.3612 L84.7482749,197.322641 L67.8673483,201.992501 L10.1512467,183.656434 Z M-25.3186725,172.393831 L-21.4617493,160.032438 L-3.3479847,164.770972 L-7.13603433,178.093807 L-25.3186725,172.393831 Z M-29.7265848,175.690203 C-30.0020793,175.758877 -30.3464475,175.827551 -30.8285629,175.827551 C-31.7927937,175.827551 -32.9636454,175.621528 -34.0587361,175.278156 L-35.2364752,174.934784 C-37.9225467,174.179366 -39.3000193,172.943226 -39.4377666,172.737203 L-33.6523817,152.958973 C-33.4457608,152.821625 -31.172931,152.478253 -28.8312276,153.233671 L-27.5915023,153.577043 C-27.0405133,153.714392 -26.5583979,153.920415 -26.1451561,154.057764 C-24.5610626,154.744508 -23.6657054,155.499927 -23.5279582,155.637275 L-29.7265848,175.690203 Z M6.22544981,185.991364 C6.08770255,186.060038 5.60558715,186.266062 4.50360907,186.266062 C4.29698818,186.266062 3.95262004,186.197387 3.74599915,186.197387 C3.47050463,186.128713 3.12613648,186.128713 2.85064196,186.060038 L2.81620515,186.060038 C2.49249909,186.011966 2.18945512,185.991364 1.86574906,185.915822 C1.52826827,185.854015 1.19078749,185.785341 0.853306705,185.647992 L-0.317544998,185.30462 L-0.386418627,185.235945 C-3.3479847,184.343178 -4.78744356,182.96969 -5.06982544,182.557643 L-5.06982544,182.488969 L-4.10559462,179.055249 L-0.248671368,165.52639 L1.12880122,160.787856 C1.19767485,160.719182 1.67979026,160.513158 2.78176833,160.513158 C3.82176014,160.513158 5.12347174,160.719182 6.36319707,161.131228 L7.67179603,161.543275 C8.63602685,161.886647 9.4625104,162.230019 10.0823731,162.642065 C10.4956148,162.779414 10.839983,162.985437 11.1154775,163.19146 C11.8730874,163.740856 12.2863292,164.152902 12.3552028,164.290251 L6.22544981,185.991364 Z M50.5111936,152.958973 L69.5203154,137.507232 L92.1108659,166.625181 L91.353256,185.854015 L75.5811948,181.733551 L50.5111936,152.958973 Z M44.7946824,153.37102 L44.5880615,153.37102 C44.312567,153.37102 44.0370724,153.302346 43.6927043,153.164997 C41.7642427,152.615601 38.5960557,150.349346 35.3589951,146.709602 L33.7749016,144.855393 C32.7417972,143.687928 31.9153136,142.589138 31.2265773,141.627696 C30.7444619,140.872278 30.2623465,140.185534 29.9179784,139.498789 C29.7802311,139.155417 29.6493712,138.88072 29.5047366,138.606022 C29.2981157,138.193976 29.0914948,137.781929 28.9537476,137.438557 C28.4716322,136.065069 28.3338849,135.172302 28.5405058,134.897604 L56.0899576,112.647096 C57.329683,112.647096 59.74026,113.95191 62.4952052,116.424188 C62.9773206,116.836235 63.3905624,117.248281 63.8038041,117.729002 C63.8726778,117.729002 63.8726778,117.729002 63.8726778,117.797676 C64.3547932,118.278397 64.8369086,118.759118 65.319024,119.308513 L66.9719911,121.162722 C71.5865243,126.450652 72.5507551,130.502442 72.1375133,131.120512 L67.4541065,134.897604 L48.3761111,150.486695 L44.7946824,153.37102 Z M-5.00095181,118.965141 C-2.79699566,112.853119 8.42940596,87.1688903 45.6900396,78.378566 L53.9548751,110.106143 C53.8860015,110.106143 53.8860015,110.174817 53.8171278,110.174817 L26.7497914,132.081953 L-5.00095181,118.965141 Z M98.791608,77.9665196 L111.808724,78.378566 L112.015345,97.1266795 L98.1028717,96.9893307 L98.791608,77.9665196 Z M94.4525693,74.670148 C94.0393275,73.9834039 93.6260857,72.4725669 93.6949594,70.4123347 L93.6949594,69.1761953 C93.763833,66.429219 94.5903166,64.7123588 94.7280638,64.5063355 L115.390153,64.8497076 C115.665647,65.0557308 116.492131,66.6352422 116.423257,69.5882418 L116.423257,70.8243811 C116.423257,71.5111252 116.354384,72.1291949 116.28551,72.6785901 C116.216636,73.2279854 116.078889,73.6400319 115.941142,74.0520783 C115.872268,74.3267759 115.803394,74.5327992 115.665647,74.7388224 C115.5279,74.9448456 115.459026,75.1508688 115.321279,75.2195432 L94.4525693,74.670148 Z M94.1082012,111.960352 C93.6949594,111.685654 92.8684758,109.831445 93.0062231,106.741097 L93.0750967,105.436283 C93.1439703,102.208586 94.1770748,100.423051 94.4525693,100.217028 L97.9651244,100.285702 L97.9651244,100.217028 L112.084218,100.354377 L117.04312,100.354377 C117.387488,100.5604 118.213972,102.414609 118.145098,105.573632 L118.076224,106.878445 C118.007351,108.04591 117.869603,109.007352 117.594109,109.831445 C117.525235,110.243491 117.387488,110.655538 117.318614,110.930236 C117.04312,111.548305 116.767625,111.960352 116.561004,112.097701 L94.1082012,111.960352 Z M140.529027,139.910836 L159.331528,155.637275 L134.88139,183.381736 L116.836499,188.394968 L116.561004,170.333599 L140.529027,139.910836 Z M148.587242,118.347072 C149.000484,117.935025 149.413726,117.591653 149.758094,117.316956 C150.653451,116.561537 151.411061,116.012142 152.099797,115.66877 C152.444165,115.462747 152.788534,115.325398 153.064028,115.188049 C153.201775,115.119374 153.339523,115.0507 153.47727,115.0507 C153.683891,114.982026 153.890512,114.913351 154.097133,114.913351 L181.171356,137.507232 C181.508837,138.056627 181.095595,140.734929 178.753892,144.64937 C178.478397,145.061417 178.202903,145.542137 177.858535,146.022858 C177.445293,146.640928 176.963178,147.327672 176.412188,148.014416 L174.828095,150.005974 C171.108919,154.813183 167.458617,157.010764 166.150018,157.010764 L161.466611,153.096322 L142.526363,137.369883 L139.013808,134.416883 C138.87606,134.279534 138.87606,133.936162 138.944934,133.386767 L138.944934,133.180744 C139.220429,131.395209 140.529027,128.030163 143.766088,123.909699 L145.281308,121.986815 C145.763423,121.368746 146.245539,120.81935 146.658781,120.269955 C147.347517,119.514537 147.967379,118.896467 148.587242,118.347072 Z M163.395073,79.1339845 C169.869194,80.0954262 197.349772,86.3447974 212.984086,121.162722 L183.368425,135.172302 L183.230678,135.034953 L156.576583,112.784445 L163.395073,79.1339845 Z M190.393535,171.295041 L194.870321,185.579317 L149.620347,200.89371 L143.903835,202.74792 L128.407269,208.035849 L125.170208,209.134639 L117.180867,211.812941 L117.111993,208.379221 L117.04312,203.572012 L116.974246,198.558781 L116.905373,195.811804 L116.905373,193.133502 L116.905373,192.446758 L116.836499,191.760014 L130.886719,187.845573 L136.603231,186.266062 L190.393535,171.295041 Z M194.319332,165.663739 C194.525953,165.52639 194.801448,165.389041 195.145816,165.251693 C195.42131,165.114344 195.765678,164.976995 196.041173,164.908321 C196.385541,164.770972 196.667923,164.633623 197.074277,164.564948 L198.389764,164.221576 C199.622602,163.878204 200.793453,163.672181 201.833445,163.672181 C202.928536,163.672181 203.479525,163.80953 203.686146,163.946879 L203.755019,163.946879 L204.788124,167.311925 L209.058289,180.772109 L210.504635,185.441969 C210.366888,185.854015 208.920542,187.227503 205.890102,188.051596 L204.650377,188.394968 C203.410651,188.73834 202.2398,188.944363 201.206695,188.944363 L200.862327,188.944363 C199.829223,188.875689 199.347107,188.669666 199.20936,188.669666 L192.459744,167.174576 C192.528618,166.968553 192.94186,166.487832 193.69947,166.007111 C193.90609,165.869762 194.112711,165.732413 194.319332,165.663739 Z M226.276696,161.268577 L229.858125,173.698645 L212.088729,179.741993 L207.956311,166.419158 L226.276696,161.268577 Z M234.059416,176.239598 L233.990543,176.239598 L233.990543,176.170923 L228.136284,156.117996 C228.756147,155.499927 230.064746,154.675834 231.993208,154.057764 L233.164059,153.714392 C234.334911,153.37102 235.436889,153.233671 236.40112,153.233671 C237.434224,153.233671 237.91634,153.439694 237.91634,153.302346 L243.908345,172.943226 C243.839472,173.355273 242.599747,174.591412 239.713941,175.415505 L238.536202,175.827551 C237.365351,176.170923 236.27026,176.308272 235.299142,176.308272 L234.8859,176.308272 C234.610405,176.308272 234.472658,176.239598 234.334911,176.239598 L234.059416,176.239598 Z M250.589088,206.937058 L250.106972,205.56357 L214.086064,213.323778 C213.88633,213.049081 213.672822,212.774383 213.328454,212.499686 L212.364223,211.538244 C212.019855,211.263546 211.606613,210.988849 211.124498,210.645476 C210.160267,209.958732 208.989415,209.340663 207.680816,208.722593 C206.096723,208.035849 204.374882,207.417779 202.790789,206.937058 L200.449085,206.250314 C197.418646,205.357547 194.319332,204.808152 191.771008,204.808152 C189.704799,204.808152 188.189579,205.151524 187.225348,205.632245 C187.087601,205.700919 186.949854,205.769593 186.88098,205.838268 C185.228013,206.456338 184.539277,207.417779 184.263782,208.310547 L183.85054,209.684035 L155.343745,202.335873 L195.352437,188.807015 L195.627931,189.699782 C195.903426,190.661224 196.867656,192.240735 200.449085,192.240735 C200.72458,192.240735 200.931201,192.240735 201.206695,192.172061 C201.688811,192.172061 202.102052,192.172061 202.515294,192.034712 C202.99741,192.034712 203.479525,191.897363 203.892767,191.760014 L204.030514,191.760014 C204.512629,191.69134 204.994745,191.69134 205.47686,191.553991 L206.785459,191.141945 C209.884772,190.317852 212.433097,188.73834 213.328454,187.090154 C213.88633,186.060038 213.810569,185.235945 213.672822,184.68655 L213.052959,182.832341 L230.615735,176.926342 L230.684609,177.20104 C230.822356,177.613086 231.104738,178.162481 231.648839,178.505853 C231.786587,178.643202 231.993208,178.780551 232.199828,178.9179 C232.544197,179.055249 232.888565,179.192597 233.37068,179.329946 C233.646175,179.398621 233.852796,179.467295 234.12829,179.467295 C234.548419,179.53597 235.023647,179.604644 235.574636,179.604644 C236.883235,179.604644 238.329581,179.398621 239.844801,178.9179 L241.015653,178.574528 C244.734829,177.407063 248.385131,175.003459 247.627521,172.187808 L241.704389,151.65416 C241.497768,150.898741 240.671285,149.181881 237.089856,149.181881 C235.712384,149.181881 234.266037,149.456579 232.750817,149.868625 L231.511092,150.211997 C228.480652,151.104764 225.656834,152.890299 224.968097,154.950531 C224.417108,155.911973 224.554856,156.736066 224.692603,157.216787 L224.968097,158.315577 L206.998967,163.328809 L206.854333,162.985437 C206.785459,162.779414 206.647712,162.436042 206.509965,162.161344 C206.027849,161.268577 204.788124,160.238461 201.964305,160.238461 C200.517959,160.238461 198.933865,160.513158 197.280898,160.993879 L196.17892,161.405926 C195.765678,161.543275 195.42131,161.611949 195.076942,161.749298 C194.6637,161.886647 194.319332,162.023995 193.974964,162.161344 C193.630596,162.367367 193.286228,162.504716 193.010733,162.642065 C192.666365,162.848088 192.390871,162.985437 192.115376,163.19146 C191.564387,163.534832 191.013398,163.946879 190.600156,164.290251 C190.393535,164.496274 190.186914,164.702297 190.049167,164.908321 C189.842546,165.114344 189.704799,165.320367 189.635925,165.52639 C189.222684,166.075785 188.947189,166.693855 188.947189,167.311925 C188.947189,167.517948 189.016063,167.792646 189.084936,167.998669 L189.15381,168.273367 L140.597901,181.802225 L161.810979,157.697508 L163.952949,159.483042 C164.565924,159.963763 165.323534,160.238461 166.150018,160.238461 C169.731446,160.238461 174.414853,155.774624 177.445293,151.997532 L178.960513,150.005974 C179.304881,149.593927 179.580375,149.181881 179.924744,148.70116 C179.993617,148.632486 180.062491,148.495137 180.200238,148.357788 C180.475733,147.945742 180.820101,147.465021 181.095595,147.052974 C183.230678,144.099975 184.952519,140.666254 184.952519,137.987952 L217.254251,122.742234 L216.634388,121.300071 C198.176255,78.5845893 162.568589,75.7002641 162.231108,75.7002641 L160.777875,75.6315897 L153.47727,111.685654 C153.339523,111.685654 153.132902,111.754328 152.995154,111.823003 C152.788534,111.823003 152.581913,111.891677 152.375292,112.029026 C151.548808,112.235049 150.653451,112.647096 149.826967,113.265165 C147.967379,114.363956 146.107791,116.080816 144.454824,117.866351 C143.972709,118.347072 143.559467,118.827793 143.077352,119.377188 L141.493258,121.231397 C137.636335,125.763908 135.363505,130.433768 135.639,133.386767 L135.639,133.524116 C135.570126,134.966278 135.983368,136.133743 136.878725,136.889162 L138.049577,137.850604 L116.423257,165.251693 L115.665647,115.806119 L116.629878,115.806119 C118.351719,115.806119 119.52257,114.363956 120.28018,112.372398 C120.349054,112.097701 120.417928,111.754328 120.555675,111.479631 C120.693422,111.136259 120.762296,110.792887 120.831169,110.449515 C121.106664,109.350724 121.244411,108.183259 121.313285,107.015794 L121.382158,105.710981 C121.519906,102.345935 120.762296,99.5302838 119.453697,98.1567956 C118.696087,97.3327027 117.869603,97.1953539 117.318614,97.1266795 L115.321279,97.1266795 L115.045785,78.6532637 L115.390153,78.6532637 C116.147763,78.6532637 116.836499,78.378566 117.318614,77.8291708 C118.420592,76.9364035 119.109329,75.3568921 119.453697,73.502683 C119.660318,72.5412413 119.729191,71.5797996 119.798065,70.5496835 L119.798065,69.2448697 C119.866939,65.3991029 118.627213,61.2099639 115.741408,61.0726151 L94.2459484,60.4545455 C91.353256,60.4545455 89.9757834,64.57501 89.9137971,68.3521024 L89.9137971,69.6569162 C89.8380361,72.815939 90.595646,75.9749617 92.3174868,77.2797755 C92.3174868,77.2797755 92.3863604,77.2797755 92.3863604,77.3484499 C93.1439703,78.1038684 93.9704539,78.3098916 94.4525693,78.3098916 L95.5545474,78.3098916 L94.8658111,96.9893307 L94.4525693,96.9893307 L94.1770748,96.9893307 C91.1466351,96.9893307 89.7691625,101.384493 89.7002889,105.436283 L89.6314152,106.809771 C89.5625416,110.930236 90.8711406,115.394072 93.9015803,115.394072 L94.1082012,115.394072 L92.3174868,161.4746 L72.0686397,135.378325 L74.2037222,133.661465 C74.6858376,133.249418 75.3057003,132.494 75.4434475,131.189186 C75.7189421,128.304861 73.308365,123.566327 69.3825681,119.033816 L67.729601,117.179607 C67.2474856,116.561537 66.6964966,116.012142 66.1455075,115.462747 C66.1455075,115.462747 66.1455075,115.394072 66.0766339,115.394072 C62.908447,111.891677 59.6025127,109.556747 56.9853148,109.007352 L48.1006166,74.5327992 L46.5165231,74.8761712 C0.991053964,84.8339604 -8.51350692,119.171165 -8.58238055,119.514537 L-8.92674869,120.888025 L25.0968243,134.897604 C25.0968243,135.378325 25.1656979,135.859046 25.3034452,136.339767 C25.3723188,136.683139 25.5100661,137.095185 25.5789397,137.507232 C25.9921815,139.086743 26.8875387,140.803603 27.9895168,142.657812 C28.4716322,143.413231 28.9537476,144.099975 29.5047366,144.786719 C29.8491048,145.404789 30.3312202,145.954184 30.7444619,146.503579 L32.3285554,148.426463 C35.0835006,151.860183 39.4225393,155.843299 42.7973471,156.324019 C43.4240971,156.530043 44.0370724,156.667392 44.5880615,156.667392 C45.4834187,156.667392 46.2410286,156.392694 46.8677786,155.911973 L47.9628693,155.019206 L70.0024308,180.291388 L15.6611371,166.281809 L15.9366316,165.389041 C16.0743788,164.839646 16.1432525,164.015553 15.5922634,162.985437 C15.0412744,162.023995 13.9392963,160.993879 12.4309638,160.169786 C12.2863292,160.101112 12.148582,159.963763 12.0108347,159.963763 C10.9777303,159.345693 9.87575218,158.796298 8.70490048,158.452926 L7.39630151,158.04088 C5.81220803,157.560159 4.15924092,157.285461 2.78176833,157.285461 C-0.661913146,157.285461 -1.62614396,158.796298 -1.90163848,159.75774 L-2.45262751,161.611949 L-20.3597712,157.010764 L-20.2840102,156.667392 C-20.1531503,156.186671 -20.0842767,155.362578 -20.5663921,154.401136 C-20.7041394,154.195113 -20.8418866,153.920415 -21.1173811,153.714392 C-21.2551284,153.508369 -21.3928756,153.302346 -21.5994965,153.096322 C-21.9438647,152.821625 -22.3571065,152.478253 -22.8392219,152.134881 C-23.9411999,151.379462 -25.3875462,150.692718 -26.9716396,150.211997 L-28.211365,149.868625 C-29.6577112,149.456579 -31.172931,149.250555 -32.48153,149.250555 C-35.9252115,149.250555 -36.8894423,150.692718 -37.1649368,151.585485 L-43.5701844,172.050459 C-43.7079316,172.53118 -43.7768053,173.355273 -43.2946899,174.316714 C-42.3993327,175.9649 -40.0576293,177.475737 -37.0271896,178.437179 L-35.7805769,178.780551 C-34.2722444,179.192597 -32.8258982,179.467295 -31.4484256,179.467295 C-29.313343,179.467295 -28.1424913,178.849225 -27.4537551,178.231156 C-27.4537551,178.162481 -27.4537551,178.162481 -27.3848814,178.162481 C-26.6961451,177.68176 -26.351777,177.063691 -26.2140297,176.651644 L-25.9385352,175.552854 L-8.10026514,181.25283 L-8.16913877,181.596202 C-8.23112504,181.939574 -8.30688603,182.282946 -8.30688603,182.626318 C-8.30688603,183.107039 -8.23112504,183.58776 -7.89364425,184.205829 C-6.99828707,185.922689 -4.38108914,187.570875 -1.28177581,188.463643 L0.0268231502,188.875689 C1.61091663,189.35641 3.26388374,189.562433 4.64135633,189.562433 C8.22278507,189.562433 9.18701588,188.051596 9.4625104,187.158829 L9.60025766,186.815457 L62.2197107,203.572012 L21.7908901,214.834615 L20.9644065,212.156313 C20.5511648,210.8515 19.2425658,209.271988 14.9724008,209.271988 C12.2863292,209.271988 8.98728236,209.958732 5.60558715,211.057523 L3.26388374,211.881616 C2.16190567,212.224988 0.991053964,212.705709 -0.0420504793,213.18643 C-0.455292257,213.323778 -0.799660405,213.529802 -1.14402855,213.66715 C-4.24334188,214.90329 -7.0671607,216.688824 -8.37575966,218.680382 L-43.7768053,213.941848 L-44.0522998,215.452685 C-52.0416408,261.258515 -23.7276917,283.028303 -23.4590845,283.234326 L-22.3571065,284.127093 L3.53937826,257.962144 C3.67712552,258.030818 3.88374641,258.099493 4.02149367,258.099493 C4.36586181,258.168167 4.64135633,258.305516 5.05459811,258.37419 C5.19234537,258.442865 5.33009263,258.442865 5.46783989,258.442865 C6.08770255,258.580213 6.84531248,258.648888 7.67179603,258.648888 C8.2916587,258.648888 8.98728236,258.580213 9.66913129,258.511539 C10.4267412,258.442865 11.2532248,258.305516 12.0797083,258.168167 C13.4571809,257.962144 14.9724008,257.618772 16.418747,257.138051 L18.829324,256.451307 C24.483849,254.734447 29.0226212,251.98747 30.4000938,249.446517 C30.4689674,249.377843 30.4689674,249.240494 30.4689674,249.17182 C31.295451,248.073029 31.5709455,246.905564 31.2265773,245.806774 L30.8133356,244.50196 L62.4263315,233.788752 L30.6755883,274.10063 L29.9179784,273.48256 C29.3669893,273.001839 28.6782531,272.795816 27.9895168,272.795816 C26.4742969,272.795816 24.8213298,273.688583 23.3749836,274.856048 C23.2372363,274.924723 23.1683627,275.062071 23.0306154,275.130746 C22.6173737,275.405444 22.2730055,275.748816 21.9286374,276.160862 C21.4465219,276.504234 21.1021538,276.916281 20.688912,277.328327 L19.7935548,278.358443 C17.6584723,280.830722 16.418747,283.440349 16.5564942,285.363233 C16.6253679,286.462023 17.1763569,287.148767 17.5964861,287.492139 L19.1048185,288.728279 L7.67179603,303.287253 L7.46517514,303.08123 C6.91418611,302.669184 6.29432344,302.394486 5.54360088,302.394486 C4.77910359,302.394486 3.88374641,302.669184 3.05726285,303.149905 C2.78176833,303.287253 2.50627381,303.424602 2.2307793,303.630625 C1.95528478,303.767974 1.61091663,303.973997 1.33542211,304.317369 C0.508938557,304.79809 -0.386418627,305.622183 -1.21290218,306.583625 L-1.97051211,307.545067 C-4.5188364,310.498066 -6.17180351,314.549856 -4.03672099,316.47274 L12.148582,330.482319 C12.699571,330.96304 13.3883073,331.169063 14.1528046,331.169063 C16.3498734,331.169063 18.9670713,329.040156 20.688912,327.048599 L21.4465219,326.087157 C23.4438572,323.752227 24.8213298,320.936576 24.408088,318.876344 L24.408088,318.80767 L24.408088,318.532972 C24.2703408,317.434181 23.7882254,316.816112 23.3749836,316.541414 L22.5485,315.785996 L34.8768797,301.776416 L35.1523742,302.051114 C35.2212479,302.119788 35.3589951,302.188463 35.4278688,302.188463 C35.6344896,302.325812 35.8411105,302.46316 36.0477314,302.531835 C36.4609732,302.737858 36.874215,302.806532 37.3563304,302.806532 C39.6980338,302.806532 42.452979,300.540277 44.2436933,298.41137 L45.1459379,297.381254 C45.7589132,296.557161 46.3787759,295.733068 46.8677786,294.840301 C47.4118803,294.016208 47.7562484,293.123441 47.9628693,292.299348 C48.5138584,290.582488 48.4449847,289.071651 47.3430067,288.110209 L47.0675122,287.904186 L89.2870471,240.038123 L87.3585855,288.659604 L84.5347666,288.59093 C83.914904,288.59093 82.9506732,288.796953 81.9864423,289.758395 C79.9891071,291.818627 78.7493818,296.831859 78.887129,302.875207 L78.9560026,305.347486 C78.9560026,306.377602 79.0248763,307.339043 79.1626235,308.36916 L79.1626235,308.712532 C79.3692444,312.42095 80.195728,316.335391 81.9175687,318.464298 L66.4898757,350.672595 L67.8673483,351.359339 C80.6089698,358.020757 93.4194649,361.385803 106.023339,361.385803 C126.134439,361.385803 138.325071,352.870176 138.87606,352.526804 L140.046912,351.702711 L122.966252,319.151042 C123.172873,318.876344 123.379494,318.601646 123.586115,318.258274 C123.930483,317.708879 124.205977,317.159484 124.481472,316.541414 C124.82584,315.648647 125.101334,314.618531 125.376829,313.51974 C125.58345,312.489624 125.790071,311.390834 125.858944,310.292043 C125.927818,309.811322 125.996692,309.330601 125.996692,308.84988 C126.072453,308.094462 126.134439,307.339043 126.134439,306.652299 L126.203313,304.180021 C126.34106,298.892091 125.307955,293.398139 123.035126,291.131883 C123.035126,291.063209 122.966252,290.994534 122.897378,290.92586 C122.070895,289.827069 121.106664,289.140325 119.866939,289.140325 L118.420592,289.140325 L117.525235,235.024891 L161.810979,285.912628 L161.053369,286.530698 C160.640127,286.87407 160.089138,287.492139 159.951391,288.59093 C159.813644,289.68972 160.158012,291.063209 160.915622,292.574046 C161.397737,293.878859 162.231108,295.183673 163.119578,296.282464 L163.952949,297.31258 C165.67479,299.510161 168.2851,301.913765 170.695677,301.913765 C171.384414,301.913765 172.004276,301.639068 172.562153,301.227021 L174.070485,299.990882 L186.192244,314.000461 L185.985623,314.13781 C185.572381,314.481182 185.021392,315.099252 184.883645,316.129368 C184.814771,316.678763 184.883645,317.365507 185.090266,318.052251 C185.296887,319.013693 185.779002,320.043809 186.467738,321.211274 C186.812107,321.898018 187.294222,322.584762 187.845211,323.271506 L188.602821,324.232948 C190.324662,326.29318 192.872986,328.490761 195.145816,328.490761 C195.834552,328.490761 196.454415,328.284738 197.005404,327.872692 L213.810569,314.687205 C214.292685,314.343833 214.7748,313.725763 214.912547,312.626973 C215.119168,310.772764 214.086064,308.231811 212.088729,305.759532 L211.331119,304.729416 C209.678152,302.737858 207.129827,300.608951 204.925871,300.471603 L204.71925,300.471603 C204.512629,300.402928 204.237135,300.402928 204.030514,300.402928 C203.341778,300.402928 202.653041,300.677626 202.2398,301.020998 L201.344442,301.776416 L189.91142,287.011419 L190.118041,286.805395 C190.531283,286.462023 190.806777,286.049977 191.013398,285.63793 C191.220019,285.294558 191.357766,284.951186 191.42664,284.470465 C191.633261,282.616256 190.531283,279.86928 188.3962,277.397001 L188.327326,277.259653 L187.500843,276.160862 C185.710128,273.963281 182.955183,271.628351 180.61348,271.628351 C179.85587,271.628351 179.236007,271.834374 178.753892,272.246421 L178.478397,272.452444 L145.556802,230.01166 L175.10359,239.420054 L174.34598,242.098355 C174.208232,242.716425 174.070485,243.677867 174.759221,244.845332 C176.205568,247.386285 180.820101,249.927238 186.605486,251.438075 L189.016063,251.98747 C189.704799,252.193494 190.462409,252.330842 191.151145,252.468191 C191.908755,252.60554 192.597491,252.742889 193.286228,252.880238 C195.008068,253.22361 196.667923,253.360958 198.107382,253.360958 C199.898096,253.360958 201.413316,253.154935 202.515294,252.674214 L229.513757,276.023513 L230.546861,274.924723 C262.366478,240.930891 250.726835,207.28043 250.589088,206.937058 Z" id="Fill-1-Copy" fill-opacity="0.049999997" fill="#231F20" fill-rule="evenodd" style="mix-blend-mode: multiply;" mask="url(#mask-2)"></path>
        </g>
    </g>
</svg>