<svg xmlns="http://www.w3.org/2000/svg" xmlns:xlink="http://www.w3.org/1999/xlink" width="588" height="406" viewBox="0 0 588 406"><defs><path id="x990a" d="M120 1687a3 3 0 0 1 3-3h582a3 3 0 0 1 3 3v403H120z"/><path id="x990c" d="M502.72 1999.84c.21.53 18 51.89-30.6 103.78l-1.58 1.67-41.24-35.64c-1.68.74-4 1.05-6.73 1.05-2.2 0-4.73-.2-7.36-.73-1.05-.21-2.1-.42-3.26-.63-1.06-.21-2.21-.42-3.26-.73l-3.69-.84c-8.83-2.3-15.88-6.19-18.09-10.07a5.39 5.39 0 0 1-.63-4.19l1.16-4.09-45.13-14.36 50.28 64.78.42-.31a4.22 4.22 0 0 1 2.84-.95c3.58 0 7.79 3.57 10.52 6.92l1.26 1.68.1.2c3.27 3.78 4.95 7.97 4.64 10.8-.1.74-.32 1.26-.63 1.79a5.4 5.4 0 0 1-1.37 1.78l-.32.31 17.46 22.54 1.37-1.15a4.51 4.51 0 0 1 3.79-.84h.31c3.37.2 7.26 3.46 9.79 6.5l1.15 1.57c3.05 3.77 4.63 7.65 4.32 10.48-.21 1.68-.95 2.62-1.69 3.15l-25.66 20.12c-.84.63-1.8.94-2.84.94-3.47 0-7.37-3.35-10-6.5l-1.15-1.46a18.22 18.22 0 0 1-2.1-3.15 16.79 16.79 0 0 1-2.11-4.82 7.38 7.38 0 0 1-.32-2.93 4.66 4.66 0 0 1 1.69-3.04l.31-.21-18.51-21.39-2.3 1.9a4.79 4.79 0 0 1-2.85 1.04c-3.69 0-7.67-3.67-10.3-7.02l-1.28-1.58a20.96 20.96 0 0 1-3.36-5.66c-1.16-2.3-1.68-4.4-1.47-6.08a4.68 4.68 0 0 1 1.68-3.14l1.16-.94-67.64-77.67 1.37 82.6h2.2c1.9 0 3.37 1.04 4.63 2.72.11.1.21.2.21.31 3.48 3.46 5.05 11.85 4.84 19.92l-.1 3.77c0 1.05-.1 2.2-.21 3.36 0 .73-.1 1.46-.21 2.2-.1 1.67-.42 3.35-.74 4.92a40.5 40.5 0 0 1-1.37 4.62c-.42.94-.84 1.78-1.36 2.62-.32.52-.63.94-.95 1.36l26.09 49.68-1.8 1.26c-.83.52-19.45 13.52-50.17 13.52-19.25 0-38.81-5.13-58.27-15.3l-2.1-1.05 23.56-49.16c-2.63-3.25-3.9-9.22-4.21-14.88v-.53a33.98 33.98 0 0 1-.32-4.61l-.1-3.77c-.21-9.23 1.68-16.88 4.73-20.02a5.5 5.5 0 0 1 3.9-1.79l4.3.1 2.95-74.2-64.48 73.06.42.31c1.69 1.47 1.79 3.77.95 6.4a12.64 12.64 0 0 1-1.67 3.87c-.75 1.37-1.7 2.62-2.63 3.88l-1.38 1.57c-2.74 3.25-6.94 6.71-10.52 6.71-.74 0-1.37-.1-2-.42-.31-.1-.63-.31-.95-.52a.8.8 0 0 1-.42-.21l-.42-.42-18.83 21.38 1.27 1.16c.63.41 1.36 1.36 1.57 3.03v.53c.64 3.14-1.47 7.44-4.52 11l-1.16 1.47c-2.63 3.04-6.62 6.3-9.98 6.3a4.51 4.51 0 0 1-3.06-1.06l-24.72-21.38c-3.26-2.93-.73-9.12 3.16-13.63l1.15-1.46a16.5 16.5 0 0 1 3.9-3.46c.42-.53.94-.84 1.36-1.05.42-.32.85-.52 1.27-.73a7.88 7.88 0 0 1 3.8-1.16c1.14 0 2.09.42 2.93 1.05l.31.32 17.46-22.23-2.3-1.88a4.49 4.49 0 0 1-1.59-3.25c-.2-2.94 1.69-6.92 4.95-10.7l1.36-1.57c.64-.63 1.16-1.25 1.9-1.78a7.9 7.9 0 0 1 1.68-1.57c.21-.1.32-.32.53-.42 2.2-1.78 4.73-3.14 7.04-3.14 1.06 0 2.1.31 2.95 1.04l1.16.95 48.49-61.53-48.28 16.35.63 2c.52 1.67.1 3.45-1.16 5.13 0 .1 0 .31-.1.42-2.1 3.88-9.04 8.07-17.68 10.69l-3.68 1.05c-2.2.73-4.52 1.25-6.62 1.57a51.8 51.8 0 0 1-6.74.73c-1.26 0-2.42-.1-3.36-.31-.21 0-.42 0-.63-.1-.63-.11-1.06-.32-1.58-.43-.21 0-.53-.1-.74-.2l-39.55 39.93-1.68-1.36c-.41-.32-43.66-33.54-31.45-103.46l.42-2.3 54.06 7.23c2-3.04 6.32-5.77 11.05-7.65.53-.21 1.05-.53 1.68-.74a42.08 42.08 0 0 1 5.05-1.99l3.58-1.26c5.16-1.67 10.2-2.72 14.3-2.72 6.53 0 8.52 2.4 9.15 4.4l1.27 4.09 61.74-17.2-80.36-25.57-.21.53c-.42 1.36-1.9 3.67-7.36 3.67-2.1 0-4.63-.32-7.05-1.05l-2-.63c-4.73-1.36-8.73-3.88-10.1-6.5a4.68 4.68 0 0 1-.63-2.41c0-.53.12-1.05.21-1.57l.1-.53-27.24-8.7-.42 1.68a4.73 4.73 0 0 1-1.79 2.3c-.1 0-.1 0-.1.11-1.05.94-2.84 1.89-6.1 1.89-2.1 0-4.32-.42-6.62-1.05l-1.9-.53c-4.63-1.46-8.2-3.77-9.58-6.28a4.77 4.77 0 0 1-.42-3.46l9.79-31.24c.42-1.36 1.89-3.56 7.15-3.56 2 0 4.31.31 6.52.94l1.9.52c2.41.74 4.62 1.79 6.3 2.94.74.52 1.37 1.05 1.9 1.47.31.31.52.63.73.94.43.31.64.73.85 1.05.73 1.47.63 2.72.43 3.46l-.12.52 27.35 7.02.84-2.83c.42-1.46 1.9-3.77 7.16-3.77 2.1 0 4.62.42 7.04 1.15l2 .63a22 22 0 0 1 5.05 2.3c.21 0 .42.22.64.32 2.3 1.26 3.99 2.83 4.83 4.3.84 1.57.74 2.83.53 3.67l-.42 1.36 82.99 21.38-33.66-38.57-1.67 1.36a5.58 5.58 0 0 1-3.49 1.16c-.84 0-1.77-.21-2.73-.53-5.15-.73-11.78-6.81-15.99-12.05l-2.42-2.94c-.63-.83-1.37-1.67-1.9-2.62a36.24 36.24 0 0 1-2.3-3.25c-1.69-2.83-3.06-5.45-3.69-7.86-.1-.63-.31-1.26-.42-1.78a7.95 7.95 0 0 1-.31-2.2l-51.97-21.38.53-2.1c.1-.52 14.62-52.93 84.15-68.13l2.42-.53 13.57 52.62c4 .84 9.04 4.4 13.88 9.75.1 0 .1.1.1.1.85.84 1.7 1.68 2.43 2.63l2.52 2.83c6 6.91 9.68 14.15 9.26 18.55a5.54 5.54 0 0 1-1.9 3.77l-3.25 2.62 30.92 39.83 2.74-70.33h-.32c-4.63 0-6.63-6.81-6.52-13.1l.1-2.1c.1-6.18 2.21-12.9 6.84-12.9h1.05l1.05-28.5h-1.68c-.73 0-2-.32-3.15-1.47 0-.1-.1-.1-.1-.1-2.64-2-3.8-6.82-3.68-11.64v-1.99c.1-5.77 2.2-12.05 6.62-12.05l32.83.94c4.4.2 6.3 6.6 6.2 12.47v2c-.11 1.57-.22 3.03-.54 4.5-.52 2.83-1.57 5.24-3.26 6.6a3.83 3.83 0 0 1-2.94 1.26h-.53l.42 28.2h3.05c.85.1 2.1.31 3.26 1.57 2 2.1 3.16 6.4 2.95 11.53l-.1 2a28.6 28.6 0 0 1-.74 5.23 8.7 8.7 0 0 1-.42 1.58c-.21.42-.32.94-.42 1.36-1.16 3.04-2.95 5.24-5.58 5.24h-1.47l1.16 75.47 33.03-41.82-1.8-1.47c-1.36-1.15-2-2.94-1.89-5.14v-.2c-.42-4.51 3.05-11.64 8.95-18.56l2.41-2.83c.74-.84 1.37-1.57 2.1-2.3 2.53-2.73 5.37-5.35 8.21-7.03a11.1 11.1 0 0 1 3.9-1.89c.31-.2.63-.31.94-.31.21-.1.53-.2.74-.2l11.15-55.04 2.22.1c.51 0 54.9 4.4 83.09 69.6l.94 2.2-49.33 23.28c0 4.08-2.63 9.33-5.9 13.83-.41.63-.94 1.36-1.36 2-.2.2-.31.41-.42.52-.53.73-.95 1.36-1.47 1.99l-2.32 3.04c-4.62 5.76-11.78 12.58-17.25 12.58a5.4 5.4 0 0 1-3.35-1.16l-3.27-2.72-32.4 36.8 74.16-20.66-.1-.42c-.11-.31-.22-.73-.22-1.05 0-.94.42-1.88 1.05-2.72.1-.32.32-.63.63-.94.21-.32.53-.63.84-.95.64-.52 1.48-1.15 2.32-1.68.42-.31.84-.52 1.37-.83.42-.21.94-.42 1.47-.74.53-.2 1.05-.42 1.68-.63.53-.2 1.05-.31 1.69-.52l1.68-.63a26.03 26.03 0 0 1 7.15-1.15c4.31 0 6.2 1.57 6.94 2.93.21.42.42.95.53 1.26l.22.52 27.44-7.65-.42-1.67c-.2-.74-.42-2 .42-3.46 1.06-3.15 5.37-5.87 10-7.24l1.9-.52a25.58 25.58 0 0 1 6.62-1.05c5.47 0 6.73 2.62 7.05 3.78l9.04 31.34c1.16 4.3-4.42 7.96-10.1 9.74l-1.79.53a21.64 21.64 0 0 1-6.52 1.05c-.84 0-1.56-.1-2.2-.21-.43 0-.74-.1-1.16-.21-.74-.21-1.27-.42-1.8-.63a5.83 5.83 0 0 1-.83-.63 3.72 3.72 0 0 1-1.48-2l-.1-.41-26.82 9.01.94 2.83c.21.84.33 2.1-.52 3.67-1.37 2.52-5.26 4.93-10 6.19l-2 .62c-.73.21-1.47.21-2.2.32h-.21c-.63.2-1.37.42-2.1.42-.64.2-1.27.2-2 .2-.43.11-.74.11-1.16.11-5.47 0-6.95-2.4-7.37-3.88l-.42-1.36-61.1 20.65 43.54 11.22.63-2.1c.42-1.36 1.47-2.83 4-3.77.1-.1.31-.21.52-.32 1.47-.73 3.79-1.26 6.94-1.26 3.9 0 8.63.84 13.26 2.2l3.57 1.05c2.42.74 5.05 1.68 7.47 2.73 2 .94 3.79 1.89 5.26 2.93.74.53 1.37.95 1.9 1.37l1.47 1.46a6 6 0 0 1 1.15 1.26l55.02-11.84zM477.9 1953c.21 0 .42.1.84.1h.63c1.49 0 3.16-.2 4.95-.73l1.8-.63c4.4-1.26 6.3-3.14 6.4-3.77l-9.15-29.98c0 .21-.74-.1-2.31-.1-1.48 0-3.16.2-4.95.73l-1.79.52c-2.94.95-4.94 2.2-5.89 3.15l8.94 30.6v.11zm-40.29-14.98l6.32 20.34 27.15-9.23-5.47-18.98zm-20.82-1.16c-.32.1-.64.31-.95.52-1.16.74-1.79 1.47-1.9 1.78l10.31 32.81c.21 0 .95.32 2.53.42h.52c1.58 0 3.37-.31 5.26-.84l1.9-.52c4.63-1.26 6.83-3.36 7.04-3.98l-2.2-7.13-6.53-20.55-1.57-5.13h-.1c-.32-.21-1.17-.42-2.84-.42-1.59 0-3.38.31-5.26.84l-2 .52c-.63.1-1.06.32-1.59.53-.42.1-.94.31-1.36.52-.53.2-.95.42-1.26.63zm-88.15 31.44l-8.73 2.41-21.46 5.98.1 1.05v5.13l.1 4.2.11 7.65.1 7.34.11 5.24 12.2-4.1 4.95-1.67 23.67-8.07 8.73-2.83 69.1-23.37-6.83-21.8zm30.5-112.15l40.72 33.96.2.2 45.25-21.37c-23.89-53.15-65.86-62.69-75.75-64.15zm-12.2 8.49c-.94.84-1.89 1.78-2.94 2.93-.63.84-1.37 1.68-2.1 2.62l-2.32 2.94c-4.95 6.29-6.95 11.42-7.37 14.15v.31c-.1.84-.1 1.37.1 1.58l5.37 4.5 28.94 24 7.15 5.98c2 0 7.58-3.35 13.26-10.69l2.42-3.04a43.3 43.3 0 0 0 2.2-3.04c.54-.73.96-1.47 1.38-2.1 3.57-5.97 4.2-10.06 3.69-10.9l-41.36-34.48c-.32 0-.63.1-.95.2-.2 0-.42.11-.63.22-.42.2-.94.42-1.47.73a19 19 0 0 0-3.58 2.52c-.52.42-1.16.94-1.79 1.57zm-48.91 79.35l.42 27.56 27.56-7.65 37.34-42.35-28.72-24zm.01-88.89c.32-.21.74-.84 1.16-1.78.1-.42.31-1.05.42-1.68.42-1.26.63-2.72.74-4.5l.1-2c.1-4.82-1.16-7.65-1.68-7.96h-7.58l-21.57-.21v.1l-5.37-.1c-.42.31-2 3.04-2.1 7.96l-.1 2c-.22 4.71 1.04 7.54 1.68 7.96zm-1.9-56.29c.2-.1.3-.42.52-.73.21-.32.32-.63.42-1.05.21-.63.42-1.26.53-2.1.1-.84.2-1.78.2-2.83v-1.88c.11-4.51-1.15-6.92-1.57-7.24l-31.56-.52c-.2.31-1.47 2.94-1.58 7.13v1.88c-.1 3.15.53 5.46 1.16 6.5zm-26.3 33.23l21.24.2-.31-28.6-19.88-.64zm-108.98 53.58l41.34-33.45c.1 0 .1-.1.21-.1l-12.62-48.44c-56.9 13.42-74.06 52.63-77.42 61.96zm33.03 28.09l29.14-23.8 7.15-5.77c.63-.94-.84-7.13-7.89-15.2l-2.52-2.83c-.74-.84-1.48-1.57-2.21-2.3 0-.11 0-.11-.1-.11a17.9 17.9 0 0 0-2-2c-4.21-3.77-7.9-5.76-9.79-5.76l-42.07 33.97c-.32.42-.1 1.78.63 3.88.2.52.52 1.15.84 1.78.22.42.42.84.63 1.36.53 1.05 1.26 2.1 2 3.25a60.11 60.11 0 0 0 3.89 4.93l2.42 2.83c4.94 5.56 9.78 9.02 12.73 9.86.52.2.94.31 1.36.31h.32zm41.56 47.68l24.1 6.28 1.15-29.34-34.51-44.45-29.04 23.59zm-96.57-26.63c-.1-.2-.74-.84-1.9-1.68a5.58 5.58 0 0 0-1.57-.83c-.95-.63-2.21-1.16-3.69-1.68l-2-.63c-1.89-.63-3.88-.94-5.46-.94-1.69 0-2.42.31-2.53.42l-2.1 7.23-5.9 20.65-1.47 5.24v.1c.43.63 2.63 2.73 7.16 4.1l.1.1 1.79.52c.52.21 1.03.31 1.55.4.5.12.95.16 1.45.23h.05c.42.1.95.1 1.37.2.31 0 .84.11 1.15.11 1.69 0 2.42-.31 2.63-.42zm-54.8-13.2a14.89 14.89 0 0 0-4-2.42c-.64-.2-1.37-.52-2.21-.73l-1.9-.52c-3.57-1.16-7.04-.63-7.36-.42l-8.84 30.17c.21.32 2.32 2.2 6.42 3.35l1.8.53c1.67.52 3.46.84 4.93.84.74 0 1.27-.1 1.69-.21zm25.04 34.27l5.79-20.33-27.68-7.24-5.9 18.87zm114.54 36.48l25.78-7.13 5.35-1.47 4.21-1.26.32-9.74-18.2-4.72-8.42-2.2-90.88-23.48-6.31 22.01zm-101.31 81.34L106.89 2023v-.32l-49.64-6.6c-9.15 57.44 20.82 88.15 28.18 94.86zm12.21.01a34.2 34.2 0 0 0 4.21-.63c.95-.2 1.9-.52 2.85-.73.94-.32 1.99-.63 2.94-.94l3.47-1.26c7.68-2.62 12.2-5.87 13.99-7.87l.1-.1c.54-.63.84-1.15.84-1.47l-2.1-6.7-10.94-36.07-2.63-8.6c-.2-.21-1.37-.84-4.42-.84-3.47 0-8.1.84-12.72 2.41l-3.58 1.26c-1.26.42-2.53.94-3.68 1.36-.1 0-.1.1-.21.1-7.68 3.26-11.05 6.93-11.05 7.97l15.78 51.48s.1.1.32.21c.1 0 .42.1.74.21.2.1.52.21.94.21.63.1 1.47.1 2.42.1.84 0 1.79 0 2.73-.1zm86.47-40.05l8.62-2.94 27.77-9.33.53-13 .21-5.13.32-7.76.1-1.36.21-5.87v-.52l-.42.1-1.58.42-3.68 1.05-20.72 5.76-8.63 2.41-69.1 19.19 10.93 35.74zm-93.2 116.87c-.1 0-.31.1-.52.31-.53.21-1.37.74-2.21 1.37a68.3 68.3 0 0 0-2.63 2.72l-1.16 1.47c-2.84 3.25-3.58 5.97-3.36 6.6l23.98 20.02c.94-.1 3.47-1.46 5.89-4.3l1.15-1.46c2.1-2.41 3.05-4.61 3.27-5.87zm41.66-8.9l-16.52-13.74-17.67 22.54 14.94 12.9zm7.24-.52c1.16 0 4-1.47 6.84-4.72l1.37-1.57c3.15-3.57 3.89-6.6 3.68-7.24l-26.6-21.8c-.53.1-1.37.41-2.64 1.25-.42.2-.84.52-1.26 1.05a15.8 15.8 0 0 0-2.84 2.62l-1.26 1.47c-3.15 3.56-4 6.5-3.78 7.13l5.78 4.72 16.72 13.84zm79.94-98.54l.64-15.83-33.35 11.22-53.74 68.24 17.57 14.47zm-7.56 87c-1.05.31-3.89 5.97-3.68 16.66l.1 3.77c0 1.68.11 3.15.32 4.51v.63c.84 7.65 3.16 11.74 4.21 11.95l53.74.73c.1 0 .31-.1.42-.31.63-.63 1.37-2 1.9-4.2.41-1.15.73-2.61.94-4.19.1-.94.22-1.99.31-3.04.1-1.57.21-3.24.1-5.03v-3.67c-.2-8.38-1.99-13.62-3.36-15.82 0-.1 0-.1-.1-.1-.42-.74-.74-1.06-1.05-1.16l-6.94-.1-37.76-.53zm53.97 43.18l-53.23-.73h-.21l-21.56 45.06c18.09 9 36.18 13.62 53.85 13.62 23.78 0 40.19-8.38 45.44-11.42zm-8.52-135.73l-.21-7.76-.11-9.33-.1-5.24v-.42l-.11-5.24v-1.36l-.1-7.34-.32-18.66v-3.56l-.1-1.68v-4.09l-.43-22.11-.1-7.76-1.26-82.5-23.04-.2-2.95 76.93-.31 7.76-.95 24.53-.2 5.03-.11 5.03-.1 2.1-.22 5.24v1.05l-.31 6.4-.22 7.23-.2 3.77-.22 5.14-.3 9.64-.22 5.35-.53 11.63-.2 7.86-3.16 80.2 37.44.62zm91.93 97.98l16.62-13.62 4.2-3.46v-.1c0-.73-.73-3.67-3.46-7.33l-1.37-1.58c-2.63-3.45-5.26-5.03-6.31-5.03l-26.61 21.9c-.11.21.1 1.26.73 2.73.21.42.42.94.74 1.46.52.95 1.16 2.1 2.1 3.25l1.16 1.57c2.73 3.46 5.36 5.03 6.42 5.03zm20.73 32.72c0 .2.1.84.62 1.78a23.57 23.57 0 0 0 2.64 4.3l1.26 1.47c2.73 3.35 5.15 4.5 5.9 4.5l24.4-19.8c0-.43-.73-3.26-3.36-6.5l-1.16-1.47c-2-2.41-3.9-3.67-5.05-4.2zm-1.05-42.45l-16.42 13.51 18.73 21.59 15.58-12.16zm-72.28-92.77l-34.7-11 .22 13.52 72.03 82.8L389 2103.3zm55.02 12.28l10.52-35.86-50.8-13.1-29.25 9.85-4.94 1.68-15.36 5.24v3.67l29.56 9.44 8.3 2.62zm24.5 19.9c.22 0 .32 0 .54.1 2.52.43 5.04.64 7.15.64 4.73 0 6.3-1.05 6.52-1.26l15.15-51.57c0-.1-.1-.21-.1-.42l-.74-.74c-.21-.31-.74-.73-1.27-1.15a31.4 31.4 0 0 0-6.41-3.46 4.66 4.66 0 0 0-1.69-.63c-.5-.25-1.13-.4-1.68-.63-1.05-.31-2.1-.62-3.37-.94l-3.68-.94c-4-1.05-7.78-1.57-11.15-1.57-2.31 0-4 .2-4.94.52-.1.1-.21.1-.21.1-.84.32-1.26.63-1.37.74l-2 6.7-10.52 36.06-2.52 8.7c0 1.16 4.73 5.45 15.15 8.08l3.68.94c1.16.31 2.31.52 3.47.73zm56.7 33.86c39.24-43.19 31.14-85.22 28.51-94.97l-51.33 11.11-14.94 50.84c0 .1 0 .1-.1.21z"/><clipPath id="x990b"><use xlink:href="#x990a"/></clipPath></defs><g><g transform="translate(-120 -1684)"><use fill="#efefef" xlink:href="#x990a"/></g><g clip-path="url(#x990b)" transform="translate(-120 -1684)"><use fill="#231f20" fill-opacity=".05" xlink:href="#x990c"/></g></g></svg>