<?xml version="1.0" encoding="UTF-8"?>
<svg width="104px" height="75px" viewBox="0 0 104 75" version="1.1" xmlns="http://www.w3.org/2000/svg" xmlns:xlink="http://www.w3.org/1999/xlink">
    <!-- Generator: Sketch 48.1 (47250) - http://www.bohemiancoding.com/sketch -->
    <title>Fill 1</title>
    <desc>Created with Sketch.</desc>
    <defs></defs>
    <g id="Design-Elements" stroke="none" stroke-width="1" fill="none" fill-rule="evenodd" transform="translate(-1139.000000, -1195.000000)">
        <path d="M1216.17385,1243.13996 L1209.7191,1243.13996 C1208.64274,1243.13996 1207.77006,1244.01616 1207.77006,1245.09687 C1207.77006,1246.17757 1208.64274,1247.05378 1209.7191,1247.05378 L1216.17385,1247.05378 C1217.25021,1247.05378 1218.12289,1246.17757 1218.12289,1245.09687 C1218.12289,1244.01616 1217.25021,1243.13996 1216.17385,1243.13996 Z M1201.53166,1240.77503 C1199.1548,1240.77503 1197.22768,1242.70993 1197.22768,1245.09638 C1197.22768,1247.48332 1199.1548,1249.41821 1201.53166,1249.41821 C1203.909,1249.41821 1205.83612,1247.48332 1205.83612,1245.09638 C1205.83612,1242.70993 1203.909,1240.77503 1201.53166,1240.77503 Z M1193.55812,1243.13996 L1165.82371,1243.13996 C1164.74736,1243.13996 1163.87467,1244.01616 1163.87467,1245.09687 C1163.87467,1246.17757 1164.74736,1247.05378 1165.82371,1247.05378 L1193.55812,1247.05378 C1194.63448,1247.05378 1195.50716,1246.17757 1195.50716,1245.09687 C1195.50716,1244.01616 1194.63448,1243.13996 1193.55812,1243.13996 Z M1185.67131,1234.85098 L1200.27063,1226.38833 C1201.25246,1225.81887 1201.25246,1224.3962 1200.27063,1223.82674 L1185.67131,1215.36408 C1184.68997,1214.79511 1183.46256,1215.50645 1183.46256,1216.64488 L1183.46256,1233.57018 C1183.46256,1234.70911 1184.68997,1235.42044 1185.67131,1234.85098 Z M1198.55254,1259.67241 L1183.44746,1259.67241 C1182.3711,1259.67241 1181.49841,1260.54862 1181.49841,1261.62932 C1181.49841,1262.71003 1182.3711,1263.58623 1183.44746,1263.58623 L1198.55254,1263.58623 C1199.6289,1263.58623 1200.50159,1262.71003 1200.50159,1261.62932 C1200.50159,1260.54862 1199.6289,1259.67241 1198.55254,1259.67241 Z M1239.10191,1257.17246 L1234.06266,1257.17246 L1147.93442,1257.17246 L1142.89809,1257.17246 L1142.89809,1260.70468 C1142.89809,1263.67234 1145.30272,1266.08618 1148.25796,1266.08618 L1233.74204,1266.08618 C1236.69728,1266.08618 1239.10191,1263.67234 1239.10191,1260.70468 L1239.10191,1257.17246 Z M1149.88346,1253.25864 L1232.11362,1253.25864 L1232.11362,1204.29532 C1232.11362,1201.32766 1229.70898,1198.91382 1226.75375,1198.91382 L1155.24333,1198.91382 C1152.28809,1198.91382 1149.88346,1201.32766 1149.88346,1204.29532 L1149.88346,1253.25864 Z M1243,1255.21555 L1243,1260.70468 C1243,1265.83032 1238.84659,1270 1233.74204,1270 L1148.25796,1270 C1143.15341,1270 1139,1265.83032 1139,1260.70468 L1139,1255.21555 C1139,1254.13485 1139.87268,1253.25864 1140.94904,1253.25864 L1145.98537,1253.25864 L1145.98537,1204.29532 C1145.98537,1199.16968 1150.13879,1195 1155.24333,1195 L1226.75375,1195 C1231.85829,1195 1236.0117,1199.16968 1236.0117,1204.29532 L1236.0117,1253.25864 L1241.05096,1253.25864 C1242.12732,1253.25864 1243,1254.13485 1243,1255.21555 Z M1227.6391,1205.64852 L1227.6391,1246.87276 C1227.6391,1247.95346 1226.76641,1248.82967 1225.69006,1248.82967 C1224.6137,1248.82967 1223.74101,1247.95346 1223.74101,1246.87276 L1223.74101,1207.60543 L1158.08893,1207.60543 L1158.08893,1246.87276 C1158.08893,1247.95346 1157.21625,1248.82967 1156.13989,1248.82967 C1155.06353,1248.82967 1154.19085,1247.95346 1154.19085,1246.87276 L1154.19085,1205.64852 C1154.19085,1204.56782 1155.06353,1203.69161 1156.13989,1203.69161 L1225.69006,1203.69161 C1226.76641,1203.69161 1227.6391,1204.56782 1227.6391,1205.64852 Z" id="Fill-1" fill="#666666"></path>
    </g>
</svg>