<?xml version="1.0" encoding="UTF-8"?>
<svg width="87px" height="75px" viewBox="0 0 87 75" version="1.1" xmlns="http://www.w3.org/2000/svg" xmlns:xlink="http://www.w3.org/1999/xlink">
    <!-- Generator: Sketch 48.1 (47250) - http://www.bohemiancoding.com/sketch -->
    <title>Fill 1</title>
    <desc>Created with Sketch.</desc>
    <defs></defs>
    <g id="Design-Elements" stroke="none" stroke-width="1" fill="none" fill-rule="evenodd" transform="translate(-1345.000000, -1195.000000)">
        <path d="M1417.10502,1213.73199 C1418.34987,1213.73199 1419.35831,1212.72463 1419.35831,1211.48202 C1419.35831,1210.239 1418.34987,1209.23123 1417.10502,1209.23123 C1415.86017,1209.23123 1414.85133,1210.239 1414.85133,1211.48202 C1414.85133,1212.72463 1415.86017,1213.73199 1417.10502,1213.73199 Z M1408.81092,1213.73199 C1410.05577,1213.73199 1411.06461,1212.72463 1411.06461,1211.48202 C1411.06461,1210.239 1410.05577,1209.23123 1408.81092,1209.23123 C1407.56648,1209.23123 1406.55723,1210.239 1406.55723,1211.48202 C1406.55723,1212.72463 1407.56648,1213.73199 1408.81092,1213.73199 Z M1400.51723,1213.73199 C1401.76167,1213.73199 1402.77051,1212.72463 1402.77051,1211.48202 C1402.77051,1210.239 1401.76167,1209.23123 1400.51723,1209.23123 C1399.27238,1209.23123 1398.26313,1210.239 1398.26313,1211.48202 C1398.26313,1212.72463 1399.27238,1213.73199 1400.51723,1213.73199 Z M1381.99777,1239.14104 C1381.33417,1239.74871 1381.28933,1240.77845 1381.89749,1241.44148 C1383.19655,1242.85707 1383.91232,1244.69474 1383.91232,1246.61707 L1383.91232,1249.72828 L1368.56204,1249.72828 L1368.56204,1246.61707 C1368.56204,1244.53275 1369.38583,1242.58315 1370.88176,1241.12727 C1371.52661,1240.49965 1371.53965,1239.46868 1370.91111,1238.82479 C1370.28257,1238.18049 1369.25009,1238.16828 1368.60566,1238.79548 C1366.47466,1240.86963 1365.30114,1243.64709 1365.30114,1246.61707 L1365.30114,1251.35633 C1365.30114,1252.25543 1366.03118,1252.98439 1366.93159,1252.98439 L1385.54277,1252.98439 C1386.44319,1252.98439 1387.17322,1252.25543 1387.17322,1251.35633 L1387.17322,1246.61707 C1387.17322,1243.87786 1386.15337,1241.25873 1384.30159,1239.24116 C1383.69303,1238.57895 1382.66217,1238.53418 1381.99777,1239.14104 Z M1380.51732,1229.11711 C1380.51732,1226.7605 1378.59746,1224.84346 1376.23739,1224.84346 C1373.87731,1224.84346 1371.95745,1226.7605 1371.95745,1229.11711 L1371.95745,1231.42365 C1371.95745,1233.78026 1373.87731,1235.6973 1376.23739,1235.6973 C1378.59746,1235.6973 1380.51732,1233.78026 1380.51732,1231.42365 L1380.51732,1229.11711 Z M1383.77822,1229.11711 L1383.77822,1231.42365 C1383.77822,1235.5756 1380.39544,1238.95341 1376.23739,1238.95341 C1372.07933,1238.95341 1368.69655,1235.5756 1368.69655,1231.42365 L1368.69655,1229.11711 C1368.69655,1224.96516 1372.07933,1221.58735 1376.23739,1221.58735 C1380.39544,1221.58735 1383.77822,1224.96516 1383.77822,1229.11711 Z M1394.81759,1261.40794 L1382.1816,1261.40794 C1381.28118,1261.40794 1380.55115,1262.1369 1380.55115,1263.036 C1380.55115,1263.93509 1381.28118,1264.66405 1382.1816,1264.66405 L1394.81759,1264.66405 C1395.718,1264.66405 1396.44804,1263.93509 1396.44804,1263.036 C1396.44804,1262.1369 1395.718,1261.40794 1394.81759,1261.40794 Z M1418.25531,1252.98439 C1419.15572,1252.98439 1419.88576,1252.25543 1419.88576,1251.35633 L1419.88576,1233.05171 C1419.88576,1232.15261 1419.15572,1231.42365 1418.25531,1231.42365 C1417.35489,1231.42365 1416.62486,1232.15261 1416.62486,1233.05171 L1416.62486,1251.35633 C1416.62486,1252.25543 1417.35489,1252.98439 1418.25531,1252.98439 Z M1422.89271,1227.96404 L1405.15179,1227.96404 L1394.89789,1238.46214 C1394.89544,1238.46458 1394.89259,1238.46621 1394.89014,1238.46824 C1394.81433,1238.54517 1394.73158,1238.61477 1394.64231,1238.67541 C1394.61704,1238.6921 1394.58932,1238.70268 1394.56324,1238.71815 C1394.4972,1238.75722 1394.43117,1238.79711 1394.35902,1238.82723 C1394.31011,1238.84758 1394.25834,1238.85857 1394.20739,1238.87404 C1394.15562,1238.89032 1394.1063,1238.90985 1394.05209,1238.92084 C1393.94652,1238.94201 1393.8385,1238.95341 1393.73048,1238.95341 C1393.6245,1238.95341 1393.51853,1238.94201 1393.41377,1238.92166 C1393.36934,1238.9127 1393.32776,1238.89602 1393.28496,1238.88381 C1393.22667,1238.86753 1393.16798,1238.85328 1393.11214,1238.83008 C1393.06281,1238.81014 1393.01798,1238.78246 1392.97151,1238.75763 C1392.92504,1238.73362 1392.87735,1238.71245 1392.83333,1238.68315 C1392.7783,1238.64692 1392.7298,1238.60297 1392.68007,1238.56104 C1392.65153,1238.53622 1392.61974,1238.51749 1392.59202,1238.49063 C1392.58958,1238.48819 1392.58835,1238.48534 1392.58591,1238.4833 C1392.52314,1238.42144 1392.46892,1238.35265 1392.41716,1238.28183 C1392.40534,1238.26596 1392.38985,1238.25212 1392.37925,1238.23584 C1392.31974,1238.14874 1392.26919,1238.05594 1392.22802,1237.95785 C1392.18645,1237.85976 1392.15506,1237.75841 1392.13387,1237.65544 C1392.1302,1237.63631 1392.1306,1237.61596 1392.12775,1237.59642 C1392.11308,1237.50973 1392.10166,1237.42263 1392.10126,1237.33512 C1392.10085,1237.33186 1392.10003,1237.32901 1392.10003,1237.32535 L1392.10003,1227.96404 L1391.32842,1227.96404 C1388.18165,1227.96404 1385.62185,1225.40799 1385.62185,1222.26585 L1385.62185,1211.3416 L1358.58776,1211.3416 C1356.11559,1211.3416 1354.10403,1213.35021 1354.10403,1215.81875 L1354.10403,1256.07159 L1422.89271,1256.07159 L1422.89271,1227.96404 Z M1428.73869,1259.32769 L1424.52724,1259.32769 C1424.52602,1259.32769 1424.52439,1259.3281 1424.52316,1259.3281 L1352.47358,1259.3281 C1352.47276,1259.3281 1352.47113,1259.32769 1352.46991,1259.32769 L1348.2609,1259.32769 L1348.2609,1262.26674 C1348.2609,1264.73569 1350.27206,1266.74389 1352.74464,1266.74389 L1424.25495,1266.74389 C1426.72712,1266.74389 1428.73869,1264.73569 1428.73869,1262.26674 L1428.73869,1259.32769 Z M1388.88275,1222.26585 C1388.88275,1223.61225 1389.97963,1224.70793 1391.32842,1224.70793 L1393.72926,1224.70793 L1393.72967,1224.70793 L1393.73048,1224.70793 C1394.6309,1224.70793 1395.36093,1225.43689 1395.36093,1226.33598 L1395.36093,1233.32441 L1403.29756,1225.19919 C1403.30123,1225.19553 1403.30571,1225.19309 1403.30897,1225.18942 C1403.34606,1225.15239 1403.38968,1225.12186 1403.43003,1225.08808 C1403.64077,1224.91428 1403.88126,1224.79381 1404.13602,1224.7413 C1404.14865,1224.73886 1404.16292,1224.73927 1404.17596,1224.73682 C1404.26849,1224.72054 1404.36143,1224.70956 1404.45518,1224.70915 C1404.45885,1224.70915 1404.46211,1224.70793 1404.46577,1224.70793 L1426.29342,1224.70793 C1427.64221,1224.70793 1428.7391,1223.61225 1428.7391,1222.26585 L1428.7391,1200.69819 C1428.7391,1199.35138 1427.64221,1198.25611 1426.29342,1198.25611 L1391.32842,1198.25611 C1389.97963,1198.25611 1388.88275,1199.35138 1388.88275,1200.69819 L1388.88275,1222.26585 Z M1426.15361,1227.96404 L1426.15361,1256.07159 L1430.36914,1256.07159 C1431.26956,1256.07159 1431.99959,1256.80055 1431.99959,1257.69964 L1431.99959,1262.26674 C1431.99959,1266.53102 1428.52551,1270 1424.25495,1270 L1352.74464,1270 C1348.47408,1270 1345,1266.53102 1345,1262.26674 L1345,1257.69964 C1345,1256.80055 1345.73003,1256.07159 1346.63045,1256.07159 L1350.84313,1256.07159 L1350.84313,1215.81875 C1350.84313,1211.55447 1354.31761,1208.08549 1358.58776,1208.08549 L1385.62185,1208.08549 L1385.62185,1200.69819 C1385.62185,1197.55605 1388.18165,1195 1391.32842,1195 L1426.29342,1195 C1429.44019,1195 1432,1197.55605 1432,1200.69819 L1432,1222.26585 C1432,1225.40799 1429.44019,1227.96404 1426.29342,1227.96404 L1426.15361,1227.96404 Z M1380.34734,1218.0907 L1360.96822,1218.0907 L1360.96822,1250.96031 C1360.96822,1251.8594 1360.23819,1252.58836 1359.33777,1252.58836 C1358.43735,1252.58836 1357.70732,1251.8594 1357.70732,1250.96031 L1357.70732,1216.46264 C1357.70732,1215.56355 1358.43735,1214.83459 1359.33777,1214.83459 L1380.34734,1214.83459 C1381.24776,1214.83459 1381.97779,1215.56355 1381.97779,1216.46264 C1381.97779,1217.36174 1381.24776,1218.0907 1380.34734,1218.0907 Z" id="Fill-1" fill="#666666"></path>
    </g>
</svg>